<?xml version="1.0" encoding="utf-8"?>
<!-- Generator: Adobe Illustrator 26.0.0, SVG Export Plug-In . SVG Version: 6.00 Build 0)  -->
<svg version="1.1" id="Layer_1" xmlns="http://www.w3.org/2000/svg" xmlns:xlink="http://www.w3.org/1999/xlink" x="0px" y="0px"
	 viewBox="0 0 502.8 147.9" style="enable-background:new 0 0 502.8 147.9;" xml:space="preserve">
<style type="text/css">
	.st0{fill-rule:evenodd;clip-rule:evenodd;fill:#B93828;}
	.st1{fill-rule:evenodd;clip-rule:evenodd;fill:#E56D29;}
	.st2{fill-rule:evenodd;clip-rule:evenodd;fill:#FFC72B;}
	.st3{fill-rule:evenodd;clip-rule:evenodd;fill:#384353;}
	.st4{fill-rule:evenodd;clip-rule:evenodd;fill:#2B343F;}
	.st5{fill-rule:evenodd;clip-rule:evenodd;fill:#FEFEFE;}
	.st6{fill:#FEFEFE;}
	.st7{fill:#E56D29;}
	.st8{fill:#FFFFFF;}
</style>
<g>
	<g>
		<path class="st0" d="M74.3,2.4c39.5,0,71.5,32.1,71.5,71.5s-31.9,71.5-71.5,71.5c-39.5,0-71.5-31.9-71.5-71.5
			C2.7,34.5,34.8,2.4,74.3,2.4z"/>
		<path class="st1" d="M74.3,9c35.8,0,65,29,65,64.8s-29.2,65-65,65s-65-29-65-64.8S38.4,9,74.3,9z"/>
		<path class="st2" d="M74.3,15.6c32.2,0,58.2,26.2,58.2,58.2c0,32.2-26,58.2-58.2,58.2c-32.2,0.1-58.4-25.9-58.4-58.1
			S42.1,15.6,74.3,15.6z"/>
		<path class="st3" d="M74.3,22.3c28.6,0,51.8,23,51.8,51.7s-23.3,51.7-51.8,51.7S22.6,102.4,22.6,74S45.7,22.3,74.3,22.3z"/>
		<g>
			<path class="st4" d="M62.7,64V31.7h12.6v39.9h8.9l6.4-13.5h7.6L105,111H92.7l-2.9-22.7l-11.4,24h-6.2l-11.4-24L57.8,111H45.5
				l6.7-52.9h7.6L62.7,64z M72.3,84.2l3,6.3l3-6.3H72.3z"/>
			<path class="st5" d="M91.2,79.8l3.5,28.9h7.5L97,67.4l-0.9-6.8h-3.9l-2.8,5.6L75.3,96.2L61,66.2l-2.8-5.6h-3.9l-0.9,6.8
				l-5.3,41.2h7.5l3.7-28.9l11.8,25l2.5,5.3h3.2l2.4-5.3L91.2,79.8z M65.1,34.2h7.7v39.9h10.2l-3.5,7.6h-6.7h-1.7l-6-12.5
				C65.1,69.3,65.1,34.2,65.1,34.2z"/>
		</g>
	</g>
	<g>
		<g>
			<path class="st6" d="M176.2,12.7l7.9,32l8-32h1.7l11.8,47.4h-4.4L193,27l-8.2,33.2h-1.2L175.3,27l-8.3,33.2h-4.4l11.8-47.4H176.2
				z"/>
			<path class="st6" d="M211.4,12.7h3.5c4.7,0,9.3,2.1,13.9,6.3c5.3,4.9,7.9,10.7,7.9,17.4c0,2.4-0.3,4.7-1,6.9
				c-0.4,1.1-0.8,2.2-1.3,3.3c-0.5,1-1.1,2-1.7,3c-1.3,2-2.9,3.7-4.6,5.2c-0.9,0.8-1.9,1.4-2.9,2c-1,0.6-2.1,1.1-3.2,1.6
				c-2.9,1.2-5.3,1.8-7.2,1.8h-3.5V12.7z M215.7,55.9c2.4-0.3,4.6-1.1,6.7-2.2c2-1.1,3.8-2.6,5.4-4.3c1.5-1.7,2.7-3.7,3.6-6
				c0.9-2.1,1.3-4.4,1.3-6.9c0-2.4-0.4-4.8-1.3-6.9c-0.9-2.2-2.1-4.1-3.7-5.9c-0.8-0.9-1.6-1.7-2.5-2.4c-0.9-0.7-1.8-1.4-2.9-2
				c-2.1-1.2-4.3-1.9-6.7-2.2V55.9z"/>
			<path class="st7" d="M245.9,60.2V17h-8.1v-4.3h20.6V17h-8.1v43.2H245.9z"/>
			<path class="st7" d="M269.6,21.5l9.6,38.6H275l-1.3-5.3h-10.1l-1.3,5.3h-4.2l9.6-38.6H269.6z M272.6,50.8l-4-16.2l-4,16.2H272.6z
				"/>
			<path class="st7" d="M281.2,60.2l8.3-19.5l-8.2-19.1h4.4l6,14l6-14h4.4L294,40.7l8.4,19.5h-4.5l-6.1-14.3l-6.2,14.3H281.2z"/>
			<path class="st7" d="M304.9,52.5c2.2,2.2,4.7,3.3,7.5,3.3c1,0,2-0.2,3.1-0.5c1-0.3,1.9-0.8,2.6-1.6c0.4-0.3,0.7-0.7,1-1.1
				c0.3-0.4,0.6-0.8,0.8-1.3c0.5-0.9,0.7-1.9,0.7-3.1c-0.1-2.1-1.4-4.9-3.9-8.6l-3.5-5C309,29,307,24.6,307,21.7
				c0-1.3,0.3-2.6,0.8-3.7c0.5-1.1,1.1-2,2.1-2.9c0.8-0.8,1.7-1.4,2.9-1.9c1.1-0.4,2.2-0.6,3.4-0.6c2.8,0,5,1.2,6.9,3.6
				c-1.8,1.8-2.8,2.7-3,2.7l0.1-0.1c-1.6-1.3-3.1-2-4.4-2c-3,0-4.5,1.5-4.5,4.4c0,1.6,1.2,4.2,3.6,7.8l3.5,5.2
				c4.3,6.5,6.4,11.4,6.4,14.9c0,1.6-0.3,3.1-0.8,4.5c-0.5,1.4-1.3,2.5-2.3,3.5c-1,1-2.3,1.8-3.7,2.4c-1.4,0.6-2.9,0.9-4.8,0.9
				c-2.7,0-5.4-0.8-8.1-2.5V52.5z"/>
			<path class="st7" d="M338.6,21.5l9.6,38.6H344l-1.3-5.3h-10.1l-1.3,5.3h-4.2l9.6-38.6H338.6z M341.6,50.8l-4-16.2l-4,16.2H341.6z
				"/>
			<path class="st7" d="M370.2,60.2h-17.1V21.5h4.1v34.6h13V60.2z"/>
			<path class="st7" d="M375.5,21.5h17.1v4.1h-13v6.4h9.9v4.1h-9.9v20h13v4.1h-17.1V21.5z"/>
			<path class="st7" d="M400.1,60.2h-3.9v-3.9h3.9V60.2z"/>
			<path class="st7" d="M408.6,32.3c-1.8,2.7-2.6,5.5-2.6,8.6c0,2.2,0.4,4.2,1.3,6c0.8,1.8,1.9,3.5,3.4,5c1.5,1.5,3.1,2.6,5,3.4
				c1.8,0.8,3.8,1.2,6,1.2c0.9,0,1.4,0,1.4-0.1v4c0,0-0.5,0.1-1.4,0.1c-2.6,0-5.1-0.5-7.5-1.6c-2.4-1-4.5-2.4-6.2-4.2
				c-1.8-1.8-3.2-3.8-4.2-6.2c-1-2.4-1.6-5-1.6-7.5c0-2.7,0.5-5.2,1.6-7.7c1-2.4,2.4-4.4,4.3-6.2c1.8-1.8,3.9-3.2,6.2-4.2
				c2.3-1,4.8-1.5,7.5-1.5c0.9,0,1.4,0,1.4,0.1v4c0,0-0.5-0.1-1.4-0.1c-2.7,0-5.1,0.6-7.3,1.8C411.9,28.5,410,30.2,408.6,32.3z"/>
			<path class="st7" d="M462.8,41c0,2.7-0.5,5.2-1.5,7.5c-1,2.3-2.4,4.4-4.2,6.2c-1.8,1.9-3.8,3.3-6.2,4.3c-2.4,1.1-5,1.6-7.7,1.6
				c-2.6,0-5.1-0.5-7.5-1.6c-2.4-1-4.5-2.4-6.2-4.2c-1.8-1.8-3.2-3.8-4.2-6.2c-1-2.4-1.6-5-1.6-7.5c0-2.7,0.5-5.2,1.6-7.7
				c1-2.4,2.4-4.4,4.3-6.2c1.8-1.8,3.9-3.2,6.2-4.2c2.3-1,4.8-1.5,7.5-1.5s5.2,0.5,7.5,1.5c1.2,0.5,2.3,1.1,3.3,1.8
				c1,0.7,2,1.5,2.9,2.4c1.8,1.8,3.2,3.9,4.2,6.2C462.3,35.7,462.8,38.3,462.8,41z M430.3,32.3c-1.8,2.7-2.6,5.5-2.6,8.6
				c0,2.2,0.4,4.2,1.3,6c0.8,1.8,1.9,3.5,3.4,5c1.5,1.5,3.1,2.6,5,3.4c1.8,0.8,3.8,1.2,6,1.2c2.1,0,4.1-0.4,6-1.2
				c1.8-0.8,3.5-1.9,5-3.4c1.4-1.4,2.5-3,3.4-5c0.8-1.8,1.2-3.8,1.2-6c0-2-0.4-4-1.2-5.9c-0.9-1.9-1.9-3.6-3.3-5
				c-1.4-1.4-3-2.5-5-3.4c-1.9-0.9-3.9-1.3-6.1-1.3c-2.7,0-5.1,0.6-7.3,1.8C433.6,28.5,431.7,30.2,430.3,32.3z"/>
			<path class="st7" d="M476.1,21.5l6.1,24.6l6.1-24.6h2l9.6,38.6h-4.2l-6.4-25.5L483,60.2h-1.4l-6.4-25.5l-6.4,25.5h-4.2l9.6-38.6
				H476.1z"/>
		</g>
		<g>
			<path class="st7" d="M164.5,112h-2.3V86.1h2.3c1.1,0.1,2.2,0.3,3.2,0.8c1,0.5,1.9,1.1,2.7,1.9c0.4,0.4,0.7,0.8,1,1.3
				c0.3,0.5,0.6,0.9,0.8,1.5c0.4,1,0.7,2.1,0.7,3.3c0,1.2-0.2,2.3-0.7,3.3c-0.5,1.1-1.1,2-1.8,2.8c-0.8,0.8-1.7,1.4-2.7,1.9
				c-0.5,0.2-1,0.4-1.6,0.5c-0.5,0.1-1.1,0.2-1.7,0.2V112z M164.5,101.2c0.8,0,1.6-0.2,2.4-0.6c0.7-0.3,1.4-0.8,2-1.4
				c0.6-0.6,1-1.3,1.4-2c0.3-0.7,0.5-1.6,0.5-2.4s-0.2-1.7-0.5-2.4c-0.3-0.7-0.8-1.4-1.4-2c-0.6-0.6-1.2-1-2-1.4
				c-0.4-0.2-0.8-0.3-1.2-0.4c-0.4-0.1-0.8-0.2-1.2-0.2V101.2z"/>
			<path class="st7" d="M178.4,90.9c0.9,0.1,1.8,0.3,2.6,0.7c0.4,0.2,0.8,0.4,1.1,0.7c0.3,0.3,0.7,0.6,1,0.9
				c0.6,0.7,1.1,1.4,1.4,2.3c0.3,0.9,0.5,1.8,0.5,2.6c0,0.6-0.1,1.3-0.3,2c-0.2,0.7-0.5,1.3-0.9,1.9c-0.2,0.3-0.4,0.5-0.6,0.8
				c-0.2,0.3-0.5,0.5-0.7,0.7c-0.5,0.4-1.1,0.8-1.7,1.1c0,0.1,0.1,0.2,0.2,0.3c0.1,0.1,0.1,0.2,0.2,0.3c0.1,0.1,0.2,0.3,0.2,0.4
				c0.1,0.1,0.2,0.3,0.3,0.5l0.9,1.7c0.6,1.1,1.4,1.8,2.6,2.2v2.3c-0.4-0.1-0.8-0.2-1.1-0.4c-0.3-0.1-0.6-0.2-0.8-0.4
				c-0.5-0.2-0.9-0.4-1.2-0.7c-0.3-0.2-0.5-0.5-0.7-0.8c-0.1-0.2-0.2-0.4-0.3-0.5c-0.1-0.2-0.2-0.4-0.3-0.6l-0.4-0.9
				c-0.1-0.1-0.1-0.2-0.2-0.3c-0.1-0.1-0.1-0.3-0.2-0.4c-0.2-0.3-0.5-0.7-0.8-1.1l-0.5-0.5l-0.3-0.3c-0.1,0-0.1,0-0.1-0.1
				c0,0-0.1,0-0.1-0.1h0.1v6.8h-2.3v-21H178.4z M178.4,103c0.6,0,1.1-0.2,1.7-0.4c0.5-0.2,1-0.6,1.5-1c0.4-0.4,0.8-0.9,1-1.5
				c0.2-0.5,0.4-1.2,0.4-1.9c0-0.6-0.1-1.3-0.3-1.8c-0.3-0.6-0.6-1.1-1-1.5c-0.4-0.4-0.9-0.8-1.4-1.1c-0.3-0.1-0.6-0.2-0.9-0.3
				c-0.3-0.1-0.6-0.1-0.9-0.2V103z"/>
			<path class="st7" d="M188.6,90.9h9.3v2.3h-7.1v3.5h5.4v2.2h-5.4v10.9h7.1v2.2h-9.3V90.9z"/>
			<path class="st7" d="M199.5,108.1c1.2,1.2,2.4,1.7,3.6,1.7c0.3,0,0.7-0.1,1.1-0.2c0.2-0.1,0.4-0.2,0.6-0.3
				c0.2-0.1,0.3-0.2,0.5-0.4c0.3-0.3,0.6-0.6,0.7-1c0.2-0.4,0.3-0.8,0.3-1.3c0-0.6-0.6-1.9-1.7-3.7l-1.6-2.1
				c-1.8-2.5-2.7-4.4-2.7-5.7c0-1.2,0.4-2.2,1.2-3c0.8-0.8,1.7-1.1,3-1.1c1.3,0,2.3,0.6,3.2,1.7l-1.5,1.4c-0.7-0.6-1.3-0.9-2-0.9
				c-1.2,0-1.8,0.6-1.8,1.7c0,0.9,0.9,2.6,2.7,5.1c2.1,3.5,3.2,5.8,3.2,7.1c0,0.7-0.1,1.3-0.4,2c-0.2,0.6-0.6,1.1-1.1,1.6
				c-0.5,0.5-1,0.9-1.7,1.1c-0.7,0.3-1.4,0.4-2.1,0.4c-1.2,0-2.4-0.4-3.6-1.2V108.1z"/>
			<path class="st7" d="M211.3,90.9h9.3v2.3h-7.1v3.5h5.4v2.2h-5.4v10.9h7.1v2.2h-9.3V90.9z"/>
			<path class="st7" d="M224.6,90.9l5.7,15.3V90.9h2.3v21h-2.4l-4.3-11.5V112h-2.3v-21H224.6z"/>
			<path class="st7" d="M238.9,112V93.2h-3.5v-2.3h9.3v2.3h-3.5V112H238.9z"/>
			<path class="st7" d="M247.5,90.9h9.3v2.3h-7.1v3.5h5.4v2.2h-5.4v10.9h7.1v2.2h-9.3V90.9z"/>
			<path class="st7" d="M259.8,91c0,0,0.3,0,0.8,0c1.5,0,2.9,0.3,4.1,0.8c1.3,0.5,2.4,1.3,3.4,2.3c1,1,1.7,2.1,2.3,3.3
				c0.6,1.3,0.9,2.7,0.9,4.1c0,1.4-0.3,2.8-0.8,4c-0.5,1.3-1.3,2.4-2.3,3.4c-1,1-2.1,1.8-3.4,2.3c-1.3,0.6-2.7,0.9-4.2,0.9h-0.8V91z
				 M262,109.7c1-0.1,1.9-0.4,2.8-1c0.9-0.5,1.6-1.1,2.2-1.9c0.6-0.7,1.1-1.5,1.5-2.5c0.3-1,0.5-1.9,0.5-2.9c0-1-0.2-2-0.6-2.9
				c-0.4-0.9-0.9-1.8-1.5-2.5c-0.6-0.7-1.3-1.3-2.2-1.9c-0.9-0.5-1.8-0.8-2.7-1V109.7z"/>
			<path class="st7" d="M284,90.9c3.3,0.5,5,2.1,5,4.9c0,1.5-0.4,2.6-1.3,3.4c0.5,0.3,0.9,0.6,1.3,1c0.4,0.5,0.8,1,1.1,1.5
				c0.3,0.5,0.5,1.1,0.7,1.7c0.2,0.6,0.3,1.2,0.3,1.7c0,1-0.2,1.9-0.6,2.7c-0.4,0.8-0.9,1.6-1.6,2.2c-0.7,0.6-1.5,1.1-2.4,1.4
				c-1,0.3-2,0.5-3.1,0.5h-1.4v-21H284z M284.1,98.6c0.7,0,1.3-0.3,1.8-0.8c0.5-0.5,0.8-1.1,0.8-1.9c0-0.7-0.3-1.3-0.8-1.9
				c-0.5-0.5-1.1-0.8-1.9-0.8V98.6z M284.2,109.8c0.6,0,1.3-0.1,1.8-0.4c0.3-0.1,0.5-0.3,0.8-0.4c0.3-0.2,0.5-0.4,0.7-0.6
				c0.4-0.4,0.7-0.9,1-1.5c0.2-0.5,0.3-1.1,0.3-1.7c0-0.7-0.1-1.3-0.4-1.8c-0.3-0.6-0.6-1.1-1-1.5c-0.5-0.4-1-0.8-1.5-1
				c-0.5-0.2-1.1-0.4-1.8-0.4V109.8z"/>
			<path class="st7" d="M297.1,112v-10.5L290,90.9h2.7l5.6,8.2l5.5-8.2h2.7l-7.1,10.5V112H297.1z"/>
			<path class="st7" d="M326.8,112h-11.2V86.1h2.4v23.5h8.8V112z"/>
			<path class="st7" d="M329.8,90.9h9.3v2.3H332v3.5h5.4v2.2H332v10.9h7.1v2.2h-9.3V90.9z"/>
			<path class="st7" d="M345.7,112l-5.2-21h2.3l3.5,13.9l3.5-13.9h2.2l3.5,13.9l3.5-13.9h2.3l-5.2,21h-1l-4-16.3l-4.1,16.3H345.7z"
				/>
			<path class="st7" d="M366,90.9v21h-2.3v-21H366z"/>
			<path class="st7" d="M368.8,108.1c1.2,1.2,2.4,1.7,3.6,1.7c0.3,0,0.7-0.1,1.1-0.2c0.2-0.1,0.4-0.2,0.6-0.3
				c0.2-0.1,0.3-0.2,0.5-0.4c0.3-0.3,0.6-0.6,0.7-1c0.2-0.4,0.3-0.8,0.3-1.3c0-0.6-0.6-1.9-1.7-3.7l-1.6-2.1
				c-1.8-2.5-2.7-4.4-2.7-5.7c0-1.2,0.4-2.2,1.2-3c0.8-0.8,1.7-1.1,3-1.1c1.3,0,2.3,0.6,3.2,1.7l-1.5,1.4c-0.7-0.6-1.3-0.9-2-0.9
				c-1.2,0-1.8,0.6-1.8,1.7c0,0.9,0.9,2.6,2.7,5.1c2.1,3.5,3.2,5.8,3.2,7.1c0,0.7-0.1,1.3-0.4,2c-0.2,0.6-0.6,1.1-1.1,1.6
				c-0.5,0.5-1,0.9-1.7,1.1c-0.7,0.3-1.4,0.4-2.1,0.4c-1.2,0-2.4-0.4-3.6-1.2V108.1z"/>
			<path class="st7" d="M386.4,86.1l4.3,17.5l4.4-17.5h0.9l6.4,25.8h-2.4l-4.5-18.1l-4.5,18.1h-0.6L386,93.9l-4.5,18.1H379l6.4-25.8
				H386.4z"/>
			<path class="st7" d="M407.4,96.8c-1,1.5-1.4,3-1.4,4.7c0,1.2,0.2,2.3,0.7,3.3c0.4,1,1,1.9,1.8,2.7c0.8,0.8,1.7,1.4,2.7,1.8
				c1,0.4,2.1,0.7,3.3,0.7c0.5,0,0.8,0,0.8,0v2.2c0,0-0.3,0-0.8,0c-1.4,0-2.8-0.3-4.1-0.9c-1.3-0.5-2.4-1.3-3.4-2.3
				c-1-1-1.8-2.1-2.3-3.4c-0.6-1.3-0.9-2.7-0.9-4.1c0-1.5,0.3-2.8,0.9-4.2c0.5-1.3,1.3-2.4,2.3-3.4c1-1,2.1-1.7,3.4-2.3
				c1.3-0.5,2.6-0.8,4.1-0.8c0.5,0,0.8,0,0.8,0v2.2c0,0-0.3,0-0.8,0c-1.5,0-2.8,0.3-4,1C409.1,94.7,408.1,95.6,407.4,96.8z"/>
			<path class="st7" d="M418.5,86.1h1.9c2.5,0,5.1,1.1,7.6,3.4c2.9,2.7,4.3,5.8,4.3,9.5c0,1.3-0.2,2.6-0.6,3.8
				c-0.2,0.6-0.4,1.2-0.7,1.8c-0.3,0.6-0.6,1.1-0.9,1.6c-0.7,1.1-1.6,2-2.5,2.8c-0.5,0.4-1,0.8-1.6,1.1c-0.5,0.3-1.1,0.6-1.7,0.9
				c-1.6,0.7-2.9,1-3.9,1h-1.9V86.1z M420.8,109.7c1.3-0.2,2.5-0.6,3.7-1.2c1.1-0.6,2.1-1.4,2.9-2.4c0.8-0.9,1.5-2,2-3.3
				c0.5-1.2,0.7-2.4,0.7-3.8c0-1.3-0.2-2.6-0.7-3.8c-0.5-1.2-1.2-2.3-2-3.2c-0.4-0.5-0.9-0.9-1.3-1.3c-0.5-0.4-1-0.8-1.6-1.1
				c-1.2-0.6-2.4-1-3.6-1.2V109.7z"/>
			<path class="st7" d="M439.7,90.9l5.2,21h-2.3l-0.7-2.9h-5.5l-0.7,2.9h-2.3l5.2-21H439.7z M441.4,106.9l-2.2-8.8l-2.2,8.8H441.4z"
				/>
			<path class="st7" d="M448.7,90.9l5.7,15.3V90.9h2.3v21h-2.4l-4.3-11.5V112h-2.3v-21H448.7z"/>
			<path class="st7" d="M463.1,90.9v21h-2.3v-21H463.1z"/>
			<path class="st7" d="M467.3,90.9h9.3v2.3h-7.1v3.5h5.4v2.2h-5.4v10.9h7.1v2.2h-9.3V90.9z"/>
			<path class="st7" d="M489,112h-9.3v-21h2.3v18.8h7.1V112z"/>
			<path class="st7" d="M490.4,108.1c1.2,1.2,2.4,1.7,3.6,1.7c0.3,0,0.7-0.1,1.1-0.2c0.2-0.1,0.4-0.2,0.6-0.3
				c0.2-0.1,0.3-0.2,0.5-0.4c0.3-0.3,0.6-0.6,0.7-1c0.2-0.4,0.3-0.8,0.3-1.3c0-0.6-0.6-1.9-1.7-3.7l-1.6-2.1
				c-1.8-2.5-2.7-4.4-2.7-5.7c0-1.2,0.4-2.2,1.2-3c0.8-0.8,1.7-1.1,3-1.1c1.3,0,2.3,0.6,3.2,1.7l-1.5,1.4c-0.7-0.6-1.3-0.9-2-0.9
				c-1.2,0-1.8,0.6-1.8,1.7c0,0.9,0.9,2.6,2.7,5.1c2.1,3.5,3.2,5.8,3.2,7.1c0,0.7-0.1,1.3-0.4,2c-0.2,0.6-0.6,1.1-1.1,1.6
				c-0.5,0.5-1,0.9-1.7,1.1c-0.7,0.3-1.4,0.4-2.1,0.4c-1.2,0-2.4-0.4-3.6-1.2V108.1z"/>
		</g>
		<g>
			<path class="st7" d="M164.7,135.4c-1.9-2.2-2.8-4.8-2.8-8c0-3.3,0.9-6,2.8-8.2h1.2c-2,2.3-3,5-3,8.1c0,3,1,5.7,2.9,8H164.7z"/>
			<path class="st7" d="M178.2,132.8h-1.5l-2.2-8.7l-2.1,8.7h-0.5l-2.2-8.7c-0.7,2.9-1.4,5.8-2.2,8.7h-1.4l3.3-13.2h0.7l2.1,8.4
				l2.1-8.4h0.6L178.2,132.8z"/>
			<path class="st7" d="M185.2,132.8h-1.4l-0.4-1.4h-2.6l-0.4,1.4h-1.4l2.7-10.7h0.7L185.2,132.8z M183.1,130
				c-0.3-1.4-0.6-2.4-0.9-3.8c-0.3,1.3-0.6,2.5-1,3.8H183.1z"/>
			<path class="st7" d="M191.8,132.9c-1.9-0.6-2.1-1-2.5-1.8l-0.2-0.5l0,0c-0.1-0.2-0.3-0.5-0.6-0.9l-0.2-0.2v0l0,0v3.2H187V122
				c1.2,0,2,0.1,2.5,0.4v0c1.1,0.4,2.2,2,2.2,3.3c0,1.3-1,2.8-2.1,3.3l0.4,0.6l0.4,0.9c0.3,0.5,0.7,0.9,1.3,1V132.9z M188.3,128
				c1.1-0.1,2.1-1.1,2.1-2.3c0-1.2-1-2.2-2.1-2.3V128z"/>
			<path class="st7" d="M196.7,132.8h-1.3v-5.3c-1.1-1.7-2.5-3.7-3.7-5.4h1.6l2.7,4c0.9-1.4,1.8-2.7,2.7-4h1.6l-3.6,5.4V132.8z"/>
			<path class="st7" d="M206.5,132.8h-4.9V122h1.3v9.4h3.5V132.8z"/>
			<path class="st7" d="M213,132.8h-1.4l-0.4-1.4h-2.6l-0.4,1.4H207l2.7-10.7h0.7L213,132.8z M211,130c-0.3-1.4-0.6-2.4-0.9-3.8
				c-0.3,1.3-0.6,2.5-1,3.8H211z"/>
			<path class="st7" d="M219.5,132.8h-1.4l-2-5.2v5.2h-1.3V122h0.7l2.6,7.1V122h1.4V132.8z"/>
			<path class="st7" d="M221.7,132.8v-10.7l0.6,0c2.9,0,5.3,2.6,5.3,5.4c0,2.8-2.6,5.3-5.4,5.3H221.7z M223.1,131.4
				c1.6-0.2,3.3-2,3.3-4c0-1.9-1.5-3.6-3.3-4V131.4z"/>
			<path class="st7" d="M230.5,123.8h-1v-4.3h1V123.8z"/>
			<path class="st7" d="M232.3,132.2v-1.7c0.7,0.7,1.3,1,1.9,1c0.8,0,1.5-0.7,1.5-1.4c0-0.3-0.3-0.9-0.8-1.8v0l-0.8-1.1
				c-0.9-1.3-1.4-2.2-1.4-2.9c0-1.4,0.9-2.2,2.2-2.2c0.7,0,1.2,0.3,1.7,1l-0.9,0.8c-0.4-0.3-0.7-0.5-1-0.5c-0.5,0-0.8,0.2-0.8,0.7
				c0,0.4,0.5,1.2,1.3,2.5c1.1,1.7,1.6,3,1.6,3.6c0,1.4-1.2,2.7-2.8,2.7C233.6,132.8,233,132.6,232.3,132.2z"/>
			<path class="st7" d="M244.8,132.8h-1.4v-13.2h1.3c2.3,0.1,4.3,2.2,4.3,4.5c0,2.2-1.9,4.4-4.2,4.5V132.8z M244.8,127.1
				c1.5-0.1,2.9-1.5,2.9-3.1c0-1.6-1.4-2.9-2.9-3.1V127.1z"/>
			<path class="st7" d="M255.7,132.9c-1.9-0.6-2.1-1-2.5-1.8l-0.2-0.5l0,0c-0.1-0.2-0.3-0.5-0.6-0.9l-0.2-0.2v0l0,0v3.2H251V122
				c1.2,0,2,0.1,2.5,0.4v0c1.1,0.4,2.2,2,2.2,3.3c0,1.3-1,2.8-2.1,3.3l0.4,0.6l0.4,0.9c0.3,0.5,0.7,0.9,1.3,1V132.9z M252.3,128
				c1.1-0.1,2.1-1.1,2.1-2.3c0-1.2-1-2.2-2.1-2.3V128z"/>
			<path class="st7" d="M262.7,132.8h-4.9V122h4.9v1.3h-3.5v1.5h2.7v1.3h-2.7v5.2h3.5V132.8z"/>
			<path class="st7" d="M273.7,132.8h-1.4l-1.6-6.6c-0.5,2.2-1.1,4.4-1.6,6.6h-0.6l-1.6-6.6c-0.5,2.2-1.1,4.4-1.7,6.6h-1.4l2.7-10.7
				h0.7l1.6,6.3l1.6-6.3h0.7L273.7,132.8z"/>
			<path class="st7" d="M276.8,132.8h-1.3V122h1.3V132.8z"/>
			<path class="st7" d="M283.9,132.8H279V122h4.9v1.3h-3.5v1.5h2.7v1.3h-2.7v5.2h3.5V132.8z"/>
			<path class="st7" d="M290.6,132.9c-1.9-0.6-2.1-1-2.5-1.8l-0.2-0.5l0,0c-0.1-0.2-0.3-0.5-0.6-0.9l-0.2-0.2v0l0,0v3.2h-1.3V122
				c1.2,0,2,0.1,2.5,0.4v0c1.1,0.4,2.2,2,2.2,3.3c0,1.3-1,2.8-2.1,3.3l0.4,0.6l0.4,0.9c0.3,0.5,0.7,0.9,1.3,1V132.9z M287.2,128
				c1.1-0.1,2.1-1.1,2.1-2.3c0-1.2-1-2.2-2.1-2.3V128z"/>
			<path class="st7" d="M299.7,132.8h-1.4V121H296v-1.4h5.8v1.4h-2.2V132.8z"/>
			<path class="st7" d="M307.7,132.8h-1.4l-0.4-1.4h-2.6l-0.4,1.4h-1.4l2.7-10.7h0.7L307.7,132.8z M305.6,130
				c-0.3-1.4-0.6-2.4-0.9-3.8c-0.3,1.3-0.6,2.5-1,3.8H305.6z"/>
			<path class="st7" d="M315,132.8h-1.5l-1.6-3.7c-0.5,1.2-1.1,2.5-1.6,3.7h-1.4l2.3-5.4l-2.3-5.3h1.4l1.6,3.6
				c0.5-1.2,1.1-2.4,1.6-3.6h1.4l-2.3,5.3L315,132.8z"/>
			<path class="st7" d="M327.1,132.8h-5.8v-13.2h1.4v11.8h4.4V132.8z"/>
			<path class="st7" d="M330.2,132.8h-1.3V122h1.3V132.8z"/>
			<path class="st7" d="M337.2,132.8h-4.9V122h4.9v1.3h-3.5v1.5h2.7v1.3h-2.7v5.2h3.5V132.8z"/>
			<path class="st7" d="M343.9,132.8h-1.4l-2-5.2v5.2h-1.3V122h0.7l2.6,7.1V122h1.4V132.8z"/>
			<path class="st7" d="M352.5,132.8h-1.4v-13.2h5.8v1.4h-4.4v2.2h3.4v1.4h-3.4V132.8z"/>
			<path class="st7" d="M357.4,127.4c0-3,2.5-5.4,5.4-5.4c3,0,5.4,2.6,5.4,5.4c0,3.1-2.7,5.4-5.5,5.4
				C359.8,132.8,357.4,130.3,357.4,127.4z M366.9,127.4c0-2.2-1.9-4.1-4.2-4.1c-2.3,0-4.1,2-4.1,4.1c0,1.9,1.7,4.1,4.1,4.1
				C365,131.5,366.9,129.6,366.9,127.4z"/>
			<path class="st7" d="M375,132.9c-1.9-0.6-2.1-1-2.5-1.8l-0.2-0.5l0,0c-0.1-0.2-0.3-0.5-0.6-0.9l-0.2-0.2v0l0,0v3.2h-1.3V122
				c1.2,0,2,0.1,2.5,0.4v0c1.1,0.4,2.2,2,2.2,3.3c0,1.3-1,2.8-2.1,3.3l0.4,0.6l0.4,0.9c0.3,0.5,0.7,0.9,1.3,1V132.9z M371.5,128
				c1.1-0.1,2.1-1.1,2.1-2.3c0-1.2-1-2.2-2.1-2.3V128z"/>
			<path class="st7" d="M381.9,132.8h-4.9V122h4.9v1.3h-3.5v1.5h2.7v1.3h-2.7v5.2h3.5V132.8z"/>
			<path class="st7" d="M387.8,132.8c-2.9,0-5.3-2.5-5.3-5.4c0-3,2.5-5.4,5.4-5.4l0.5,0v1.3l-0.6,0c-2.3,0-4.1,2-4.1,4.1
				c0,2,1.7,4.1,4.1,4.1l0.5,0v1.3L387.8,132.8z"/>
			<path class="st7" d="M394.9,132.8H390V122h1.3v9.4h3.5V132.8z"/>
			<path class="st7" d="M394.7,127.4c0-3,2.5-5.4,5.4-5.4c3,0,5.4,2.6,5.4,5.4c0,3.1-2.7,5.4-5.5,5.4
				C397.1,132.8,394.7,130.3,394.7,127.4z M404.2,127.4c0-2.2-1.9-4.1-4.2-4.1c-2.3,0-4.1,2-4.1,4.1c0,1.9,1.7,4.1,4.1,4.1
				C402.4,131.5,404.2,129.6,404.2,127.4z"/>
			<path class="st7" d="M406.3,132.2v-1.7c0.7,0.7,1.3,1,1.9,1c0.8,0,1.5-0.7,1.5-1.4c0-0.3-0.3-0.9-0.8-1.8v0l-0.8-1.1
				c-0.9-1.3-1.4-2.2-1.4-2.9c0-1.4,0.9-2.2,2.2-2.2c0.7,0,1.2,0.3,1.7,1l-0.9,0.8c-0.4-0.3-0.7-0.5-1-0.5c-0.5,0-0.8,0.2-0.8,0.7
				c0,0.4,0.5,1.2,1.3,2.5c1.1,1.7,1.6,3,1.6,3.6c0,1.4-1.2,2.7-2.8,2.7C407.7,132.8,407,132.6,406.3,132.2z"/>
			<path class="st7" d="M413,130v-8h1.3l0,8c0.1,0.8,0.7,1.5,1.5,1.5c0.9,0,1.5-0.7,1.5-1.5v-8h1.3v7.9c0,1.5-1.3,2.9-2.8,2.9
				C414.4,132.8,413,131.7,413,130z"/>
			<path class="st7" d="M425.7,132.9c-1.9-0.6-2.1-1-2.5-1.8l-0.2-0.5l0,0c-0.1-0.2-0.3-0.5-0.6-0.9l-0.2-0.2v0l0,0v3.2h-1.3V122
				c1.2,0,2,0.1,2.5,0.4v0c1.1,0.4,2.2,2,2.2,3.3c0,1.3-1,2.8-2.1,3.3l0.4,0.6l0.4,0.9c0.3,0.5,0.7,0.9,1.3,1V132.9z M422.2,128
				c1.1-0.1,2.1-1.1,2.1-2.3c0-1.2-1-2.2-2.1-2.3V128z"/>
			<path class="st7" d="M432.6,132.8h-4.9V122h4.9v1.3h-3.5v1.5h2.7v1.3h-2.7v5.2h3.5V132.8z"/>
			<path class="st7" d="M444.8,132.8H439v-13.2h1.4v11.8h4.4V132.8z"/>
			<path class="st7" d="M452.6,132.8h-1.4l-0.4-1.4h-2.6l-0.4,1.4h-1.4l2.7-10.7h0.7L452.6,132.8z M450.5,130
				c-0.3-1.4-0.6-2.4-0.9-3.8c-0.3,1.3-0.6,2.5-1,3.8H450.5z"/>
			<path class="st7" d="M460.6,132.8h-0.7L458,125c-0.6,2.6-1.3,5.1-1.9,7.7h-0.7l-2.7-10.7h1.4l1.7,6.6l1.6-6.6h1.3l1.7,6.6
				l1.6-6.6h1.4L460.6,132.8z"/>
			<path class="st7" d="M470.6,132.8h-1.4v-13.2h5.8v1.4h-4.4v2.2h3.4v1.4h-3.4V132.8z"/>
			<path class="st7" d="M477.5,132.8h-1.3V122h1.3V132.8z"/>
			<path class="st7" d="M484.5,132.9c-1.9-0.6-2.1-1-2.5-1.8l-0.2-0.5l0,0c-0.1-0.2-0.3-0.5-0.6-0.9l-0.2-0.2v0l0,0v3.2h-1.3V122
				c1.2,0,2,0.1,2.5,0.4v0c1.1,0.4,2.2,2,2.2,3.3c0,1.3-1,2.8-2.1,3.3l0.4,0.6l0.4,0.9c0.3,0.5,0.7,0.9,1.3,1V132.9z M481,128
				c1.1-0.1,2.1-1.1,2.1-2.3c0-1.2-1-2.2-2.1-2.3V128z"/>
			<path class="st7" d="M495.6,132.8h-1.4l-1.6-6.6c-0.5,2.2-1.1,4.4-1.6,6.6h-0.6l-1.6-6.6c-0.5,2.2-1.1,4.4-1.7,6.6h-1.4l2.7-10.7
				h0.7l1.6,6.3l1.6-6.3h0.7L495.6,132.8z"/>
			<path class="st7" d="M496.1,135.4c1.9-2.4,2.9-5,2.9-8c0-3.1-1-5.9-3-8.1h1.2c1.9,2.2,2.9,4.9,2.9,8.2c0,3.2-0.9,5.8-2.8,8H496.1
				z"/>
		</g>
		<rect x="163.1" y="71" class="st8" width="336.4" height="4.5"/>
	</g>
</g>
</svg>
