<?xml version="1.0" encoding="utf-8"?>
<!-- Generator: Adobe Illustrator 26.0.0, SVG Export Plug-In . SVG Version: 6.00 Build 0)  -->
<svg version="1.1" id="Layer_1" xmlns="http://www.w3.org/2000/svg" xmlns:xlink="http://www.w3.org/1999/xlink" x="0px" y="0px"
	 viewBox="0 0 449 164.4" style="enable-background:new 0 0 449 164.4;" xml:space="preserve">
<style type="text/css">
	.st0{fill:#384353;}
	.st1{fill-rule:evenodd;clip-rule:evenodd;fill:#B93828;}
	.st2{fill-rule:evenodd;clip-rule:evenodd;fill:#E56D29;}
	.st3{fill-rule:evenodd;clip-rule:evenodd;fill:#FFC72B;}
	.st4{fill-rule:evenodd;clip-rule:evenodd;fill:#384353;}
	.st5{fill-rule:evenodd;clip-rule:evenodd;fill:#2B343F;}
	.st6{fill-rule:evenodd;clip-rule:evenodd;fill:#FEFEFE;}
	.st7{fill:#FEFEFE;}
	.st8{fill:#E56D29;}
	.st9{fill:#FFFFFF;}
</style>
<path class="st0" d="M449,127.3l-214.9,32.2c-6.4,1-12.9,1-19.2,0L0,127.3V0h449V127.3z"/>
<g>
	<g>
		<path class="st1" d="M76.1,10.9c31.3,0,56.6,25.4,56.6,56.6s-25.3,56.6-56.6,56.6c-31.3,0-56.6-25.3-56.6-56.6
			C19.5,36.3,44.9,10.9,76.1,10.9z"/>
		<path class="st2" d="M76.1,16.1c28.3,0,51.5,23,51.5,51.3s-23.1,51.5-51.5,51.5s-51.5-23-51.5-51.3S47.7,16.1,76.1,16.1z"/>
		<path class="st3" d="M76.1,21.3c25.5,0,46.1,20.7,46.1,46.1c0,25.5-20.6,46.1-46.1,46.1c-25.5,0.1-46.2-20.5-46.2-46
			S50.7,21.3,76.1,21.3z"/>
		<path class="st4" d="M76.1,26.6c22.6,0,41,18.2,41,40.9s-18.4,40.9-41,40.9S35.2,90.1,35.2,67.6S53.5,26.6,76.1,26.6z"/>
		<g>
			<path class="st5" d="M67,59.7V34.1h10v31.6h7L89.1,55h6l5.4,41.9h-9.7l-2.3-18l-9,19h-4.9l-9-19l-2.4,18h-9.7L58.6,55h6L67,59.7z
				 M74.6,75.7l2.4,5l2.4-5H74.6z"/>
			<path class="st6" d="M89.5,72.2l2.8,22.9h5.9l-4.1-32.7L93.4,57h-3.1l-2.2,4.4L76.9,85.2L65.6,61.4L63.4,57h-3.1l-0.7,5.4
				L55.4,95h5.9l2.9-22.9l9.3,19.8l2,4.2h2.5l1.9-4.2L89.5,72.2z M68.9,36.1H75v31.6H83l-2.8,6H75h-1.3l-4.8-9.9
				C68.9,63.9,68.9,36.1,68.9,36.1z"/>
		</g>
	</g>
	<g>
		<g>
			<path class="st7" d="M156.8,19l6.3,25.3l6.3-25.3h1.3l9.3,37.5h-3.5l-6.5-26.2l-6.5,26.3h-1l-6.6-26.3l-6.6,26.3h-3.5l9.3-37.5
				L156.8,19L156.8,19z"/>
			<path class="st7" d="M184.7,19h2.8c3.7,0,7.4,1.7,11,5c4.2,3.9,6.3,8.5,6.3,13.8c0,1.9-0.2,3.7-0.8,5.5c-0.3,0.9-0.6,1.7-1,2.6
				c-0.4,0.8-0.9,1.6-1.3,2.4c-1,1.6-2.3,2.9-3.6,4.1c-0.7,0.6-1.5,1.1-2.3,1.6c-0.8,0.5-1.7,0.9-2.5,1.3c-2.3,1-4.2,1.4-5.7,1.4
				h-2.8L184.7,19L184.7,19z M188.1,53.2c1.9-0.2,3.6-0.9,5.3-1.7c1.6-0.9,3-2.1,4.3-3.4c1.2-1.3,2.1-2.9,2.9-4.8
				c0.7-1.7,1-3.5,1-5.5c0-1.9-0.3-3.8-1-5.5c-0.7-1.7-1.7-3.2-2.9-4.7c-0.6-0.7-1.3-1.3-2-1.9c-0.7-0.6-1.4-1.1-2.3-1.6
				c-1.7-1-3.4-1.5-5.3-1.7L188.1,53.2L188.1,53.2z"/>
			<path class="st8" d="M212,56.7V22.4h-6.4V19h16.3v3.4h-6.4v34.2H212z"/>
			<path class="st8" d="M230.8,26l7.6,30.6h-3.3l-1-4.2h-8l-1,4.2h-3.3l7.6-30.6H230.8z M233.2,49.2L230,36.4l-3.2,12.8H233.2z"/>
			<path class="st8" d="M240,56.7l6.6-15.4L240,26.1h3.5l4.8,11.1l4.8-11.1h3.5l-6.4,15.1l6.7,15.4h-3.6l-4.8-11.3l-4.9,11.3H240z"
				/>
			<path class="st8" d="M258.7,50.6c1.7,1.7,3.7,2.6,5.9,2.6c0.8,0,1.6-0.2,2.5-0.4c0.8-0.2,1.5-0.6,2.1-1.3
				c0.3-0.2,0.6-0.6,0.8-0.9s0.5-0.6,0.6-1c0.4-0.7,0.6-1.5,0.6-2.5c-0.1-1.7-1.1-3.9-3.1-6.8l-2.8-4c-3.3-4.4-4.9-7.9-4.9-10.2
				c0-1,0.2-2.1,0.6-2.9c0.4-0.9,0.9-1.6,1.7-2.3c0.6-0.6,1.3-1.1,2.3-1.5c0.9-0.3,1.7-0.5,2.7-0.5c2.2,0,4,1,5.5,2.9
				c-1.4,1.4-2.2,2.1-2.4,2.1l0.1-0.1c-1.3-1-2.5-1.6-3.5-1.6c-2.4,0-3.6,1.2-3.6,3.5c0,1.3,1,3.3,2.9,6.2l2.8,4.1
				c3.4,5.1,5.1,9,5.1,11.8c0,1.3-0.2,2.5-0.6,3.6c-0.4,1.1-1,2-1.8,2.8s-1.8,1.4-2.9,1.9c-1.1,0.5-2.3,0.7-3.8,0.7
				c-2.1,0-4.3-0.6-6.4-2v-4.3H258.7z"/>
			<path class="st8" d="M285.4,26l7.6,30.6h-3.3l-1-4.2h-8l-1,4.2h-3.3l7.6-30.6H285.4z M287.8,49.2l-3.2-12.8l-3.2,12.8H287.8z"/>
			<path class="st8" d="M310.4,56.7h-13.5V26h3.2v27.4h10.3V56.7z"/>
			<path class="st8" d="M314.6,26h13.5v3.2h-10.3v5.1h7.8v3.2h-7.8v15.8h10.3v3.2h-13.5V26z"/>
			<path class="st8" d="M334.1,56.7H331v-3.1h3.1V56.7z"/>
			<path class="st8" d="M340.8,34.6c-1.4,2.1-2.1,4.4-2.1,6.8c0,1.7,0.3,3.3,1,4.8c0.6,1.4,1.5,2.8,2.7,4c1.2,1.2,2.5,2.1,4,2.7
				c1.4,0.6,3,1,4.8,1c0.7,0,1.1,0,1.1-0.1v3.2c0,0-0.4,0.1-1.1,0.1c-2.1,0-4-0.4-5.9-1.3c-1.9-0.8-3.6-1.9-4.9-3.3
				c-1.4-1.4-2.5-3-3.3-4.9s-1.3-4-1.3-5.9c0-2.1,0.4-4.1,1.3-6.1c0.8-1.9,1.9-3.5,3.4-4.9c1.4-1.4,3.1-2.5,4.9-3.3
				c1.8-0.8,3.8-1.2,5.9-1.2c0.7,0,1.1,0,1.1,0.1v3.2c0,0-0.4-0.1-1.1-0.1c-2.1,0-4,0.5-5.8,1.4C343.5,31.6,341.9,32.9,340.8,34.6z"
				/>
			<path class="st8" d="M383.8,41.5c0,2.1-0.4,4.1-1.2,5.9c-0.8,1.8-1.9,3.5-3.3,4.9c-1.4,1.5-3,2.6-4.9,3.4c-1.9,0.9-4,1.3-6.1,1.3
				c-2.1,0-4-0.4-5.9-1.3c-1.9-0.8-3.6-1.9-4.9-3.3c-1.4-1.4-2.5-3-3.3-4.9c-0.8-1.9-1.3-4-1.3-5.9c0-2.1,0.4-4.1,1.3-6.1
				c0.8-1.9,1.9-3.5,3.4-4.9c1.4-1.4,3.1-2.5,4.9-3.3c1.8-0.8,3.8-1.2,5.9-1.2s4.1,0.4,5.9,1.2c1,0.4,1.8,0.9,2.6,1.4
				c0.8,0.6,1.6,1.2,2.3,1.9c1.4,1.4,2.5,3.1,3.3,4.9C383.4,37.3,383.8,39.3,383.8,41.5z M358,34.6c-1.4,2.1-2.1,4.4-2.1,6.8
				c0,1.7,0.3,3.3,1,4.8c0.6,1.4,1.5,2.8,2.7,4c1.2,1.2,2.5,2.1,4,2.7c1.4,0.6,3,1,4.8,1c1.7,0,3.2-0.3,4.8-1c1.4-0.6,2.8-1.5,4-2.7
				c1.1-1.1,2-2.4,2.7-4c0.6-1.4,1-3,1-4.8c0-1.6-0.3-3.2-1-4.7c-0.7-1.5-1.5-2.9-2.6-4c-1.1-1.1-2.4-2-4-2.7c-1.5-0.7-3.1-1-4.8-1
				c-2.1,0-4,0.5-5.8,1.4C360.6,31.6,359.1,32.9,358,34.6z"/>
			<path class="st8" d="M394.3,26l4.8,19.5l4.8-19.5h1.6l7.6,30.6h-3.3l-5.1-20.2l-5,20.3h-1.1l-5.1-20.2l-5.1,20.2h-3.3l7.6-30.6
				L394.3,26L394.3,26z"/>
		</g>
		<g>
			<path class="st8" d="M147.6,97.7h-1.8V77.2h1.8c0.9,0.1,1.7,0.2,2.5,0.6c0.8,0.4,1.5,0.9,2.1,1.5c0.3,0.3,0.6,0.6,0.8,1
				c0.2,0.4,0.5,0.7,0.6,1.2c0.3,0.8,0.6,1.7,0.6,2.6s-0.2,1.8-0.6,2.6c-0.4,0.9-0.9,1.6-1.4,2.2c-0.6,0.6-1.3,1.1-2.1,1.5
				c-0.4,0.2-0.8,0.3-1.3,0.4c-0.4,0.1-0.9,0.2-1.3,0.2L147.6,97.7L147.6,97.7z M147.6,89.1c0.6,0,1.3-0.2,1.9-0.5
				c0.6-0.2,1.1-0.6,1.6-1.1c0.5-0.5,0.8-1,1.1-1.6c0.2-0.6,0.4-1.3,0.4-1.9s-0.2-1.3-0.4-1.9c-0.2-0.6-0.6-1.1-1.1-1.6
				c-0.5-0.5-1-0.8-1.6-1.1c-0.3-0.2-0.6-0.2-1-0.3s-0.6-0.2-1-0.2V89.1z"/>
			<path class="st8" d="M158.6,81c0.7,0.1,1.4,0.2,2.1,0.6c0.3,0.2,0.6,0.3,0.9,0.6c0.2,0.2,0.6,0.5,0.8,0.7
				c0.5,0.6,0.9,1.1,1.1,1.8c0.2,0.7,0.4,1.4,0.4,2.1c0,0.5-0.1,1-0.2,1.6s-0.4,1-0.7,1.5c-0.2,0.2-0.3,0.4-0.5,0.6
				c-0.2,0.2-0.4,0.4-0.6,0.6c-0.4,0.3-0.9,0.6-1.3,0.9c0,0.1,0.1,0.2,0.2,0.2c0.1,0.1,0.1,0.2,0.2,0.2c0.1,0.1,0.2,0.2,0.2,0.3
				c0.1,0.1,0.2,0.2,0.2,0.4l0.7,1.3c0.5,0.9,1.1,1.4,2.1,1.7v1.8c-0.3-0.1-0.6-0.2-0.9-0.3c-0.2-0.1-0.5-0.2-0.6-0.3
				c-0.4-0.2-0.7-0.3-1-0.6c-0.2-0.2-0.4-0.4-0.6-0.6c-0.1-0.2-0.2-0.3-0.2-0.4c-0.1-0.2-0.2-0.3-0.2-0.5l-0.3-0.7
				c-0.1-0.1-0.1-0.2-0.2-0.2c-0.1-0.1-0.1-0.2-0.2-0.3c-0.2-0.2-0.4-0.6-0.6-0.9l-0.4-0.4l-0.2-0.2c-0.1,0-0.1,0-0.1-0.1
				c0,0-0.1,0-0.1-0.1h0.1v5.4h-1.8V81L158.6,81L158.6,81z M158.6,90.5c0.5,0,0.9-0.2,1.3-0.3c0.4-0.2,0.8-0.5,1.2-0.8
				c0.3-0.3,0.6-0.7,0.8-1.2c0.2-0.4,0.3-1,0.3-1.5c0-0.5-0.1-1-0.2-1.4c-0.2-0.5-0.5-0.9-0.8-1.2c-0.3-0.3-0.7-0.6-1.1-0.9
				c-0.2-0.1-0.5-0.2-0.7-0.2c-0.2-0.1-0.5-0.1-0.7-0.2L158.6,90.5L158.6,90.5z"/>
			<path class="st8" d="M166.6,81h7.4v1.8h-5.6v2.8h4.3v1.7h-4.3v8.6h5.6v1.7h-7.4V81z"/>
			<path class="st8" d="M175.3,94.6c1,1,1.9,1.3,2.9,1.3c0.2,0,0.6-0.1,0.9-0.2c0.2-0.1,0.3-0.2,0.5-0.2c0.2-0.1,0.2-0.2,0.4-0.3
				c0.2-0.2,0.5-0.5,0.6-0.8c0.2-0.3,0.2-0.6,0.2-1c0-0.5-0.5-1.5-1.3-2.9l-1.3-1.7c-1.4-2-2.1-3.5-2.1-4.5c0-1,0.3-1.7,1-2.4
				c0.6-0.6,1.3-0.9,2.4-0.9c1,0,1.8,0.5,2.5,1.3l-1.2,1.1c-0.6-0.5-1-0.7-1.6-0.7c-1,0-1.4,0.5-1.4,1.3c0,0.7,0.7,2.1,2.1,4
				c1.7,2.8,2.5,4.6,2.5,5.6c0,0.6-0.1,1-0.3,1.6c-0.2,0.5-0.5,0.9-0.9,1.3c-0.4,0.4-0.8,0.7-1.3,0.9c-0.6,0.2-1.1,0.3-1.7,0.3
				c-1,0-1.9-0.3-2.9-1L175.3,94.6L175.3,94.6z"/>
			<path class="st8" d="M184.6,81h7.4v1.8h-5.6v2.8h4.3v1.7h-4.3v8.6h5.6v1.7h-7.4V81z"/>
			<path class="st8" d="M195.2,81l4.5,12.1V81h1.8v16.6h-1.9l-3.4-9.1v9.2h-1.8V81L195.2,81L195.2,81z"/>
			<path class="st8" d="M206.5,97.7V82.8h-2.8V81h7.4v1.8h-2.8v14.9H206.5z"/>
			<path class="st8" d="M213.3,81h7.4v1.8H215v2.8h4.3v1.7H215v8.6h5.6v1.7h-7.4L213.3,81L213.3,81z"/>
			<path class="st8" d="M223,81c0,0,0.2,0,0.6,0c1.2,0,2.3,0.2,3.2,0.6c1,0.4,1.9,1,2.7,1.8c0.8,0.8,1.3,1.7,1.8,2.6
				c0.5,1,0.7,2.1,0.7,3.2s-0.2,2.2-0.6,3.2c-0.4,1-1,1.9-1.8,2.7c-0.8,0.8-1.7,1.4-2.7,1.8c-1,0.5-2.1,0.7-3.3,0.7H223V81z
				 M224.8,95.8c0.8-0.1,1.5-0.3,2.2-0.8c0.7-0.4,1.3-0.9,1.7-1.5c0.5-0.6,0.9-1.2,1.2-2c0.2-0.8,0.4-1.5,0.4-2.3
				c0-0.8-0.2-1.6-0.5-2.3c-0.3-0.7-0.7-1.4-1.2-2c-0.5-0.6-1-1-1.7-1.5c-0.7-0.4-1.4-0.6-2.1-0.8L224.8,95.8L224.8,95.8z"/>
			<path class="st8" d="M242.2,81c2.6,0.4,4,1.7,4,3.9c0,1.2-0.3,2.1-1,2.7c0.4,0.2,0.7,0.5,1,0.8c0.3,0.4,0.6,0.8,0.9,1.2
				c0.2,0.4,0.4,0.9,0.6,1.3c0.2,0.5,0.2,1,0.2,1.3c0,0.8-0.2,1.5-0.5,2.1c-0.3,0.6-0.7,1.3-1.3,1.7c-0.6,0.5-1.2,0.9-1.9,1.1
				c-0.8,0.2-1.6,0.4-2.5,0.4h-1.1V81C240.6,81,242.2,81,242.2,81z M242.3,87.1c0.6,0,1-0.2,1.4-0.6c0.4-0.4,0.6-0.9,0.6-1.5
				c0-0.6-0.2-1-0.6-1.5c-0.4-0.4-0.9-0.6-1.5-0.6L242.3,87.1L242.3,87.1z M242.3,95.9c0.5,0,1-0.1,1.4-0.3c0.2-0.1,0.4-0.2,0.6-0.3
				c0.2-0.2,0.4-0.3,0.6-0.5c0.3-0.3,0.6-0.7,0.8-1.2c0.2-0.4,0.2-0.9,0.2-1.3c0-0.6-0.1-1-0.3-1.4c-0.2-0.5-0.5-0.9-0.8-1.2
				c-0.4-0.3-0.8-0.6-1.2-0.8s-0.9-0.3-1.4-0.3L242.3,95.9L242.3,95.9z"/>
			<path class="st8" d="M252.6,97.7v-8.3l-5.6-8.4h2.1l4.4,6.5l4.4-6.5h2.1l-5.6,8.3v8.4H252.6z"/>
			<path class="st8" d="M276.1,97.7h-8.9V77.2h1.9v18.6h7L276.1,97.7L276.1,97.7z"/>
			<path class="st8" d="M278.4,81h7.4v1.8h-5.6v2.8h4.3v1.7h-4.3v8.6h5.6v1.7h-7.4V81L278.4,81z"/>
			<path class="st8" d="M291,97.7L286.9,81h1.8l2.8,11l2.8-11h1.7l2.8,11l2.8-11h1.8l-4.1,16.6h-0.8l-3.2-12.9l-3.2,12.9H291z"/>
			<path class="st8" d="M307.1,81v16.6h-1.8V81H307.1z"/>
			<path class="st8" d="M309.3,94.6c1,1,1.9,1.3,2.9,1.3c0.2,0,0.6-0.1,0.9-0.2c0.2-0.1,0.3-0.2,0.5-0.2c0.2-0.1,0.2-0.2,0.4-0.3
				c0.2-0.2,0.5-0.5,0.6-0.8c0.2-0.3,0.2-0.6,0.2-1c0-0.5-0.5-1.5-1.3-2.9l-1.3-1.7c-1.4-2-2.1-3.5-2.1-4.5c0-1,0.3-1.7,1-2.4
				c0.6-0.6,1.3-0.9,2.4-0.9c1,0,1.8,0.5,2.5,1.3l-1.2,1.1c-0.6-0.5-1-0.7-1.6-0.7c-1,0-1.4,0.5-1.4,1.3c0,0.7,0.7,2.1,2.1,4
				c1.7,2.8,2.5,4.6,2.5,5.6c0,0.6-0.1,1-0.3,1.6c-0.2,0.5-0.5,0.9-0.9,1.3c-0.4,0.4-0.8,0.7-1.3,0.9c-0.6,0.2-1.1,0.3-1.7,0.3
				c-1,0-1.9-0.3-2.9-1L309.3,94.6L309.3,94.6z"/>
			<path class="st8" d="M323.3,77.2l3.4,13.9l3.5-13.9h0.7l5.1,20.4H334l-3.6-14.3l-3.6,14.3h-0.5l-3.5-14.3l-3.6,14.3h-2l5.1-20.4
				L323.3,77.2L323.3,77.2z"/>
			<path class="st8" d="M339.9,85.6c-0.8,1.2-1.1,2.4-1.1,3.7c0,1,0.2,1.8,0.6,2.6c0.3,0.8,0.8,1.5,1.4,2.1s1.3,1.1,2.1,1.4
				s1.7,0.6,2.6,0.6c0.4,0,0.6,0,0.6,0v1.7c0,0-0.2,0-0.6,0c-1.1,0-2.2-0.2-3.2-0.7c-1-0.4-1.9-1-2.7-1.8c-0.8-0.8-1.4-1.7-1.8-2.7
				c-0.5-1-0.7-2.1-0.7-3.2c0-1.2,0.2-2.2,0.7-3.3c0.4-1,1-1.9,1.8-2.7s1.7-1.3,2.7-1.8c1-0.4,2.1-0.6,3.2-0.6c0.4,0,0.6,0,0.6,0
				v1.7c0,0-0.2,0-0.6,0c-1.2,0-2.2,0.2-3.2,0.8C341.2,84,340.4,84.7,339.9,85.6z"/>
			<path class="st8" d="M348.7,77.2h1.5c2,0,4,0.9,6,2.7c2.3,2.1,3.4,4.6,3.4,7.5c0,1-0.2,2.1-0.5,3c-0.2,0.5-0.3,1-0.6,1.4
				c-0.2,0.5-0.5,0.9-0.7,1.3c-0.6,0.9-1.3,1.6-2,2.2c-0.4,0.3-0.8,0.6-1.3,0.9c-0.4,0.2-0.9,0.5-1.3,0.7c-1.3,0.6-2.3,0.8-3.1,0.8
				h-1.5L348.7,77.2L348.7,77.2z M350.5,95.8c1-0.2,2-0.5,2.9-1c0.9-0.5,1.7-1.1,2.3-1.9c0.6-0.7,1.2-1.6,1.6-2.6
				c0.4-1,0.6-1.9,0.6-3c0-1-0.2-2.1-0.6-3c-0.4-1-1-1.8-1.6-2.5c-0.3-0.4-0.7-0.7-1-1c-0.4-0.3-0.8-0.6-1.3-0.9
				c-1-0.5-1.9-0.8-2.9-1L350.5,95.8L350.5,95.8z"/>
			<path class="st8" d="M365.5,81l4.1,16.6h-1.8l-0.6-2.3h-4.4l-0.6,2.3h-1.8l4.1-16.6H365.5z M366.8,93.6l-1.7-7l-1.7,7H366.8z"/>
			<path class="st8" d="M372.6,81l4.5,12.1V81h1.8v16.6H377l-3.4-9.1v9.2h-1.8V81L372.6,81L372.6,81z"/>
			<path class="st8" d="M384,81v16.6h-1.8V81H384z"/>
			<path class="st8" d="M387.3,81h7.4v1.8h-5.6v2.8h4.3v1.7h-4.3v8.6h5.6v1.7h-7.4V81z"/>
			<path class="st8" d="M404.5,97.7h-7.4V81h1.8v14.9h5.6L404.5,97.7L404.5,97.7z"/>
			<path class="st8" d="M405.6,94.6c1,1,1.9,1.3,2.9,1.3c0.2,0,0.6-0.1,0.9-0.2c0.2-0.1,0.3-0.2,0.5-0.2c0.2-0.1,0.2-0.2,0.4-0.3
				c0.2-0.2,0.5-0.5,0.6-0.8c0.2-0.3,0.2-0.6,0.2-1c0-0.5-0.5-1.5-1.3-2.9l-1.3-1.7c-1.4-2-2.1-3.5-2.1-4.5c0-1,0.3-1.7,1-2.4
				c0.6-0.6,1.3-0.9,2.4-0.9c1,0,1.8,0.5,2.5,1.3l-1.2,1.1c-0.6-0.5-1-0.7-1.6-0.7c-1,0-1.4,0.5-1.4,1.3c0,0.7,0.7,2.1,2.1,4
				c1.7,2.8,2.5,4.6,2.5,5.6c0,0.6-0.1,1-0.3,1.6c-0.2,0.5-0.5,0.9-0.9,1.3c-0.4,0.4-0.8,0.7-1.3,0.9c-0.6,0.2-1.1,0.3-1.7,0.3
				c-1,0-1.9-0.3-2.9-1L405.6,94.6L405.6,94.6z"/>
		</g>
		<g>
			<path class="st8" d="M147.7,116.2c-1.5-1.7-2.2-3.8-2.2-6.3c0-2.6,0.7-4.8,2.2-6.5h1c-1.6,1.8-2.4,4-2.4,6.4
				c0,2.4,0.8,4.5,2.3,6.3L147.7,116.2L147.7,116.2z"/>
			<path class="st8" d="M158.4,114.1h-1.2l-1.7-6.9l-1.7,6.9h-0.4l-1.7-6.9c-0.6,2.3-1.1,4.6-1.7,6.9h-1.1l2.6-10.5h0.6l1.7,6.7
				l1.7-6.7h0.5L158.4,114.1z"/>
			<path class="st8" d="M164,114.1h-1.1l-0.3-1.1h-2.1l-0.3,1.1H159l2.1-8.5h0.6L164,114.1z M162.3,111.9c-0.2-1.1-0.5-1.9-0.7-3
				c-0.2,1-0.5,2-0.8,3H162.3z"/>
			<path class="st8" d="M169.2,114.2c-1.5-0.5-1.7-0.8-2-1.4l-0.2-0.4l0,0c-0.1-0.2-0.2-0.4-0.5-0.7l-0.2-0.2l0,0l0,0v2.5h-1v-8.5
				c1,0,1.6,0.1,2,0.3l0,0c0.9,0.3,1.7,1.6,1.7,2.6s-0.8,2.2-1.7,2.6l0.3,0.5l0.3,0.7c0.2,0.4,0.6,0.7,1,0.8L169.2,114.2
				L169.2,114.2z M166.4,110.3c0.9-0.1,1.7-0.9,1.7-1.8c0-1-0.8-1.7-1.7-1.8V110.3z"/>
			<path class="st8" d="M173.1,114.1h-1v-4.2c-0.9-1.3-2-2.9-2.9-4.3h1.3l2.1,3.2c0.7-1.1,1.4-2.1,2.1-3.2h1.3l-2.9,4.3V114.1z"/>
			<path class="st8" d="M180.8,114.1h-3.9v-8.6h1v7.4h2.8L180.8,114.1L180.8,114.1z"/>
			<path class="st8" d="M186,114.1h-1.1l-0.3-1.1h-2.1l-0.3,1.1h-1l2.1-8.5h0.6L186,114.1z M184.4,111.9c-0.2-1.1-0.5-1.9-0.7-3
				c-0.2,1-0.5,2-0.8,3H184.4z"/>
			<path class="st8" d="M191.1,114.1H190l-1.6-4.1v4.1h-1v-8.6h0.6l2.1,5.6v-5.6h1.1V114.1z"/>
			<path class="st8" d="M192.9,114.1v-8.5h0.5c2.3,0,4.2,2.1,4.2,4.3c0,2.2-2.1,4.2-4.3,4.2H192.9z M194,113
				c1.3-0.2,2.6-1.6,2.6-3.2c0-1.5-1.2-2.9-2.6-3.2V113z"/>
			<path class="st8" d="M199.8,107H199v-3.4h0.8V107z"/>
			<path class="st8" d="M201.2,113.7v-1.3c0.6,0.6,1,0.8,1.5,0.8c0.6,0,1.2-0.6,1.2-1.1c0-0.2-0.2-0.7-0.6-1.4l0,0l-0.6-0.9
				c-0.7-1-1.1-1.7-1.1-2.3c0-1.1,0.7-1.7,1.7-1.7c0.6,0,1,0.2,1.3,0.8l-0.7,0.6c-0.3-0.2-0.6-0.4-0.8-0.4c-0.4,0-0.6,0.2-0.6,0.6
				c0,0.3,0.4,1,1,2c0.9,1.3,1.3,2.4,1.3,2.9c0,1.1-1,2.1-2.2,2.1C202.3,114.1,201.8,114,201.2,113.7z"/>
			<path class="st8" d="M211.1,114.1H210v-10.5h1c1.8,0.1,3.4,1.7,3.4,3.6c0,1.7-1.5,3.5-3.3,3.6L211.1,114.1L211.1,114.1z
				 M211.1,109.6c1.2-0.1,2.3-1.2,2.3-2.5c0-1.3-1.1-2.3-2.3-2.5V109.6z"/>
			<path class="st8" d="M219.8,114.2c-1.5-0.5-1.7-0.8-2-1.4l-0.2-0.4l0,0c-0.1-0.2-0.2-0.4-0.5-0.7l-0.2-0.2l0,0l0,0v2.5h-1v-8.5
				c1,0,1.6,0.1,2,0.3l0,0c0.9,0.3,1.7,1.6,1.7,2.6s-0.8,2.2-1.7,2.6l0.3,0.5l0.3,0.7c0.2,0.4,0.6,0.7,1,0.8L219.8,114.2
				L219.8,114.2z M217.1,110.3c0.9-0.1,1.7-0.9,1.7-1.8c0-1-0.8-1.7-1.7-1.8V110.3z"/>
			<path class="st8" d="M225.3,114.1h-3.9v-8.6h3.9v1h-2.8v1.2h2.1v1h-2.1v4.1h2.8V114.1z"/>
			<path class="st8" d="M234,114.1h-1.1l-1.3-5.2c-0.4,1.7-0.9,3.5-1.3,5.2h-0.5l-1.3-5.2c-0.4,1.7-0.9,3.5-1.3,5.2h-1.1l2.1-8.5
				h0.6l1.3,5l1.3-5h0.6L234,114.1z"/>
			<path class="st8" d="M236.5,114.1h-1v-8.6h1V114.1z"/>
			<path class="st8" d="M242.1,114.1h-3.9v-8.6h3.9v1h-2.8v1.2h2.1v1h-2.1v4.1h2.8V114.1z"/>
			<path class="st8" d="M247.4,114.2c-1.5-0.5-1.7-0.8-2-1.4l-0.2-0.4l0,0c-0.1-0.2-0.2-0.4-0.5-0.7l-0.2-0.2l0,0l0,0v2.5h-1v-8.5
				c1,0,1.6,0.1,2,0.3l0,0c0.9,0.3,1.7,1.6,1.7,2.6s-0.8,2.2-1.7,2.6l0.3,0.5l0.3,0.7c0.2,0.4,0.6,0.7,1,0.8L247.4,114.2
				L247.4,114.2z M244.7,110.3c0.9-0.1,1.7-0.9,1.7-1.8c0-1-0.8-1.7-1.7-1.8V110.3z"/>
			<path class="st8" d="M254.6,114.1h-1.1v-9.3h-1.8v-1.1h4.6v1.1h-1.7L254.6,114.1L254.6,114.1z"/>
			<path class="st8" d="M260.9,114.1h-1.1l-0.3-1.1h-2.1l-0.3,1.1H256l2.1-8.5h0.6L260.9,114.1z M259.3,111.9
				c-0.2-1.1-0.5-1.9-0.7-3c-0.2,1-0.5,2-0.8,3H259.3z"/>
			<path class="st8" d="M266.7,114.1h-1.2l-1.3-2.9c-0.4,1-0.9,2-1.3,2.9h-1.1l1.8-4.3l-1.8-4.2h1.1l1.3,2.9c0.4-1,0.9-1.9,1.3-2.9
				h1.1l-1.8,4.2L266.7,114.1z"/>
			<path class="st8" d="M276.3,114.1h-4.6v-10.5h1.1v9.3h3.5V114.1z"/>
			<path class="st8" d="M278.8,114.1h-1v-8.6h1V114.1z"/>
			<path class="st8" d="M284.3,114.1h-3.9v-8.6h3.9v1h-2.8v1.2h2.1v1h-2.1v4.1h2.8V114.1z"/>
			<path class="st8" d="M289.6,114.1h-1.1l-1.6-4.1v4.1h-1v-8.6h0.6l2.1,5.6v-5.6h1.1L289.6,114.1L289.6,114.1z"/>
			<path class="st8" d="M296.4,114.1h-1.1v-10.5h4.6v1.1h-3.5v1.7h2.7v1.1h-2.7V114.1z"/>
			<path class="st8" d="M300.3,109.9c0-2.4,2-4.3,4.3-4.3c2.4,0,4.3,2.1,4.3,4.3c0,2.5-2.1,4.3-4.4,4.3
				C302.2,114.1,300.3,112.2,300.3,109.9z M307.8,109.9c0-1.7-1.5-3.2-3.3-3.2s-3.2,1.6-3.2,3.2c0,1.5,1.3,3.2,3.2,3.2
				C306.3,113.1,307.8,111.6,307.8,109.9z"/>
			<path class="st8" d="M314.2,114.2c-1.5-0.5-1.7-0.8-2-1.4l-0.2-0.4l0,0c-0.1-0.2-0.2-0.4-0.5-0.7l-0.2-0.2l0,0l0,0v2.5h-1v-8.5
				c1,0,1.6,0.1,2,0.3l0,0c0.9,0.3,1.7,1.6,1.7,2.6s-0.8,2.2-1.7,2.6l0.3,0.5l0.3,0.7c0.2,0.4,0.6,0.7,1,0.8L314.2,114.2
				L314.2,114.2z M311.5,110.3c0.9-0.1,1.7-0.9,1.7-1.8c0-1-0.8-1.7-1.7-1.8V110.3z"/>
			<path class="st8" d="M319.7,114.1h-3.9v-8.6h3.9v1h-2.8v1.2h2.1v1h-2.1v4.1h2.8V114.1z"/>
			<path class="st8" d="M324.4,114.1c-2.3,0-4.2-2-4.2-4.3c0-2.4,2-4.3,4.3-4.3h0.4v1h-0.5c-1.8,0-3.2,1.6-3.2,3.2
				c0,1.6,1.3,3.2,3.2,3.2h0.4v1H324.4z"/>
			<path class="st8" d="M330,114.1h-3.9v-8.6h1v7.4h2.8L330,114.1L330,114.1z"/>
			<path class="st8" d="M329.8,109.9c0-2.4,2-4.3,4.3-4.3c2.4,0,4.3,2.1,4.3,4.3c0,2.5-2.1,4.3-4.4,4.3
				C331.7,114.1,329.8,112.2,329.8,109.9z M337.4,109.9c0-1.7-1.5-3.2-3.3-3.2c-1.8,0-3.2,1.6-3.2,3.2c0,1.5,1.3,3.2,3.2,3.2
				C335.9,113.1,337.4,111.6,337.4,109.9z"/>
			<path class="st8" d="M339,113.7v-1.3c0.6,0.6,1,0.8,1.5,0.8c0.6,0,1.2-0.6,1.2-1.1c0-0.2-0.2-0.7-0.6-1.4l0,0l-0.6-0.9
				c-0.7-1-1.1-1.7-1.1-2.3c0-1.1,0.7-1.7,1.7-1.7c0.6,0,1,0.2,1.3,0.8l-0.7,0.6c-0.3-0.2-0.6-0.4-0.8-0.4c-0.4,0-0.6,0.2-0.6,0.6
				c0,0.3,0.4,1,1,2c0.9,1.3,1.3,2.4,1.3,2.9c0,1.1-1,2.1-2.2,2.1C340.1,114.1,339.6,114,339,113.7z"/>
			<path class="st8" d="M344.3,111.9v-6.3h1v6.3c0.1,0.6,0.6,1.2,1.2,1.2c0.7,0,1.2-0.6,1.2-1.2v-6.3h1v6.3c0,1.2-1,2.3-2.2,2.3
				C345.4,114.1,344.3,113.3,344.3,111.9z"/>
			<path class="st8" d="M354.4,114.2c-1.5-0.5-1.7-0.8-2-1.4l-0.2-0.4l0,0c-0.1-0.2-0.2-0.4-0.5-0.7l-0.2-0.2l0,0l0,0v2.5h-1v-8.5
				c1,0,1.6,0.1,2,0.3l0,0c0.9,0.3,1.7,1.6,1.7,2.6s-0.8,2.2-1.7,2.6l0.3,0.5l0.3,0.7c0.2,0.4,0.6,0.7,1,0.8L354.4,114.2
				L354.4,114.2z M351.6,110.3c0.9-0.1,1.7-0.9,1.7-1.8c0-1-0.8-1.7-1.7-1.8V110.3z"/>
			<path class="st8" d="M359.8,114.1H356v-8.6h3.9v1h-2.8v1.2h2.1v1h-2.1v4.1h2.8V114.1z"/>
			<path class="st8" d="M369.5,114.1h-4.6v-10.5h1.1v9.3h3.5V114.1z"/>
			<path class="st8" d="M375.7,114.1h-1.1l-0.3-1.1h-2.1l-0.3,1.1h-1.1l2.1-8.5h0.6L375.7,114.1z M374,111.9c-0.2-1.1-0.5-1.9-0.7-3
				c-0.2,1-0.5,2-0.8,3H374z"/>
			<path class="st8" d="M382,114.1h-0.6L380,108c-0.5,2.1-1,4-1.5,6.1h-0.6l-2.1-8.5h1.1l1.3,5.2l1.3-5.2h1l1.3,5.2l1.3-5.2h1.1
				L382,114.1z"/>
			<path class="st8" d="M389.9,114.1h-1.1v-10.5h4.6v1.1h-3.5v1.7h2.7v1.1h-2.7V114.1z"/>
			<path class="st8" d="M395.4,114.1h-1v-8.6h1V114.1z"/>
			<path class="st8" d="M400.9,114.2c-1.5-0.5-1.7-0.8-2-1.4l-0.2-0.4l0,0c-0.1-0.2-0.2-0.4-0.5-0.7l-0.2-0.2l0,0l0,0v2.5h-1v-8.5
				c1,0,1.6,0.1,2,0.3l0,0c0.9,0.3,1.7,1.6,1.7,2.6s-0.8,2.2-1.7,2.6l0.3,0.5l0.3,0.7c0.2,0.4,0.6,0.7,1,0.8L400.9,114.2
				L400.9,114.2z M398.2,110.3c0.9-0.1,1.7-0.9,1.7-1.8c0-1-0.8-1.7-1.7-1.8V110.3z"/>
			<path class="st8" d="M409.7,114.1h-1.1l-1.3-5.2c-0.4,1.7-0.9,3.5-1.3,5.2h-0.5l-1.3-5.2c-0.4,1.7-0.9,3.5-1.3,5.2h-1.1l2.1-8.5
				h0.6l1.3,5l1.3-5h0.6L409.7,114.1z"/>
			<path class="st8" d="M410.1,116.2c1.5-1.9,2.3-4,2.3-6.3c0-2.5-0.8-4.7-2.4-6.4h1c1.5,1.7,2.3,3.9,2.3,6.5c0,2.5-0.7,4.6-2.2,6.3
				L410.1,116.2L410.1,116.2z"/>
		</g>
		<rect x="146.5" y="65.2" class="st9" width="266.4" height="3.6"/>
	</g>
</g>
</svg>
