<?xml version="1.0" encoding="utf-8"?>
<!-- Generator: Adobe Illustrator 26.0.0, SVG Export Plug-In . SVG Version: 6.00 Build 0)  -->
<svg version="1.1" id="Layer_1" xmlns="http://www.w3.org/2000/svg" xmlns:xlink="http://www.w3.org/1999/xlink" x="0px" y="0px"
	 viewBox="0 0 62.1 63.8" style="enable-background:new 0 0 62.1 63.8;" xml:space="preserve">
<style type="text/css">
	.st0{fill-rule:evenodd;clip-rule:evenodd;fill:#6D6E70;}
	.st1{fill-rule:evenodd;clip-rule:evenodd;fill:#FFFFFF;}
	.st2{fill-rule:evenodd;clip-rule:evenodd;fill:#E6B321;}
</style>
<g>
	<path class="st0" d="M61.7,59.8c0,2.1-1.8,3.9-3.9,3.9H4.2c-2.1,0-3.9-1.8-3.9-3.9V4.1c0-2.1,1.8-3.9,3.9-3.9h53.6
		c2.1,0,3.9,1.8,3.9,3.9V59.8z"/>
	<path class="st1" d="M61,59.4c0,2.2-1.8,3.6-3.6,3.6H4.6c-1.8,0-3.6-1.4-3.6-3.6v-55c0-1.8,1.8-3.6,3.6-3.6h52.9
		c1.8,0,3.6,1.8,3.6,3.6V59.4z"/>
	<path class="st2" d="M60.1,59.4v-55c0-1.3-1.4-2.7-2.7-2.7H4.6c-1.3,0-2.7,1.4-2.7,2.7v55c0,1.5,1.2,2.7,2.7,2.7h52.9
		C58.9,62,60.1,60.9,60.1,59.4z"/>
	<g>
		<path class="st1" d="M29.6,39.5L29.6,39.5c0.3-0.9,0.8-2.6,1.6-5.3l4.4-14L33,19.9v-1.2c1.2,0.1,2.3,0.1,3.4,0.1
			c0.9,0,2.1,0,3.4-0.1v1.1l-2.1,0.4c-0.3,0.5-0.8,1.5-1.3,2.8l-7.2,22h-0.8l-6.1-17.8l-6.7,17.8l-0.9,0L6.5,20.2L4,19.9
			c-0.1-0.3-0.1-0.7,0-1.2c1.2,0.1,2.7,0.1,4.5,0.1c1.7,0,3.3,0,4.6-0.1c0.1,0.4,0.1,0.8,0,1.1l-2.6,0.4l4.2,14.1
			c0.5,1.9,1,3.7,1.4,5.4h0.1c0.4-1.4,1-3.2,1.8-5.4l3.5-9.7l-1.5-4.5l-2.6-0.3c-0.1-0.3-0.1-0.7,0-1.2c1.2,0.1,2.6,0.1,4.4,0.1
			c1.6,0,3.1,0,4.5-0.1c0.1,0.4,0.1,0.8,0,1.1l-2.6,0.4l4.5,13.8C28.8,36.4,29.3,38.2,29.6,39.5z"/>
		<path class="st1" d="M42.1,38.9V20.2l-2.6-0.3c-0.1-0.4-0.1-0.7,0-1.1l4.4,0.1h12.8l0,7.4c-0.5,0.1-0.9,0.1-1.2,0L54,20.4h-8.6
			v9.4l5.1-0.1l0.7-3.1c0.3-0.1,0.7-0.1,1.2,0c-0.1,1.2-0.1,2.5-0.1,4.1c0,1.4,0,2.8,0.1,4.1c-0.4,0.1-0.8,0.1-1.1,0l-0.7-3.3
			l-5.1-0.1v11.3l2.9,0.3c0.1,0.3,0.1,0.7,0,1.2c-1.3-0.1-2.8-0.1-4.5-0.1c-1.2,0-2.8,0-4.5,0.1c-0.1-0.4-0.1-0.8,0-1.2l2.6-0.4
			C42,41.8,42.1,40.6,42.1,38.9z"/>
	</g>
</g>
</svg>
