<?xml version="1.0" encoding="utf-8"?>
<!-- Generator: Adobe Illustrator 26.0.0, SVG Export Plug-In . SVG Version: 6.00 Build 0)  -->
<svg version="1.1" id="Layer_1" xmlns="http://www.w3.org/2000/svg" xmlns:xlink="http://www.w3.org/1999/xlink" x="0px" y="0px"
	 viewBox="0 0 352.2 69.3" style="enable-background:new 0 0 352.2 69.3;" xml:space="preserve">
<style type="text/css">
	.st0{fill-rule:evenodd;clip-rule:evenodd;fill:#E9B420;}
	.st1{fill-rule:evenodd;clip-rule:evenodd;fill:#FFFFFF;}
	.st2{display:none;}
	.st3{display:inline;fill-rule:evenodd;clip-rule:evenodd;fill:#6D6E71;}
	.st4{display:inline;fill-rule:evenodd;clip-rule:evenodd;fill:#FFFFFF;}
	.st5{display:inline;fill-rule:evenodd;clip-rule:evenodd;fill:#E7B422;}
	.st6{display:inline;}
</style>
<g>
	<rect x="0.1" y="0.6" class="st0" width="55.3" height="68.2"/>
	<path class="st1" d="M66.1,24.2h18.1l0,6.1c-0.4,0.1-0.7,0.1-1,0L82,25.5h-5.5v18.4l2.6,0.3c0.1,0.3,0.1,0.6,0,1
		c-1.1-0.1-2.4-0.1-4-0.1c-1.2,0-2.5,0-4,0.1c-0.1-0.3-0.1-0.6,0-1l2.4-0.3c0.1-0.7,0.1-1.7,0.1-3.1V25.5h-5.5L67,30.3
		c-0.3,0.1-0.6,0.1-1,0L66.1,24.2L66.1,24.2z M103.4,33.6v-8.3l-2.1-0.3c-0.1-0.3-0.1-0.6,0-1c1,0.1,2.2,0.1,3.6,0.1
		c1.3,0,2.5,0,3.6-0.1c0.1,0.3,0.1,0.6,0,0.9l-2.2,0.3c-0.1,0.7-0.1,1.7-0.1,3.1v15.4l2.1,0.3c0.1,0.3,0.1,0.6,0,1
		c-1.1-0.1-2.3-0.1-3.6-0.1c-0.9,0-2.2,0-3.6,0.1c-0.1-0.3-0.1-0.6,0-1l2.2-0.3c0.1-0.7,0.1-1.7,0.1-3.1v-5.9H93.1v9l2.1,0.3
		c0.1,0.3,0.1,0.6,0,1c-1.1-0.1-2.3-0.1-3.6-0.1c-0.9,0-2.2,0-3.6,0.1c-0.1-0.3-0.1-0.6,0-1l2.2-0.3c0.1-0.7,0.1-1.7,0.1-3.1V25.3
		l-2.1-0.3c-0.1-0.3-0.1-0.6,0-1c1,0.1,2.2,0.1,3.6,0.1c1.3,0,2.5,0,3.6-0.1c0.1,0.3,0.1,0.6,0,0.9l-2.2,0.3
		c-0.1,0.7-0.1,1.7-0.1,3.1v5.1H103.4L103.4,33.6z M115,40.8V25.3l-2.1-0.3c-0.1-0.3-0.1-0.6,0-0.9l3.6,0.1h10.6l0,6.1
		c-0.4,0.1-0.7,0.1-1,0l-1.2-4.8h-7.1v7.9l4.2-0.1l0.6-2.6c0.3-0.1,0.6-0.1,1,0c-0.1,1-0.1,2.1-0.1,3.4c0,1.2,0,2.3,0.1,3.4
		c-0.3,0.1-0.6,0.1-0.9,0l-0.6-2.7l-4.2-0.1v9.1h7.9l1.2-4.8c0.3-0.1,0.6-0.1,1,0l0,6.1h-11.4l-3.8,0.1c-0.1-0.3-0.1-0.6,0-0.9
		l2.2-0.3C115,43,115,42,115,40.8L115,40.8z M158.3,41.2L158.3,41.2c0.2-0.7,0.6-2.2,1.3-4.4l3.6-11.5l-2.1-0.3v-1
		c1,0.1,1.9,0.1,2.8,0.1c0.8,0,1.7,0,2.8-0.1v0.9l-1.7,0.3c-0.3,0.4-0.6,1.2-1,2.3l-6,18.1h-0.7l-5-14.7l-5.5,14.7l-0.7,0l-6.8-20.5
		l-2.1-0.3c-0.1-0.3-0.1-0.6,0-1c1,0.1,2.2,0.1,3.8,0.1c1.4,0,2.7,0,3.8-0.1c0.1,0.3,0.1,0.6,0,0.9l-2.2,0.3L146,37
		c0.4,1.6,0.8,3.1,1.1,4.4h0.1c0.3-1.2,0.9-2.6,1.5-4.4l2.9-8l-1.3-3.7l-2.1-0.3c-0.1-0.3-0.1-0.6,0-1c1,0.1,2.2,0.1,3.6,0.1
		c1.3,0,2.6,0,3.7-0.1c0.1,0.3,0.1,0.6,0,0.9l-2.2,0.3l3.7,11.4C157.6,38.7,158.1,40.2,158.3,41.2L158.3,41.2z M169.6,43.9l2.3-6.5
		h6.8l2.3,6.5l-2.2,0.3c-0.1,0.3-0.1,0.6,0,1c1.5,0,2.7-0.1,3.7-0.1c1.4,0,2.6,0,3.7,0.1c0.1-0.4,0.1-0.7,0-1l-2.1-0.3l-7.6-20.5
		h-0.9l-6.8,18.1c-0.4,1.1-0.8,1.9-1,2.3l-1.7,0.3c-0.1,0.3-0.1,0.6,0,1c1.5,0,2.4-0.1,2.8-0.1c0.8,0,1.7,0,2.8,0.1
		c0.1-0.4,0.1-0.7,0-1L169.6,43.9L169.6,43.9z M175.5,27.4c0.3,1.1,0.6,2.2,0.9,3.2l1.9,5.5h-5.9l2-5.5
		C174.9,29.3,175.2,28.2,175.5,27.4L175.5,27.4L175.5,27.4z M192.6,45.1l-3.8,0.1c-0.1-0.3-0.1-0.6,0-0.9l2.2-0.3
		c0.1-0.9,0.1-1.9,0.1-3.1V25.3l-2.1-0.3c-0.1-0.3-0.1-0.6,0-1c1,0.1,2.2,0.1,3.6,0.1c1.3,0,2.5,0,3.6-0.1c0.1,0.3,0.1,0.6,0,0.9
		l-2.2,0.3c-0.1,0.7-0.1,1.7-0.1,3.1v15.3h8.7l1.2-4.8c0.3-0.1,0.6-0.1,1,0l0,6.1H192.6L192.6,45.1z M216.9,33.2l6.1,8
		c0.8,1.1,1.5,2,2.2,2.7l2,0.2c0.1,0.3,0.1,0.6,0,1c-2.6-0.1-4.2-0.1-4.9-0.1c-1.3,0-2.3,0-3.1,0.1c-0.1-0.3-0.1-0.6,0-1l2.2-0.4
		c-0.2-0.3-0.8-1.3-1.9-2.8l-4.4-6.1h-1.5v9l2.1,0.3c0.1,0.3,0.1,0.6,0,1c-1.1-0.1-2.3-0.1-3.6-0.1c-0.9,0-2.2,0-3.6,0.1
		c-0.1-0.3-0.1-0.6,0-1l2.2-0.3c0.1-0.7,0.1-1.7,0.1-3.1V25.3l-2.1-0.3c-0.1-0.3-0.1-0.6,0-1c1,0.1,2.2,0.1,3.6,0.1
		c1.3,0,2.5,0,3.6-0.1c0.1,0.3,0.1,0.6,0,0.9l-2.2,0.3c-0.1,0.7-0.1,1.7-0.1,3.1v5.1h1.4l6.6-8.3l-2.1-0.3c-0.1-0.3-0.1-0.6,0-1
		c1,0.1,2,0.1,3,0.1c0.9,0,1.9,0,3-0.1c0.1,0.3,0.1,0.6,0,0.9l-1.8,0.3c-0.8,0.6-1.6,1.4-2.4,2.3L216.9,33.2L216.9,33.2z
		 M232.1,40.8V25.3l-2.1-0.3c-0.1-0.3-0.1-0.6,0-0.9l3.6,0.1h10.6l0,6.1c-0.4,0.1-0.7,0.1-1,0l-1.2-4.8h-7.1v7.9l4.2-0.1l0.6-2.6
		c0.3-0.1,0.6-0.1,1,0c-0.1,1-0.1,2.1-0.1,3.4c0,1.2,0,2.3,0.1,3.4c-0.3,0.1-0.6,0.1-0.9,0l-0.6-2.7l-4.2-0.1v9.1h7.9L244,39
		c0.3-0.1,0.6-0.1,1,0l0,6.1h-11.4l-3.8,0.1c-0.1-0.3-0.1-0.6,0-0.9l2.2-0.3C232,43,232.1,42,232.1,40.8L232.1,40.8z M249.5,24.1
		c0.7,0,1.9,0,3.4-0.1c1.6-0.1,3-0.1,4.3-0.1c2.7,0,4.6,0.5,5.7,1.6c1.1,1.1,1.7,2.5,1.7,4.4c0,1.1-0.4,2.2-1.2,3.1
		c-0.8,0.9-1.8,1.6-3.1,2c0.8,1.3,1.5,2.5,2.1,3.6c0.7,1.1,1.1,2,1.4,2.5c0.3,0.5,0.6,1,0.8,1.5c0.2,0.4,0.4,0.7,0.5,0.9
		c0.1,0.2,0.2,0.3,0.3,0.4l1.9,0.3c0.1,0.3,0.1,0.6,0,1H263l-4-7.2c-0.5-1-1-1.8-1.5-2.3h-0.4c-0.9,0-1.8-0.1-2.7-0.2v8.5l2.4,0.3
		c0.1,0.3,0.1,0.6,0,1c-1.1-0.1-2.3-0.1-3.7-0.1c-1,0-2.3,0-3.8,0.1c-0.1-0.3-0.1-0.6,0-1l2.2-0.3c0.1-0.7,0.1-1.7,0.1-3.1V25.3
		l-2.1-0.3C249.5,24.8,249.5,24.5,249.5,24.1L249.5,24.1z M254.5,28.5v5.9c0.5,0.1,1.3,0.1,2.4,0.1c0.9,0,1.7-0.1,2.3-0.4
		c0.6-0.3,1.1-0.7,1.4-1.2c0.3-0.5,0.5-1,0.7-1.5c0.1-0.5,0.2-1,0.2-1.6c0-1.5-0.4-2.7-1.1-3.5c-0.8-0.8-2-1.3-3.8-1.3
		c-0.6,0-1.3,0.1-1.9,0.2C254.5,26.2,254.5,27.3,254.5,28.5L254.5,28.5z M278.8,40.8V25.3l-2.1-0.3c-0.1-0.3-0.1-0.6,0-0.9l3.6,0.1
		h10.6l0,6.1c-0.4,0.1-0.7,0.1-1,0l-1.2-4.8h-7.1v7.8l4.2-0.1l0.6-2.6c0.3-0.1,0.6-0.1,1,0c-0.1,1-0.1,2.1-0.1,3.4
		c0,1.2,0,2.3,0.1,3.4c-0.3,0.1-0.6,0.1-0.9,0l-0.6-2.7l-4.2-0.1v9.3l2.4,0.3c0.1,0.3,0.1,0.6,0,1c-1.1-0.1-2.3-0.1-3.7-0.1
		c-1,0-2.3,0-3.8,0.1c-0.1-0.3-0.1-0.6,0-1l2.2-0.3C278.8,43.2,278.8,42.1,278.8,40.8L278.8,40.8z M299.8,28.4v15.4l2.1,0.3
		c0.1,0.3,0.1,0.6,0,1c-1.1-0.1-2.3-0.1-3.6-0.1c-0.9,0-2.2,0-3.6,0.1c-0.1-0.3-0.1-0.6,0-1l2.2-0.3c0.1-0.7,0.1-1.7,0.1-3.1V25.3
		l-2.1-0.3c-0.1-0.3-0.1-0.6,0-1c1,0.1,2.2,0.1,3.6,0.1c1.3,0,2.5,0,3.6-0.1c0.1,0.3,0.1,0.6,0,0.9l-2.2,0.3
		C299.8,26,299.8,27.1,299.8,28.4L299.8,28.4z M306.5,24.1c0.7,0,1.9,0,3.4-0.1s3-0.1,4.3-0.1c2.7,0,4.6,0.5,5.7,1.6
		c1.1,1.1,1.7,2.5,1.7,4.4c0,1.1-0.4,2.2-1.2,3.1c-0.8,0.9-1.8,1.6-3.1,2c0.8,1.3,1.5,2.5,2.1,3.6c0.7,1.1,1.1,2,1.4,2.5
		c0.3,0.5,0.6,1,0.8,1.5c0.2,0.4,0.4,0.7,0.5,0.9c0.1,0.2,0.2,0.3,0.3,0.4l1.9,0.3c0.1,0.3,0.1,0.6,0,1h-4.5l-4-7.2
		c-0.5-1-1-1.8-1.5-2.3h-0.4c-0.9,0-1.8-0.1-2.7-0.2v8.5l2.4,0.3c0.1,0.3,0.1,0.6,0,1c-1.1-0.1-2.3-0.1-3.7-0.1c-1,0-2.3,0-3.8,0.1
		c-0.1-0.3-0.1-0.6,0-1l2.2-0.3c0.1-0.7,0.1-1.7,0.1-3.1V25.3l-2.1-0.3C306.4,24.8,306.4,24.5,306.5,24.1L306.5,24.1z M311.4,28.5
		v5.9c0.5,0.1,1.3,0.1,2.4,0.1c0.9,0,1.7-0.1,2.3-0.4c0.6-0.3,1.1-0.7,1.4-1.2c0.3-0.5,0.5-1,0.7-1.5c0.1-0.5,0.2-1,0.2-1.6
		c0-1.5-0.4-2.7-1.1-3.5c-0.8-0.8-2-1.3-3.8-1.3c-0.6,0-1.3,0.1-1.9,0.2C311.4,26.2,311.4,27.3,311.4,28.5L311.4,28.5z M347,40.8
		V25.7l-7.9,20.1h-0.7l-7.6-19.5v14.4c0,1.4,0,2.4,0.1,3.1l2.4,0.3c0.1,0.3,0.1,0.6,0,1c-1.5,0-2.6-0.1-3.2-0.1c-1,0-2.1,0-3.2,0.1
		c-0.1-0.4-0.1-0.7,0-1l2.4-0.3V28.5c0-1.4,0-2.4-0.1-3.1l-2.2-0.3c-0.1-0.3-0.1-0.6,0-0.9h5.8l6.6,17.3l6.7-17.3c0.4,0,1,0,1.8,0
		c0.2,0,1.5,0,4.1-0.1c0.1,0.3,0.1,0.6,0,0.9l-2.2,0.3c-0.1,0.7-0.1,1.7-0.1,3.1v15.4l2.1,0.3c0.1,0.3,0.1,0.6,0,1
		c-1.1-0.1-2.3-0.1-3.6-0.1c-0.9,0-2.2,0-3.6,0.1c-0.1-0.5-0.1-0.8,0-1l2.2-0.3C346.9,43.2,347,42.1,347,40.8z"/>
	<g>
		<path class="st1" d="M27,42.3L27,42.3c0.3-0.9,0.8-2.6,1.6-5.3l4.4-14l-2.6-0.3v-1.2c1.2,0.1,2.3,0.1,3.4,0.1c0.9,0,2.1,0,3.4-0.1
			v1.1l-2.1,0.4c-0.3,0.5-0.8,1.5-1.3,2.8l-7.2,22h-0.8l-6.1-17.8L13,47.9l-0.9,0L3.9,23.1l-2.6-0.3c-0.1-0.3-0.1-0.7,0-1.2
			c1.2,0.1,2.7,0.1,4.5,0.1c1.7,0,3.3,0,4.6-0.1c0.1,0.4,0.1,0.8,0,1.1l-2.6,0.4l4.2,14.1c0.5,1.9,1,3.7,1.4,5.4h0.1
			c0.4-1.4,1-3.2,1.8-5.4l3.5-9.7l-1.5-4.5l-2.6-0.3c-0.1-0.3-0.1-0.7,0-1.2c1.2,0.1,2.6,0.1,4.4,0.1c1.6,0,3.1,0,4.5-0.1
			c0.1,0.4,0.1,0.8,0,1.1L21,23.1l4.5,13.8C26.2,39.2,26.7,41,27,42.3z"/>
		<path class="st1" d="M39.5,41.7V23l-2.6-0.3c-0.1-0.4-0.1-0.7,0-1.1l4.4,0.1h12.8l0,7.4c-0.5,0.1-0.9,0.1-1.2,0l-1.5-5.8h-8.6v9.4
			l5.1-0.1l0.7-3.1c0.3-0.1,0.7-0.1,1.2,0c-0.1,1.2-0.1,2.5-0.1,4.1c0,1.4,0,2.8,0.1,4.1c-0.4,0.1-0.8,0.1-1.1,0L48,34.3l-5.1-0.1
			v11.3l2.9,0.3c0.1,0.3,0.1,0.7,0,1.2C44.4,47,42.9,47,41.3,47c-1.2,0-2.8,0-4.5,0.1c-0.1-0.4-0.1-0.8,0-1.2l2.6-0.4
			C39.4,44.7,39.5,43.4,39.5,41.7z"/>
	</g>
</g>
<g class="st2">
	<path class="st3" d="M132.6-221.7c0,2.1-1.8,3.9-3.9,3.9H75.1c-2.1,0-3.9-1.8-3.9-3.9v-55.7c0-2.1,1.8-3.9,3.9-3.9h53.6
		c2.1,0,3.9,1.8,3.9,3.9V-221.7z"/>
	<path class="st4" d="M131.9-222.1c0,2.2-1.8,3.6-3.6,3.6H75.5c-1.8,0-3.6-1.4-3.6-3.6v-55c0-1.8,1.8-3.6,3.6-3.6h52.9
		c1.8,0,3.6,1.8,3.6,3.6V-222.1z"/>
	<path class="st5" d="M131-222.1v-55c0-1.3-1.4-2.7-2.7-2.7H75.5c-1.3,0-2.7,1.4-2.7,2.7v55c0,1.5,1.2,2.7,2.7,2.7h52.9
		C129.8-219.4,131-220.6,131-222.1z"/>
	<g class="st6">
		<path class="st1" d="M100.5-242L100.5-242c0.3-0.9,0.8-2.6,1.6-5.3l4.4-14l-2.6-0.3v-1.2c1.2,0.1,2.3,0.1,3.4,0.1
			c0.9,0,2.1,0,3.4-0.1v1.1l-2.1,0.4c-0.3,0.5-0.8,1.5-1.3,2.8l-7.2,22h-0.8l-6.1-17.8l-6.7,17.8l-0.9,0l-8.2-24.8l-2.6-0.3
			c-0.1-0.3-0.1-0.7,0-1.2c1.2,0.1,2.7,0.1,4.5,0.1c1.7,0,3.3,0,4.6-0.1c0.1,0.4,0.1,0.8,0,1.1l-2.6,0.4l4.2,14.1
			c0.5,1.9,1,3.7,1.4,5.4H87c0.4-1.4,1-3.2,1.8-5.4l3.5-9.7l-1.5-4.5l-2.6-0.3c-0.1-0.3-0.1-0.7,0-1.2c1.2,0.1,2.6,0.1,4.4,0.1
			c1.6,0,3.1,0,4.5-0.1c0.1,0.4,0.1,0.8,0,1.1l-2.6,0.4l4.5,13.8C99.7-245.1,100.2-243.3,100.5-242z"/>
		<path class="st1" d="M113-242.6v-18.7l-2.6-0.3c-0.1-0.4-0.1-0.7,0-1.1l4.4,0.1h12.8l0,7.4c-0.5,0.1-0.9,0.1-1.2,0l-1.5-5.8h-8.6
			v9.4l5.1-0.1l0.7-3.1c0.3-0.1,0.7-0.1,1.2,0c-0.1,1.2-0.1,2.5-0.1,4.1c0,1.4,0,2.8,0.1,4.1c-0.4,0.1-0.8,0.1-1.1,0l-0.7-3.3
			l-5.1-0.1v11.3l2.9,0.3c0.1,0.3,0.1,0.7,0,1.2c-1.3-0.1-2.8-0.1-4.5-0.1c-1.2,0-2.8,0-4.5,0.1c-0.1-0.4-0.1-0.8,0-1.2l2.6-0.4
			C112.9-239.6,113-240.9,113-242.6z"/>
	</g>
</g>
</svg>
