<?xml version="1.0" encoding="utf-8"?><!DOCTYPE svg PUBLIC "-//W3C//DTD SVG 1.1//EN" "http://www.w3.org/Graphics/SVG/1.1/DTD/svg11.dtd"><svg version="1.1" id="Layer_1" xmlns="http://www.w3.org/2000/svg" xmlns:xlink="http://www.w3.org/1999/xlink" x="0px" y="0px" width="127.997px" height="102.091px" viewBox="0 0 127.997 102.091" enable-background="new 0 0 127.997 102.091" xml:space="preserve"><rect x="3.759" y="3.675" fill="#FFFFFF" width="120.333" height="71"/><g><path d="M64.159,0.011c19.408,0,38.817-0.004,58.225,0.003c4.409,0.001,5.609,1.206,5.61,5.599c0.003,22.907,0.003,45.814,0,68.721c-0.001,4.508-1.186,5.668-5.801,5.669c-14.411,0.005-28.822,0.061-43.231-0.053c-2.523-0.02-3.31,0.798-2.835,3.15c0.115,0.567,0.166,1.163,0.138,1.741c-0.317,6.64,2.42,11.358,8.645,13.961c0.974,0.407,2.212,0.993,1.85,2.306c-0.388,1.409-1.811,0.887-2.804,0.89c-13.328,0.033-26.655,0.033-39.983-0.001c-0.983-0.003-2.419,0.528-2.75-0.949c-0.292-1.307,1-1.749,1.905-2.307c1.274-0.785,2.553-1.563,3.827-2.349c2.574-1.59,4.086-3.812,4.277-6.907c0.144-2.326,0.347-4.655,0.676-6.962c0.29-2.034-0.492-2.563-2.458-2.553c-13.661,0.073-27.322,0.041-40.983,0.041c-1.499,0-3.003,0.06-4.497-0.038c-2.38-0.156-3.955-1.809-3.957-4.211C-0.004,51.94-0.006,28.117,0.015,4.294C0.018,1.466,1.694,0.025,4.934,0.02C19.927-0.004,34.921,0.003,49.915,0C54.663,0,59.411,0,64.159,0C64.159,0.004,64.159,0.008,64.159,0.011z M63.987,6.021c0-0.005,0-0.01,0-0.015c-18.41,0-36.821,0.022-55.231-0.032C6.848,5.969,5.937,6.27,5.946,8.521c0.082,20.326,0.073,40.653,0.008,60.979c-0.006,1.983,0.588,2.549,2.557,2.547c36.988-0.052,73.975-0.052,110.963-0.002c1.959,0.003,2.569-0.545,2.562-2.539c-0.067-20.243-0.074-40.487,0.004-60.729c0.008-2.204-0.623-2.814-2.822-2.804C100.808,6.058,82.397,6.021,63.987,6.021z"/></g><circle cx="63.998" cy="39.508" r="13.5"/></svg>