<?xml version="1.0" encoding="utf-8"?><!DOCTYPE svg PUBLIC "-//W3C//DTD SVG 1.1//EN" "http://www.w3.org/Graphics/SVG/1.1/DTD/svg11.dtd"><svg version="1.1" id="Layer_1" xmlns="http://www.w3.org/2000/svg" xmlns:xlink="http://www.w3.org/1999/xlink" x="0px" y="0px" width="42.211px" height="42.756px" viewBox="0 0 42.211 42.756" enable-background="new 0 0 42.211 42.756" xml:space="preserve"><g><path fill="#343635" d="M12.534,27.643c0,0.027-0.002,0.053-0.002,0.08c0,6.034,3.511,11.235,8.574,13.628c-1.904,0.9-4.026,1.406-6.266,1.406C6.644,42.756,0,36.025,0,27.722c0-4.851,2.27-9.163,5.791-11.912C6.04,20.771,8.665,25.094,12.534,27.643z"/><path fill="#919291" d="M42.211,27.723c0,8.303-6.644,15.034-14.84,15.034c-2.24,0-4.362-0.506-6.266-1.406c5.063-2.393,8.574-7.594,8.574-13.628c0-0.261-0.007-0.519-0.02-0.777c3.501-2.734,5.764-7.014,5.788-11.832C39.518,17.794,42.211,22.438,42.211,27.723z"/><path fill="#080808" d="M12.532,27.723c0-0.027,0.002-0.053,0.002-0.08c2.325,1.532,5.097,2.425,8.077,2.425c3.407,0,6.544-1.167,9.049-3.122c0.014,0.257,0.02,0.516,0.02,0.777c0,6.034-3.511,11.235-8.574,13.628C16.042,38.957,12.532,33.756,12.532,27.723z"/><path fill="#D5D4D4" d="M21.105,14.094c-1.904-0.9-4.026-1.406-6.266-1.406c-3.407,0-6.544,1.166-9.049,3.122c-0.013-0.257-0.02-0.516-0.02-0.776C5.771,6.731,12.415,0,20.611,0c8.197,0,14.84,6.731,14.84,15.034c0,0.027-0.002,0.053-0.002,0.079c-2.325-1.532-5.097-2.425-8.078-2.425C25.132,12.688,23.009,13.194,21.105,14.094z"/><path fill="#727374" d="M21.105,14.094c-5.041,2.383-8.542,7.549-8.572,13.549c-3.869-2.549-6.494-6.872-6.743-11.832c2.505-1.956,5.642-3.122,9.049-3.122C17.079,12.688,19.202,13.194,21.105,14.094z"/><path fill="#B1B0B0" d="M29.66,26.946c-0.286-5.702-3.709-10.562-8.555-12.852c1.904-0.9,4.026-1.406,6.266-1.406c2.98,0,5.753,0.893,8.077,2.425C35.423,19.932,33.161,24.212,29.66,26.946z"/><path fill="#FFFFFF" d="M12.534,27.643c0.03-6,3.53-11.166,8.572-13.549c4.845,2.29,8.267,7.15,8.555,12.852c-2.505,1.955-5.642,3.122-9.049,3.122C17.631,30.068,14.858,29.175,12.534,27.643z"/></g></svg>