<?xml version="1.0" encoding="utf-8"?><!DOCTYPE svg PUBLIC "-//W3C//DTD SVG 1.1//EN" "http://www.w3.org/Graphics/SVG/1.1/DTD/svg11.dtd"><svg version="1.1" id="Layer_1" xmlns="http://www.w3.org/2000/svg" xmlns:xlink="http://www.w3.org/1999/xlink" x="0px" y="0px" width="37.75px" height="27.671px" viewBox="0 0 37.75 27.671" enable-background="new 0 0 37.75 27.671" xml:space="preserve"><g><g><path fill="#212627" d="M0.025,26.347l7.9-25.893C8.025,0.151,8.228,0,8.53,0h5.216c0.302,0,0.504,0.151,0.605,0.454l7.824,25.742c0.05,0.151,0.076,0.252,0.076,0.303c0,0.404-0.202,0.604-0.604,0.604h-4.726c-0.278,0-0.466-0.151-0.566-0.453l-1.324-4.649H7.245L5.922,26.65c-0.101,0.301-0.29,0.453-0.566,0.453H0.63C0.126,27.103-0.076,26.852,0.025,26.347z M8.454,16.973h5.368l-2.721-9.526L8.454,16.973z M22.403,21.168c0.1-2.116,0.768-3.728,2.004-4.838c1.159-1.032,2.564-1.549,4.215-1.549c1.65,0,3.017,0.442,4.101,1.324v-1.21c0-1.865-0.958-2.797-2.873-2.797c-1.487,0-2.835,0.642-4.044,1.928c-0.454,0.353-0.782,0.303-0.983-0.151l-1.55-2.57c-0.101-0.303-0.05-0.554,0.151-0.757c0.932-0.931,1.99-1.612,3.175-2.04c1.436-0.606,3.075-0.833,4.914-0.681s3.276,0.719,4.309,1.702c1.285,1.133,1.928,2.759,1.928,4.875V26.65c0,0.402-0.202,0.604-0.605,0.604h-3.742c-0.403,0-0.63-0.202-0.681-0.604v-0.379c-1.185,0.932-2.557,1.399-4.12,1.399c-1.689-0.052-3.087-0.618-4.196-1.702C23.121,24.76,22.453,23.159,22.403,21.168z M27.431,21.244c0,0.757,0.214,1.399,0.642,1.928c0.73,0.606,1.588,0.82,2.571,0.644s1.675-0.606,2.079-1.286v-2.608c-0.327-0.63-0.794-1.021-1.399-1.172c-1.436-0.503-2.52-0.327-3.251,0.529C27.644,19.859,27.431,20.513,27.431,21.244z"/></g></g></svg>