<?xml version="1.0" encoding="utf-8"?><!DOCTYPE svg PUBLIC "-//W3C//DTD SVG 1.1//EN" "http://www.w3.org/Graphics/SVG/1.1/DTD/svg11.dtd"><svg version="1.1" id="Layer_1" xmlns="http://www.w3.org/2000/svg" xmlns:xlink="http://www.w3.org/1999/xlink" x="0px" y="0px" width="128.132px" height="72.07px" viewBox="0 0 128.132 72.07" enable-background="new 0 0 128.132 72.07" xml:space="preserve"><path d="M64.124,72.043c-16.908-0.001-33.815-0.054-50.723,0.027c-6.22,0.03-10.515-2.619-12.767-8.403C0.201,62.553,0.102,61.25,0.1,60.034C0.066,44.209,0.237,28.382,0.001,12.56C-0.098,5.892,5.85-0.06,12.427,0c13.575,0.124,27.152,0.033,40.728,0.033c20.572,0,41.145,0.034,61.717-0.016c6.104-0.015,10.356,2.596,12.554,8.312c0.431,1.12,0.602,2.405,0.605,3.614c0.039,15.991-0.116,31.985,0.101,47.973c0.079,5.826-5.536,12.199-12.035,12.151c-13.492-0.1-26.985-0.026-40.478-0.023C71.787,72.045,67.956,72.044,64.124,72.043z M64.056,8.045c-16.912,0-33.825-0.005-50.737,0.004c-3.888,0.002-5.245,1.357-5.247,5.242c-0.009,15.163-0.01,30.325,0,45.488c0.003,3.833,1.427,5.258,5.263,5.259c33.825,0.007,67.649,0.007,101.474,0c3.851-0.001,5.25-1.403,5.252-5.26c0.007-15.079,0.004-30.159-0.009-45.238c-0.003-4.206-1.3-5.492-5.509-5.493C97.714,8.041,80.885,8.044,64.056,8.045z"/><path fill="#FFFFFF" d="M64.056,8.045c16.829,0,33.658-0.004,50.487,0.002c4.209,0.001,5.506,1.287,5.509,5.493c0.012,15.079,0.016,30.159,0.009,45.238c-0.002,3.856-1.401,5.259-5.252,5.26c-33.825,0.007-67.649,0.007-101.474,0c-3.836-0.001-5.261-1.426-5.263-5.259c-0.01-15.163-0.01-30.325,0-45.488c0.002-3.885,1.359-5.24,5.247-5.242C30.232,8.04,47.144,8.045,64.056,8.045z M64.056,56.043c7.987,0,15.975,0.004,23.962-0.002c3.736-0.003,4.043-0.311,4.048-3.94c0.005-3.748-0.27-4.055-3.921-4.056c-16.141-0.007-32.282-0.005-48.423,0.004c-3.37,0.002-3.658,0.341-3.652,4.057c0.006,3.627,0.278,3.926,3.774,3.93C47.915,56.046,55.985,56.04,64.056,56.043z M104.23,56.043c3.529-0.012,3.843-0.349,3.837-4.114c-0.006-3.595-0.324-3.901-4.047-3.894c-3.69,0.007-3.972,0.309-3.961,4.239C100.068,55.752,100.404,56.056,104.23,56.043z M23.932,56.043c3.786,0.008,4.121-0.302,4.134-3.817c0.015-3.842-0.288-4.18-3.749-4.192c-3.947-0.013-4.25,0.268-4.259,3.941C20.049,55.714,20.356,56.035,23.932,56.043z M100.065,35.874c0.002,3.899,0.265,4.172,4.023,4.169c3.65-0.003,3.975-0.327,3.978-3.976c0.003-3.76-0.27-4.023-4.168-4.025C100.389,32.039,100.063,32.366,100.065,35.874z M88.054,32.044c-3.695,0-3.984,0.286-3.986,3.948c-0.003,3.79,0.264,4.051,4.14,4.053c3.516,0.002,3.86-0.339,3.861-3.822C92.069,32.318,91.805,32.043,88.054,32.044z M68.067,35.823c-0.014,3.89,0.27,4.214,3.712,4.229c3.939,0.017,4.286-0.3,4.296-3.924c0.011-3.766-0.281-4.074-3.857-4.084C68.383,32.034,68.08,32.309,68.067,35.823z M55.871,40.04c3.84,0.014,4.179-0.291,4.193-3.757c0.015-3.93-0.234-4.216-3.688-4.235c-3.956-0.022-4.286,0.256-4.306,3.623C52.046,39.77,52.27,40.027,55.871,40.04z M44.066,36.099c0.005-3.736-0.305-4.061-3.877-4.065c-3.847-0.004-4.131,0.276-4.131,4.071c-0.001,3.624,0.319,3.939,4.002,3.938C43.734,40.042,44.062,39.72,44.066,36.099z M28.066,36.233c0.015-3.896-0.255-4.179-4.002-4.191c-3.657-0.011-3.992,0.295-4,3.667c-0.009,4.052,0.234,4.326,3.858,4.334C27.715,40.051,28.053,39.741,28.066,36.233z M104.014,24.044c3.68,0.013,4.042-0.311,4.055-3.628c0.016-4.065-0.243-4.361-3.822-4.372c-3.858-0.012-4.165,0.264-4.18,3.754C100.051,23.749,100.313,24.031,104.014,24.044z M84.067,19.823c-0.014,3.89,0.27,4.214,3.712,4.229c3.939,0.017,4.286-0.3,4.296-3.924c0.011-3.766-0.281-4.074-3.857-4.084C84.383,16.034,84.08,16.309,84.067,19.823z M76.063,19.875c-0.011-3.575-0.286-3.832-4.093-3.829c-3.626,0.003-3.904,0.29-3.9,4.03c0.004,3.747,0.248,3.977,4.207,3.964C75.767,24.029,76.075,23.69,76.063,19.875z M56.187,16.035c-3.847-0.004-4.128,0.274-4.129,4.073c0,3.617,0.324,3.936,4.006,3.935c3.671-0.001,3.998-0.324,4.002-3.947C60.071,16.363,59.761,16.038,56.187,16.035z M40.049,16.042c-3.645-0.01-3.977,0.297-3.984,3.682c-0.008,4.018,0.256,4.312,3.875,4.319c3.779,0.007,4.114-0.304,4.127-3.826C44.08,16.332,43.812,16.053,40.049,16.042z M24.253,16.044c-3.861-0.013-4.171,0.264-4.185,3.748c-0.017,3.952,0.25,4.239,3.941,4.253c3.678,0.013,4.047-0.316,4.06-3.622C28.085,16.355,27.824,16.056,24.253,16.044z"/><path d="M64.056,56.042c-8.071-0.002-16.141,0.005-24.212-0.005c-3.497-0.004-3.768-0.302-3.774-3.93c-0.006-3.717,0.282-4.056,3.652-4.057c16.141-0.008,32.282-0.011,48.423-0.004c3.65,0.002,3.926,0.308,3.921,4.056c-0.005,3.629-0.312,3.937-4.048,3.94C80.031,56.047,72.043,56.043,64.056,56.042z"/><path d="M104.23,56.043c-3.825,0.013-4.162-0.291-4.172-3.769c-0.012-3.929,0.271-4.231,3.961-4.239c3.723-0.007,4.041,0.298,4.047,3.894C108.073,55.694,107.759,56.031,104.23,56.043z"/><path d="M23.932,56.043c-3.576-0.007-3.882-0.329-3.874-4.067c0.009-3.674,0.312-3.954,4.259-3.941c3.462,0.011,3.764,0.349,3.749,4.192C28.053,55.741,27.718,56.051,23.932,56.043z"/><path d="M100.065,35.874c-0.002-3.508,0.324-3.834,3.834-3.832c3.898,0.002,4.17,0.265,4.168,4.025c-0.003,3.649-0.328,3.974-3.978,3.976C100.33,40.046,100.067,39.773,100.065,35.874z"/><path d="M88.054,32.044c3.752,0,4.015,0.274,4.015,4.179c0,3.483-0.345,3.824-3.861,3.822c-3.877-0.002-4.143-0.263-4.14-4.053C84.07,32.33,84.358,32.044,88.054,32.044z"/><path d="M68.067,35.823c0.013-3.514,0.316-3.789,4.151-3.779c3.577,0.01,3.868,0.318,3.857,4.084c-0.01,3.625-0.357,3.941-4.296,3.924C68.337,40.037,68.053,39.713,68.067,35.823z"/><path d="M55.871,40.04c-3.601-0.013-3.825-0.27-3.801-4.37c0.02-3.367,0.35-3.645,4.306-3.623c3.454,0.019,3.704,0.305,3.688,4.235C60.05,39.749,59.711,40.053,55.871,40.04z"/><path d="M44.066,36.099c-0.005,3.62-0.332,3.943-4.006,3.944c-3.683,0.001-4.003-0.313-4.002-3.938c0.001-3.795,0.284-4.074,4.131-4.071C43.761,32.038,44.071,32.363,44.066,36.099z"/><path d="M28.066,36.233c-0.014,3.508-0.352,3.819-4.143,3.81c-3.624-0.008-3.868-0.282-3.858-4.334c0.008-3.372,0.342-3.678,4-3.667C27.811,32.054,28.081,32.336,28.066,36.233z"/><path d="M104.014,24.044c-3.701-0.013-3.963-0.295-3.947-4.246c0.014-3.49,0.322-3.767,4.18-3.754c3.579,0.012,3.838,0.307,3.822,4.372C108.056,23.733,107.694,24.057,104.014,24.044z"/><path d="M84.067,19.823c0.013-3.514,0.316-3.789,4.151-3.779c3.577,0.01,3.868,0.318,3.857,4.084c-0.01,3.625-0.357,3.941-4.296,3.924C84.337,24.037,84.053,23.713,84.067,19.823z"/><path d="M76.063,19.875c0.012,3.814-0.296,4.153-3.786,4.165c-3.959,0.013-4.203-0.217-4.207-3.964c-0.004-3.74,0.273-4.027,3.9-4.03C75.778,16.044,76.052,16.301,76.063,19.875z"/><path d="M56.187,16.035c3.574,0.003,3.884,0.328,3.88,4.062c-0.005,3.623-0.332,3.946-4.002,3.947c-3.681,0.001-4.006-0.318-4.006-3.935C52.059,16.309,52.34,16.031,56.187,16.035z"/><path d="M40.049,16.042c3.763,0.011,4.031,0.29,4.018,4.175c-0.012,3.522-0.348,3.833-4.127,3.826c-3.619-0.007-3.883-0.301-3.875-4.319C36.071,16.339,36.404,16.032,40.049,16.042z"/><path d="M24.253,16.044c3.572,0.012,3.833,0.311,3.816,4.379c-0.013,3.305-0.383,3.635-4.06,3.622c-3.691-0.013-3.958-0.301-3.941-4.253C20.082,16.308,20.391,16.031,24.253,16.044z"/></svg>