<?xml version="1.0" encoding="utf-8"?><!DOCTYPE svg PUBLIC "-//W3C//DTD SVG 1.1//EN" "http://www.w3.org/Graphics/SVG/1.1/DTD/svg11.dtd"><svg version="1.1" id="Layer_1" xmlns="http://www.w3.org/2000/svg" xmlns:xlink="http://www.w3.org/1999/xlink" x="0px" y="0px" width="56.742px" height="37.291px" viewBox="0 0 56.742 37.291" enable-background="new 0 0 56.742 37.291" xml:space="preserve"><g><line fill="none" stroke="#212627" stroke-width="4" stroke-miterlimit="10" x1="1.775" y1="35.291" x2="53.901" y2="35.291"/><path fill="#212627" d="M44.133,25.219l-12.61-0.002c-6.963,0.002-12.609-5.644-12.608-12.608c-0.002-1.095,0.186-2.14,0.444-3.152l5.86,0c0.28-0.001,0.532,0.09,0.791,0.16c-0.49,0.895-0.791,1.904-0.791,2.992c-0.001,3.478,2.829,6.304,6.304,6.304l12.608,0c3.479,0,6.307-2.828,6.305-6.305c0.001-3.475-2.827-6.303-6.304-6.304l-4.486,0.002C38.536,3.779,36.766,1.628,34.578,0l9.554,0c6.964,0.001,12.609,5.645,12.61,12.61C56.741,19.573,51.096,25.218,44.133,25.219z M17.096,18.915l-4.488,0.001c-3.475-0.001-6.304-2.829-6.305-6.305c0.001-3.478,2.829-6.306,6.306-6.306l12.609,0.001c3.479,0,6.305,2.827,6.304,6.304c0,1.086-0.301,2.095-0.788,2.991c0.261,0.069,0.509,0.161,0.788,0.161l5.859,0.001c0.264-1.012,0.446-2.057,0.445-3.153C37.829,5.647,32.182,0,25.218,0L12.61,0C5.645,0.002,0.001,5.646,0,12.61c0.001,6.963,5.647,12.608,12.609,12.609l9.556,0C19.975,23.592,18.207,21.439,17.096,18.915z"/></g></svg>