<?xml version="1.0" encoding="utf-8"?>
<!-- Generator: Adobe Illustrator 20.1.0, SVG Export Plug-In . SVG Version: 6.00 Build 0)  -->
<svg version="1.1" id="Слой_1" xmlns="http://www.w3.org/2000/svg" xmlns:xlink="http://www.w3.org/1999/xlink" x="0px" y="0px"
	 viewBox="0 0 100 60" style="enable-background:new 0 0 100 60;" xml:space="preserve">
<g>
	<path d="M1.9,36L1.9,36C0.9,36,0,35.1,0,34v-8C0,24.9,0.9,24,1.9,24h0C3,24,3.9,24.9,3.9,26v8C3.9,35.1,3,36,1.9,36z"/>
	<path d="M34.1,36L34.1,36c-1.1,0-1.9-0.9-1.9-1.9v-8c0-1.1,0.9-1.9,1.9-1.9h0c1.1,0,1.9,0.9,1.9,1.9v8C36,35.1,35.2,36,34.1,36z"/>
	<path d="M98.1,36L98.1,36c-1.1,0-1.9-0.9-1.9-1.9v-8c0-1.1,0.9-1.9,1.9-1.9h0c1.1,0,1.9,0.9,1.9,1.9v8C100,35.1,99.1,36,98.1,36z"
		/>
	<path d="M10,42.1L10,42.1c-1.1,0-1.9-0.9-1.9-1.9V20c0-1.1,0.9-1.9,1.9-1.9h0c1.1,0,1.9,0.9,1.9,1.9v20.1
		C11.9,41.2,11,42.1,10,42.1z"/>
	<path d="M42.1,42.1L42.1,42.1c-1.1,0-1.9-0.9-1.9-1.9V20c0-1.1,0.9-1.9,1.9-1.9h0c1.1,0,1.9,0.9,1.9,1.9v20.1
		C44.1,41.2,43.2,42.1,42.1,42.1z"/>
	<path d="M90,42.1L90,42.1c-1.1,0-1.9-0.9-1.9-1.9V20c0-1.1,0.9-1.9,1.9-1.9h0c1.1,0,1.9,0.9,1.9,1.9v20.1
		C92,41.2,91.1,42.1,90,42.1z"/>
	<path d="M73.9,42.1L73.9,42.1c-1.1,0-1.9-0.9-1.9-1.9V20c0-1.1,0.9-1.9,1.9-1.9l0,0c1.1,0,1.9,0.9,1.9,1.9v20.1
		C75.9,41.2,75,42.1,73.9,42.1z"/>
	<path d="M26.1,42.1L26.1,42.1c-1.1,0-1.9-0.9-1.9-1.9V20c0-1.1,0.9-1.9,1.9-1.9h0c1.1,0,1.9,0.9,1.9,1.9v20.1
		C28,41.2,27.1,42.1,26.1,42.1z"/>
	<path d="M18,49.9L18,49.9c-1.1,0-1.9-0.9-1.9-1.9V12.1c0-1.1,0.9-1.9,1.9-1.9h0c1.1,0,1.9,0.9,1.9,1.9v35.9
		C20,49,19.1,49.9,18,49.9z"/>
	<path d="M50,49.9L50,49.9c-1.1,0-1.9-0.9-1.9-1.9V12.1c0-1.1,0.9-1.9,1.9-1.9h0c1.1,0,1.9,0.9,1.9,1.9v35.9
		C51.9,49,51.1,49.9,50,49.9z"/>
	<path d="M82,49.9L82,49.9c-1.1,0-1.9-0.9-1.9-1.9V12.1c0-1.1,0.9-1.9,1.9-1.9h0c1.1,0,1.9,0.9,1.9,1.9v35.9
		C83.9,49,83,49.9,82,49.9z"/>
	<path d="M65.9,49.9L65.9,49.9c-1.1,0-1.9-0.9-1.9-1.9V12.1c0-1.1,0.9-1.9,1.9-1.9h0c1.1,0,1.9,0.9,1.9,1.9v35.9
		C67.8,49,67,49.9,65.9,49.9z"/>
	<path d="M57.9,60L57.9,60c-1.1,0-1.9-0.9-1.9-1.9V1.9c0-1.1,0.9-1.9,1.9-1.9h0c1.1,0,1.9,0.9,1.9,1.9v56.1
		C59.8,59.1,58.9,60,57.9,60z"/>
</g>
</svg>
