<?xml version="1.0" encoding="utf-8"?><!DOCTYPE svg PUBLIC "-//W3C//DTD SVG 1.1//EN" "http://www.w3.org/Graphics/SVG/1.1/DTD/svg11.dtd"><svg version="1.1" id="Layer_1" xmlns="http://www.w3.org/2000/svg" xmlns:xlink="http://www.w3.org/1999/xlink" x="0px" y="0px" width="49.078px" height="32.943px" viewBox="0 0 49.078 32.943" enable-background="new 0 0 49.078 32.943" xml:space="preserve"><g><path fill="#212627" d="M28.717,8.938h-1.601c-0.141-0.557-0.393-1.218-0.757-1.985c-0.364-0.766-0.771-1.489-1.22-2.171c-0.466-0.712-0.974-1.334-1.525-1.869c-0.551-0.534-1.082-0.84-1.594-0.917c-0.481-0.062-1.086-0.108-1.815-0.14c-0.73-0.03-1.404-0.046-2.025-0.046h-1.349v26.35c0,0.511,0.108,0.979,0.325,1.404c0.216,0.426,0.596,0.755,1.138,0.987c0.278,0.108,0.862,0.255,1.753,0.441s1.583,0.287,2.077,0.302v1.648H6.569v-1.648c0.434-0.031,1.095-0.093,1.986-0.186c0.889-0.093,1.504-0.209,1.845-0.348c0.51-0.201,0.886-0.491,1.126-0.871c0.239-0.379,0.359-0.885,0.359-1.52V1.811H10.54c-0.481,0-1.077,0.012-1.789,0.035C8.04,1.869,7.36,1.919,6.709,1.997C6.199,2.059,5.668,2.364,5.12,2.914c-0.55,0.549-1.057,1.172-1.522,1.869c-0.463,0.697-0.874,1.436-1.23,2.217C2.011,7.781,1.765,8.427,1.625,8.938H0V0h28.717V8.938z"/><path fill="#212627" d="M32.383,20.82l5.877-5.876l2.47-2.471l8.347,8.347l-2.47,2.471l-5.877-5.86l-5.877,5.86L32.383,20.82z"/></g></svg>