<?xml version="1.0" encoding="utf-8"?>
<!-- Generator: Adobe Illustrator 26.0.0, SVG Export Plug-In . SVG Version: 6.00 Build 0)  -->
<svg version="1.1" id="Layer_1" xmlns="http://www.w3.org/2000/svg" xmlns:xlink="http://www.w3.org/1999/xlink" x="0px" y="0px"
	 viewBox="0 0 352.3 61.7" style="enable-background:new 0 0 352.3 61.7;" xml:space="preserve">
<style type="text/css">
	.st0{fill:#B1976B;}
	.st1{fill:#FFFFFF;}
</style>
<g>
	<g>
		<g>
			<g>
				<path class="st0" d="M56.3,39.7c0,1.1,0,2.3,0,3.8V47l-12.2-7.2c0.3,0,0.5,0,0.8-0.1c2.9-0.1,5.9-0.6,9.1-1.3L56.3,39.7z"/>
				<g>
					<path class="st1" d="M25.7,26c-0.4,0.7-0.8,1.3-1.2,1.9c-0.2,0.3-0.4,0.7-0.6,1c-0.2,0.3-0.4,0.6-0.6,0.8
						c-0.1,0.1-0.1,0.2-0.2,0.3c-1.4,1.9-2.5,3-2.9,2.8c0,0,0,0,0,0l0,0l-9.5-5.6l0,0c-0.6-0.4,0.8-4.1,3.2-8.2
						c2.4-4.1,4.9-7.2,5.6-6.8l0,0l9.5,5.6l0,0c0,0,0,0,0,0C29.5,18.2,28.1,21.9,25.7,26z"/>
				</g>
				<g>
					<path class="st1" d="M19.9,11.2l9.2,5.4c1.1,0.6,2.4,0.3,3-0.8v0c0.6-1.1,0.3-2.4-0.8-3l-9.2-5.4c-1.1-0.6-2.4-0.3-3,0.8v0
						C18.5,9.2,18.9,10.6,19.9,11.2z"/>
				</g>
				<g>
					<path class="st1" d="M7.8,32l9.2,5.4c1.1,0.6,2.4,0.3,3-0.8l0,0c0.6-1.1,0.3-2.4-0.8-3L10,28.2C9,27.5,7.6,27.9,7,29l0,0
						C6.4,30,6.7,31.4,7.8,32z"/>
				</g>
				<path class="st0" d="M24.9,47.8H4.4c-2.4,0-4.4,2-4.4,4.4v2.3h29.3v-2.3C29.3,49.8,27.4,47.8,24.9,47.8z"/>
				<path class="st0" d="M24.6,46.8c0-2.5-2-4.5-4.5-4.5H9.3c-2.5,0-4.5,2-4.5,4.5v0L24.6,46.8L24.6,46.8z"/>
			</g>
			<g>
				<g>
					<path class="st0" d="M104.5,13.7c0,0.4-0.3,0.5-0.8,0.5c-0.7,0-2,0.2-3,0.6c-1.6,0.6-3.4,1.7-5.7,3.9c-1.3,1.2-6.3,6.2-9.3,9.2
						c3.5,1.6,6.2,4.1,8.2,6.9c1.4,1.9,2.4,3.8,3.1,5.5c-3.2-4.7-7.2-7.2-11.8-8.4c-3.8-1-7.9-1-12.2-0.5c-0.2,0-0.4,0-0.6,0.1
						c-3.5,0.4-7,1.2-10.5,2c-2.2,0.5-4.4,1-6.5,1.5c-2,0.4-4.1,0.9-6,1.2c-1.8,0.3-3.5,0.5-5.1,0.5c-2,0.2-3.8,0.2-5.6,0
						c-2-0.2-3.9-0.6-5.6-1.2c-3-1-5.5-2.5-7.5-4.5c-0.4-0.4-0.7-0.7-1-1.1c-0.2-0.2-0.4-0.4-0.6-0.7c0.2-0.3,0.4-0.6,0.6-1
						c0.4,0.3,0.8,0.7,1.2,0.9c0,0,0,0,0-0.1c0.1-0.4,0.2-0.9,0.3-1.3c1.4-5.5,4.8-9.5,8.5-11.7c5-3,9.7-3.4,14.1-3.4
						c3.6,0,8.2,0.6,9.3,0.8c1.1,0.2,2.9,0.5,4.1,0.6c0.6,0.1,0.7,0.3,0.7,0.6c0,0.6-0.4,2-0.4,8.6c0,0.8-0.2,1.1-0.6,1.1
						c-0.4,0-0.5-0.3-0.5-0.7c-0.2-1.2-0.4-2.9-1.8-4.4c-1.6-1.7-5.8-4.1-11.7-4.1c-2.9,0-6.7,0.2-10.4,3.3
						c-2.3,1.9-3.9,4.7-4.5,8.8c-0.2,1.2-0.3,2.6-0.3,4c0,0.3,0,0.5,0,0.8c3.2,0.7,6.5,0.7,9.8,0.3c2.2-0.3,4.5-0.7,6.7-1.1
						c8.4-2,16.5-4.4,23.2-5c0-6,0-7.3-0.1-8.8c-0.1-1.8-0.5-2.6-2.3-3c-0.4-0.1-1.3-0.2-2-0.2c-0.6,0-0.9-0.1-0.9-0.5
						c0-0.4,0.4-0.5,1.2-0.5c2.8,0,6.1,0.2,7.3,0.2s4.6-0.2,6.4-0.2c0.7,0,1.1,0.1,1.1,0.5c0,0.4-0.3,0.5-0.7,0.5
						c-0.5,0-0.8,0.1-1.5,0.2c-1.4,0.3-1.8,1.2-1.9,3c-0.1,1.5-0.1,2.8-0.1,8.8c1.4,0.1,2.7,0.4,4,0.7c2.8-2.9,6.3-6.5,7.2-7.6
						c1.5-1.7,2.6-3,2.6-3.9c0-0.6-0.2-0.9-0.7-1c-0.5-0.1-0.7-0.2-0.7-0.5c0-0.4,0.3-0.5,0.8-0.5c1.1,0,4,0.2,5.4,0.2
						c1.6,0,4.5-0.2,6.1-0.2C104.1,13.2,104.5,13.3,104.5,13.7z"/>
					<path class="st0" d="M24.5,28c-0.2,0.3-0.4,0.7-0.6,1c-1.4-1.7-2.5-3.6-3.3-5.3C21.8,25.4,23.1,26.8,24.5,28z"/>
					<g>
						<path class="st1" d="M21.7,27.4c-0.1-0.2-0.3-0.4-0.4-0.6c0.5,1,1.1,2.1,1.8,3.2c0.1-0.1,0.1-0.2,0.2-0.3
							C22.7,29,22.1,28.2,21.7,27.4z"/>
					</g>
					<path class="st0" d="M70.7,49.5c0,0.6-0.2,1.2-0.5,1.7c-0.1,0.2-0.3,0.5-0.5,0.7c-0.4,0.4-1,0.7-1.5,0.9
						c-0.9,0.3-1.9,0.1-2.8-0.4l-2.6-1.6c0.1-0.2,0.2-0.6,0.2-1.5v-6.1l5.9,3.2C70,47,70.7,48.2,70.7,49.5z"/>
					<g>
						<path class="st1" d="M25.3,33.1c0,14.5,11.4,20.5,24.2,20.5c4.1,0,9.2-0.6,12.6-2.4c0.3-0.2,0.4-0.3,0.5-0.4
							c0.1-0.2,0.2-0.6,0.2-1.5v-6.1c0-2.5,0-4.5,0.1-6c0-0.3,0-0.6,0.1-0.9c3.1-0.7,6.2-1.3,9.3-1.8v3c0,4.8,0,9-0.3,11.2
							c-0.2,1.5-0.5,2.7-1.5,2.9c-0.2,0.1-0.5,0.1-0.9,0.1c-0.4,0.4-1,0.7-1.5,0.9c0.2,0.1,0.4,0.1,0.7,0.1c2.1,0,5.4-0.2,6.6-0.2
							c1.3,0,4.6,0.2,7.6,0.2c0.6,0,1-0.2,1-0.5c0-0.3-0.3-0.4-0.7-0.4c-0.7,0-1.8-0.1-2.6-0.2c-1.3-0.2-1.8-1.4-1.9-2.8
							c-0.2-2.3-0.2-6.4-0.2-11.2v-3.5c0.4,0,0.9,0,1.3,0c2.3,2.8,11.2,13.2,13.3,15.1c2.3,2,3.7,3.1,6.5,3.4c1.1,0.1,2,0.1,3.6,0.1
							h4.6c1,0,1.3-0.2,1.3-0.5c0-0.3-0.3-0.4-0.7-0.4c-0.6,0-1.7-0.2-3.3-0.8c-2.8-1.1-5.2-3.5-7.5-5.7c-1.2-1.2-5.3-5.5-8.9-9.4
							c3.3,1.4,6.3,3.8,8.7,7.4c-0.3-0.6-0.6-1.3-1-2c-2.7-4-6.1-6.5-10-7.8c-4.2-1.5-9-1.7-14-1.1c-0.1,0-0.3,0-0.4,0
							c-1.8,0.2-3.6,0.5-5.4,0.8c-3.7,0.7-7.3,1.6-10.9,2.4c-1.7,0.4-3.4,0.7-5,1c-2.5,0.5-4.9,0.8-7.1,0.9c-1,0.1-2,0.1-3,0.1
							c-2.8,0-5.4-0.4-7.7-1.1c-3.1-1-5.8-2.5-7.9-4.6 M56.3,48.4c0,0.9-0.2,1.6-1,1.9c-1.3,0.6-3.1,0.6-4.5,0.6
							c-8.5,0-14.7-5-17.1-12.4c3,1,6.5,1.4,10.4,1.2c0.3,0,0.5,0,0.8-0.1c2.9-0.1,5.9-0.6,9.1-1.3c0.8-0.2,1.5-0.3,2.3-0.5
							c0,0.5,0,1.1,0,1.7c0,1.1,0,2.3,0,3.8V48.4z"/>
					</g>
				</g>
			</g>
		</g>
		<rect x="118.2" class="st0" width="1.5" height="61.7"/>
	</g>
	<g>
		<path class="st1" d="M140.7,10.7v2.6h-4.4v12.1h-3.1V13.3h-4.4v-2.6H140.7z"/>
		<path class="st1" d="M142.5,25.5V10.7h3.1v5.6h5.7v-5.6h3.1v14.7h-3.1v-6.6h-5.7v6.6H142.5z"/>
		<path class="st1" d="M168.1,13.3h-7.8v3.1h7.1V19h-7.1v3.8h8.1v2.6h-11.2V10.7h10.8V13.3z"/>
		<path class="st1" d="M176.6,10.7h3.1v12.1h7.3v2.6h-10.4V10.7z"/>
		<path class="st1" d="M193.3,10.7h3.5l5.2,14.7h-3.3l-1-3h-5.4l-1,3H188L193.3,10.7z M193.1,19.9h3.8l-1.9-5.8L193.1,19.9z"/>
		<path class="st1" d="M204.7,10.7l1.9,8.4l0.4,2.3l0.4-2.3l1.7-8.5h3.2l1.7,8.4l0.4,2.3l0.5-2.3l2-8.5h3.1L216,25.5h-2.9l-1.8-8.6
			l-0.5-2.8l-0.5,2.8l-1.8,8.6h-2.9l-4.2-14.7H204.7z"/>
		<path class="st1" d="M227.7,10.8h10.5v2.6h-7.4v3.4h6.5v2.6h-6.5v6.2h-3.1V10.8z"/>
		<path class="st1" d="M243,25.5h-3.1V10.7h3.1V25.5z"/>
		<path class="st1" d="M255.3,11.1c0.5,0.2,1,0.6,1.4,1c0.3,0.4,0.6,0.8,0.7,1.2c0.2,0.5,0.3,1,0.3,1.5c0,0.7-0.2,1.4-0.5,2.1
			c-0.4,0.7-0.9,1.2-1.7,1.4c0.7,0.3,1.2,0.7,1.4,1.2c0.3,0.5,0.4,1.3,0.4,2.3v1c0,0.7,0,1.1,0.1,1.4c0.1,0.4,0.3,0.7,0.6,0.8v0.4
			h-3.4c-0.1-0.3-0.2-0.6-0.2-0.8c-0.1-0.4-0.1-0.8-0.1-1.3l0-1.4c0-0.9-0.2-1.6-0.5-1.9c-0.3-0.3-0.9-0.5-1.8-0.5h-3v5.8h-3V10.7h7
			C254,10.8,254.8,10.9,255.3,11.1z M249,13.3v4h3.3c0.7,0,1.2-0.1,1.5-0.2c0.6-0.3,0.9-0.8,0.9-1.7c0-0.9-0.3-1.5-0.8-1.8
			c-0.3-0.2-0.8-0.3-1.4-0.3H249z"/>
		<path class="st1" d="M270.4,10.7h4.4v14.7H272v-10c0-0.3,0-0.7,0-1.2c0-0.5,0-0.9,0-1.2l-2.8,12.4h-3l-2.8-12.4c0,0.3,0,0.7,0,1.2
			c0,0.5,0,0.9,0,1.2v10h-2.9V10.7h4.5l2.7,11.6L270.4,10.7z"/>
		<path class="st1" d="M294.7,24.1c-1.1,1.1-2.7,1.7-4.8,1.7c-2.1,0-3.7-0.6-4.8-1.7c-1.5-1.4-2.2-3.4-2.2-6.1
			c0-2.7,0.7-4.7,2.2-6.1c1.1-1.1,2.7-1.7,4.8-1.7c2.1,0,3.7,0.6,4.8,1.7c1.5,1.4,2.2,3.4,2.2,6.1C296.9,20.7,296.2,22.7,294.7,24.1
			z M292.8,21.9c0.7-0.9,1.1-2.2,1.1-3.8c0-1.7-0.4-2.9-1.1-3.8c-0.7-0.9-1.7-1.4-2.9-1.4c-1.2,0-2.2,0.4-2.9,1.3
			c-0.7,0.9-1.1,2.2-1.1,3.8c0,1.7,0.4,2.9,1.1,3.8c0.7,0.9,1.7,1.3,2.9,1.3C291.1,23.3,292.1,22.8,292.8,21.9z"/>
		<path class="st1" d="M299.3,10.8h10.5v2.6h-7.4v3.4h6.5v2.6h-6.5v6.2h-3.1V10.8z"/>
		<path class="st1" d="M141.4,39.5c-0.3-1.1-0.9-1.9-1.9-2.4c-0.6-0.2-1.2-0.4-1.9-0.4c-1.3,0-2.4,0.5-3.3,1.5
			c-0.9,1-1.3,2.5-1.3,4.6c0,2,0.5,3.5,1.4,4.3c0.9,0.9,2,1.3,3.2,1.3c1.2,0,2.1-0.3,2.9-1c0.7-0.7,1.2-1.6,1.4-2.6H138V42h6.9v9
			h-2.3l-0.4-2.1c-0.7,0.8-1.3,1.3-1.8,1.7c-0.9,0.6-2.1,0.8-3.4,0.8c-2.2,0-4-0.8-5.4-2.3c-1.5-1.5-2.2-3.6-2.2-6.3
			c0-2.7,0.7-4.9,2.2-6.5c1.5-1.6,3.5-2.4,5.9-2.4c2.1,0,3.8,0.5,5.1,1.6c1.3,1.1,2,2.4,2.2,4H141.4z"/>
		<path class="st1" d="M148.2,34.3h3.5v13.7h8.3v3h-11.8V34.3z"/>
		<path class="st1" d="M174.7,37.2h-8.8v3.5h8.1v2.9h-8.1v4.3h9.2v3h-12.6V34.3h12.2V37.2z"/>
		<path class="st1" d="M177.8,34.3h3.7l6.6,11.6V34.3h3.2v16.7h-3.5L181,39.1v11.8h-3.2V34.3z"/>
		<path class="st1" d="M194.5,34.3h3.7l6.6,11.6V34.3h3.2v16.7h-3.5l-6.8-11.8v11.8h-3.2V34.3z"/>
		<path class="st1" d="M217.8,34.3h3.4v6.9l6.4-6.9h4.5l-6.8,6.9l7.2,9.8h-4.5l-5.1-7.3l-1.7,1.7v5.6h-3.4V34.3z"/>
		<path class="st1" d="M239.3,34.3h3.9l5.9,16.7h-3.8l-1.1-3.4h-6.1l-1.1,3.4h-3.6L239.3,34.3z M239.1,44.6h4.3l-2.1-6.6L239.1,44.6
			z"/>
		<path class="st1" d="M252.3,34.3l2.2,9.6l0.5,2.7l0.5-2.6l1.9-9.6h3.7l2,9.6l0.5,2.7l0.5-2.6l2.2-9.7h3.5l-4.7,16.7h-3.3l-2-9.8
			l-0.6-3.2l-0.6,3.2l-2,9.8h-3.2l-4.7-16.7H252.3z"/>
		<path class="st1" d="M275.4,34.3h3.9l5.9,16.7h-3.8l-1.1-3.4h-6.1l-1.1,3.4h-3.6L275.4,34.3z M275.1,44.6h4.3l-2.1-6.6L275.1,44.6
			z"/>
		<path class="st1" d="M287.3,50.9V34.3h3.5v6.4h6.5v-6.4h3.5v16.7h-3.5v-7.4h-6.5v7.4H287.3z"/>
		<path class="st1" d="M308.8,34.3h3.9l5.9,16.7h-3.8l-1.1-3.4h-6.1l-1.1,3.4h-3.6L308.8,34.3z M308.6,44.6h4.3l-2.1-6.6L308.6,44.6
			z"/>
		<path class="st1" d="M331.5,34.7c0.6,0.3,1.1,0.7,1.6,1.2c0.4,0.4,0.6,0.9,0.8,1.4c0.2,0.5,0.3,1.1,0.3,1.8c0,0.8-0.2,1.6-0.6,2.3
			c-0.4,0.8-1.1,1.3-2,1.6c0.8,0.3,1.3,0.7,1.6,1.3c0.3,0.6,0.5,1.4,0.5,2.6V48c0,0.8,0,1.3,0.1,1.6c0.1,0.4,0.3,0.7,0.6,1v0.4h-3.8
			c-0.1-0.4-0.2-0.7-0.2-0.9c-0.1-0.5-0.1-0.9-0.1-1.4l0-1.6c0-1.1-0.2-1.8-0.6-2.1c-0.4-0.4-1-0.5-2-0.5h-3.4v6.5h-3.4V34.3h8
			C330,34.3,330.9,34.4,331.5,34.7z M324.3,37.2v4.5h3.8c0.7,0,1.3-0.1,1.7-0.3c0.7-0.3,1-0.9,1-1.9c0-1-0.3-1.7-1-2
			c-0.4-0.2-0.9-0.3-1.6-0.3H324.3z"/>
		<path class="st1" d="M342.3,34.3h3.9l5.9,16.7h-3.8l-1.1-3.4h-6.1l-1.1,3.4h-3.6L342.3,34.3z M342.1,44.6h4.3l-2.1-6.6L342.1,44.6
			z"/>
	</g>
</g>
</svg>
