<?xml version="1.0" encoding="utf-8"?>
<!-- Generator: Adobe Illustrator 26.0.0, SVG Export Plug-In . SVG Version: 6.00 Build 0)  -->
<svg version="1.1" id="Layer_1" xmlns="http://www.w3.org/2000/svg" xmlns:xlink="http://www.w3.org/1999/xlink" x="0px" y="0px"
	 viewBox="0 0 439 66.9" style="enable-background:new 0 0 439 66.9;" xml:space="preserve">
<style type="text/css">
	.st0{fill:#FEFEFE;}
	.st1{fill:#8F9CBE;}
	.st2{fill-rule:evenodd;clip-rule:evenodd;fill:#FEFEFE;}
	.st3{fill:#234A7E;}
	.st4{fill-rule:evenodd;clip-rule:evenodd;fill:#234A7E;}
	.st5{fill:#96989A;}
</style>
<rect x="11.5" y="0.1" class="st0" width="415.4" height="66.9"/>
<g>
	<path class="st1" d="M263.5,10v0.7c0.6,0.2,0.8,0.4,0.8,1c0,0.1-0.1,0.4-0.2,0.9l-4.4,14.7l-4-14.7c-0.1-0.6-0.2-0.9-0.2-1
		c0-0.4,0.3-0.7,0.9-0.9V10h-11.6v0.7c0.5,0.2,0.9,0.4,0.9,1c0,0.1-0.1,0.4-0.2,0.9l-4.3,14.7l-4.5-14.7c-0.1-0.2-0.2-0.4-0.2-0.5
		c-0.1-0.2-0.1-0.4-0.1-0.4c0-0.6,0.3-0.8,1.1-1V10H228v0.7c0.9,0.4,1.1,0.7,1.3,1.3l0.3,0.7l0.7,2.1l5.9,17.4
		c0.2,0.4,0.3,0.6,0.3,0.9c0,0.6-0.3,0.9-0.9,1v0.7h10.6v-0.6c-0.6-0.3-0.9-0.4-0.9-1c0-0.3,0.1-0.5,0.2-1l4.7-17l4.6,17
		c0.1,0.4,0.3,0.7,0.3,1c0,0.5-0.3,0.7-0.9,1v0.6h10.1v-0.7c-0.7-0.2-1-0.4-1-0.9c0-0.4,0.1-0.7,0.3-1.1l6.6-18.3
		c0.5-1.3,1.1-2.4,2.1-3.4V10H263.5z M199.1,27.8c-0.3,1.1-0.5,1.2-1.5,1.2h-14.8V11.9c0-0.9,0.3-1.2,1.3-1.3V9.9h-10v0.7
		c1.1,0.3,1.2,0.4,1.2,1.3v20.9c0,0.9-0.3,1.2-1.2,1.3v0.7h23.5c1,0,1.2,0.2,1.5,1.2h0.7v-8.4C199.9,27.8,199.1,27.8,199.1,27.8z
		 M230.9,32.9l-6.5-15.5l-0.7-1.6l-1.2-2.9c-0.3-0.7-0.4-1.3-0.4-1.5c0-0.5,0.3-0.7,0.7-0.7V10h-13.2v0.7c0.5,0.1,0.8,0.3,0.8,0.7
		c0,0.3-0.2,0.7-0.4,1.5l-7,18.1c-0.5,1.5-0.9,2.7-2.4,3.5V35h9.1v-0.6c-0.7-0.3-1.1-0.5-1.1-1.2c0-0.3,0.1-0.5,0.2-0.8l1.1-2.8
		h12.4l1.1,2.8c0.3,0.5,0.4,0.9,0.4,1.1c0,0.4-0.4,0.7-1,0.9V35h9.7v-0.6C231.2,34,231.2,33.5,230.9,32.9z"/>
	<path class="st2" d="M220.6,20.4l0.9,1.8c0,0,0.4,0.8,1,0.7s0.7,1.2-0.1,1.7c-0.7,0.5-2.5,2.2-5.2,2.7c-1.4,0.3-2-0.1-2-0.7
		c-0.3-1.1,0.4-0.7-0.4-2.3l-2.6-5.2c-0.4-1-1.1-0.4-1.6-1.3c-0.3-0.4-0.3-0.7,0.1-1.2c1.2-1.4,3.5-2.8,6.5-3.3c0,0,1.2,0.1,1.1,1.2
		s-0.3,1.1,0.4,2.3c0.4,0.5,0.8,1.1,1.3,0.9c0.4-0.1,1.8-0.8,3.6-1.8l0.7,1.6l-2.6,1.2C221.8,18.5,220,19.1,220.6,20.4z M234.4,10
		c-1.3,0.8-3.1,1.8-5,2.8l0.7,2.1l6.3-2.8c-0.1-0.2-0.1-0.4-0.1-0.4c0-0.6,0.3-0.8,1.1-1V10H234.4z"/>
	<path class="st3" d="M299.5,12.8l-2.7,4.4l-0.1,0.1l-0.1-0.1l-0.4-0.3l-0.1-0.1v-0.1c0.1-0.3,0.3-0.4,0.3-0.5
		c0-0.1,0.1-0.3,0.1-0.3s0-0.1-0.1-0.3c0-0.1-0.1-0.1-0.1-0.2l0,0c-0.1-0.1-0.2-0.2-0.3-0.3c-0.1-0.1-0.2-0.1-0.3-0.2l0,0
		c-0.1-0.1-0.3-0.1-0.3-0.2c-0.1-0.1-0.3-0.1-0.4-0.3l-0.3-0.1h-0.1l0,0c-1.2-0.7-2.3-1.2-3.6-1.5c-1.2-0.4-2.4-0.4-3.6-0.4
		c-1.5,0-3,0.2-4.3,0.5c-1.3,0.4-2.5,1.1-3.5,1.9l0,0c-0.5,0.4-1.1,1-1.4,1.5c-0.4,0.5-0.8,1.2-1.1,1.9c-0.3,0.6-0.5,1.3-0.7,2
		c-0.2,0.7-0.3,1.3-0.3,2.1c0,1.1,0.1,2,0.4,3c0.3,0.9,0.6,1.7,1.1,2.5c0.5,0.8,1.1,1.4,1.8,2c0.7,0.5,1.4,1.1,2.3,1.4
		c0.9,0.4,1.8,0.7,2.7,0.9c1,0.2,2,0.3,3,0.3c0.7,0,1.5-0.1,2.3-0.2l0,0c0.7-0.1,1.5-0.4,2.2-0.5c0.7-0.2,1.4-0.5,2-0.9l0,0
		c0.6-0.4,1.2-0.8,1.7-1.2v-4.4h-5.6c-0.3,0-0.4,0-0.5,0.1c-0.1,0.1-0.3,0.1-0.4,0.2c-0.1,0.1-0.2,0.2-0.3,0.4
		c-0.1,0.1-0.2,0.3-0.3,0.5v0.1h-0.1H288h-0.1v-0.1V22v-0.1h0.1h0.6h0.1V22c0.1,0.2,0.1,0.4,0.3,0.5c0.1,0.1,0.2,0.3,0.3,0.3l0,0
		c0.1,0.1,0.3,0.1,0.4,0.2c0.2,0.1,0.4,0.1,0.5,0.1h9.5h0.1v0.1v0.5v0.1h-0.1c-0.2,0.1-0.4,0.1-0.5,0.3c-0.1,0.1-0.3,0.1-0.3,0.3
		l0,0c-0.1,0.1-0.1,0.3-0.2,0.4c-0.1,0.2-0.1,0.4-0.1,0.5v3.1c0,0.3,0,0.4,0.1,0.5c0.1,0.2,0.1,0.3,0.2,0.4c0.1,0.1,0.2,0.2,0.3,0.3
		c0.2,0.1,0.4,0.2,0.5,0.3h0.1V30v0.5v0.1h-0.1c-0.4,0.4-0.9,0.8-1.3,1.2c-0.4,0.4-0.9,0.7-1.3,1.1l0,0c-0.5,0.3-1,0.5-1.5,0.9
		c-0.4,0.3-1,0.4-1.5,0.7c-0.5,0.3-1.1,0.4-1.5,0.5c-0.5,0.1-1.1,0.3-1.6,0.4c-0.5,0.1-1.1,0.3-1.7,0.3c-0.6,0-1.2,0.1-1.9,0.1
		c-2,0-4-0.3-5.7-0.8s-3.1-1.3-4.4-2.5l0,0c-0.4-0.4-0.9-0.8-1.2-1.2s-0.7-0.9-1.1-1.4c-0.3-0.4-0.5-1-0.8-1.5s-0.4-1.1-0.6-1.7l0,0
		c-0.2-0.5-0.3-1.2-0.4-1.7c-0.1-0.5-0.1-1.2-0.1-1.7c0-1,0.1-1.9,0.3-2.8c0.2-0.9,0.4-1.7,0.9-2.5c0.4-0.8,0.8-1.5,1.3-2.2
		c0.5-0.7,1.1-1.2,1.8-1.9c0.6-0.5,1.3-1.1,2.1-1.4c0.8-0.4,1.5-0.7,2.4-1.1c0.9-0.3,1.7-0.5,2.7-0.6c0.9-0.2,1.9-0.3,2.8-0.3
		c1.1,0,2.1,0.1,3.1,0.3c1,0.2,2,0.4,3,0.7c0.5,0.3,1.1,0.4,1.7,0.7c0.6,0.3,1.2,0.6,1.9,1c0.3,0.1,0.4,0.3,0.6,0.3
		c0.1,0.1,0.3,0.1,0.3,0.1c0.1,0,0.1,0,0.1,0c0.1-0.1,0.1-0.1,0.2-0.1l0,0l0.1-0.1c0.1-0.1,0.1-0.1,0.2-0.2l0,0l0.3-0.3l0.1-0.1
		l0.1,0.1l0.4,0.3v-0.2H299.5z M308,23.8v8.7c0,0.3,0,0.4,0.1,0.5c0,0.2,0.1,0.3,0.1,0.4l0,0c0.1,0.1,0.3,0.2,0.4,0.3
		c0.1,0.1,0.3,0.2,0.5,0.3h0.1v0.1v0.6v0.1h-0.2h-5h-0.1v-0.1v-0.6v-0.1h0.1c0.3-0.1,0.4-0.1,0.5-0.2l0,0c0.2-0.1,0.3-0.2,0.4-0.3
		l0,0c0.1-0.1,0.1-0.3,0.2-0.4c0-0.2,0-0.4,0-0.5V12.5c0-0.3,0-0.4,0-0.5c-0.1-0.2-0.1-0.4-0.2-0.4c-0.1-0.1-0.2-0.3-0.4-0.3
		c-0.1-0.1-0.3-0.1-0.5-0.2h-0.1V11v-0.6v-0.1h0.1h13.3c0.8,0,1.5,0.1,2.2,0.1l0,0c0.7,0.1,1.3,0.1,1.9,0.2c0.5,0.1,1.1,0.3,1.6,0.4
		c0.5,0.2,1,0.4,1.4,0.7l0,0c0.4,0.3,0.9,0.6,1.2,1.1c0.4,0.4,0.6,0.8,0.9,1.3l0,0c0.3,0.4,0.4,1,0.5,1.5c0.1,0.5,0.2,1.1,0.2,1.6
		c0,0.7-0.1,1.2-0.3,1.9c-0.2,0.5-0.4,1.1-0.7,1.6c-0.3,0.4-0.7,0.9-1.1,1.2c-0.4,0.4-0.9,0.7-1.4,1c-0.5,0.3-1.1,0.4-1.7,0.6
		c-0.5,0.1-1.1,0.3-1.7,0.3l6.1,9.4l0,0c0.2,0.3,0.4,0.5,0.6,0.6c0.3,0.2,0.5,0.3,0.9,0.3h0.1v0.1v0.6V35h-0.1h-5.6h-0.1v-0.1v-0.6
		v-0.1h0.1c0.3-0.1,0.4-0.1,0.6-0.2c0.1-0.1,0.2-0.1,0.2-0.2s-0.1-0.3-0.2-0.4s-0.3-0.4-0.4-0.7l0,0L317,24H308V23.8z M308,21.3h9.7
		c0.5,0,1.1,0,1.5,0c0.4-0.1,0.9-0.1,1.2-0.1s0.7-0.1,1.1-0.3c0.4-0.1,0.7-0.3,1-0.4l0,0c0.3-0.2,0.5-0.4,0.7-0.6s0.4-0.5,0.5-0.8
		c0.2-0.4,0.3-0.6,0.4-1s0.1-0.7,0.1-1.1s-0.1-0.7-0.1-1.1c-0.1-0.4-0.3-0.7-0.4-1.1c-0.2-0.3-0.4-0.5-0.5-0.8
		c-0.3-0.3-0.5-0.4-0.8-0.6l0,0c-0.4-0.2-0.7-0.3-1.1-0.4s-0.7-0.2-1.1-0.3c-0.4,0-0.8-0.1-1.3-0.1c-0.4,0-1-0.1-1.5-0.1H308
		L308,21.3L308,21.3z M359.8,22.6c0,0.9-0.1,1.7-0.3,2.6c-0.2,0.9-0.4,1.7-0.9,2.5c-0.4,0.8-0.8,1.5-1.3,2.2s-1.2,1.3-1.8,1.9l0,0
		c-0.7,0.5-1.4,1.1-2.2,1.5c-0.8,0.4-1.6,0.7-2.5,1.1l0,0c-0.9,0.3-1.8,0.4-2.7,0.5c-0.9,0.2-1.9,0.3-2.8,0.3
		c-4.3,0-7.7-1.2-10.3-3.4l0,0c-0.4-0.4-0.9-0.8-1.2-1.2s-0.7-0.9-1.1-1.3l0,0c-0.3-0.5-0.5-1.1-0.9-1.5c-0.3-0.5-0.4-1.1-0.5-1.6
		l0,0c-0.2-0.5-0.3-1.2-0.4-1.7c-0.1-0.5-0.1-1.2-0.1-1.7c0-0.9,0.1-1.7,0.3-2.7l0,0c0.1-0.4,0.3-0.9,0.4-1.2
		c0.2-0.4,0.3-0.8,0.5-1.2l0,0c0.2-0.4,0.4-0.7,0.5-1.2c0.3-0.4,0.4-0.7,0.7-1.1l0,0c0.3-0.4,0.5-0.7,0.9-1.1
		c0.3-0.3,0.5-0.6,0.9-0.9l0,0c0.7-0.6,1.4-1.1,2.2-1.5c0.8-0.4,1.6-0.7,2.5-1.1c0.9-0.3,1.8-0.4,2.7-0.6c1-0.1,2-0.2,2.9-0.2
		s2,0.1,2.8,0.2c1,0.2,1.9,0.3,2.8,0.6l0,0c0.9,0.3,1.7,0.6,2.5,1.1c0.7,0.4,1.5,0.9,2.2,1.5c0.6,0.5,1.2,1.2,1.8,1.9
		c0.5,0.7,1,1.4,1.3,2.2c0.4,0.8,0.7,1.7,0.9,2.5C359.6,20.8,359.8,21.6,359.8,22.6z M356.6,22.6c0-0.7-0.1-1.3-0.2-2
		c-0.2-0.6-0.4-1.2-0.5-1.9l0,0c-0.3-0.6-0.5-1.2-0.9-1.7c-0.4-0.5-0.7-1.1-1.2-1.5l0,0c-1.1-1-2.3-1.7-3.7-2.2
		c-1.4-0.5-3-0.7-4.9-0.7c-1.9,0-3.5,0.3-4.9,0.7c-1.4,0.4-2.7,1.2-3.7,2.2l0,0c-1,0.9-1.7,2-2.2,3.1c-0.4,1.2-0.7,2.4-0.7,3.8
		c0,1.3,0.3,2.7,0.7,3.8c0.5,1.2,1.2,2.2,2.2,3.1l0,0c1.1,1.1,2.3,1.8,3.7,2.3c1.4,0.5,3,0.7,4.9,0.7c1.9,0,3.5-0.3,4.9-0.7
		c1.4-0.5,2.7-1.2,3.7-2.3l0,0c0.4-0.4,0.9-0.9,1.2-1.4c0.4-0.5,0.7-1.1,0.9-1.7l0,0c0.3-0.6,0.4-1.2,0.5-1.9
		C356.5,23.8,356.6,23.2,356.6,22.6z M363.1,11v-0.6v-0.1h0.1h5.1h0.1v0.1v0.5V11h-0.1c-0.2,0.1-0.4,0.1-0.5,0.3
		c-0.1,0.1-0.3,0.2-0.3,0.3l0,0c-0.1,0.1-0.1,0.3-0.2,0.4c-0.1,0.2-0.1,0.4-0.1,0.5V26c0,0.6,0,1.2,0.1,1.8c0.1,0.5,0.1,1,0.2,1.3
		l0,0c0.1,0.4,0.2,0.7,0.4,1.1c0.2,0.3,0.4,0.5,0.7,0.8c0.5,0.5,1.5,1,2.7,1.2c1.2,0.3,2.7,0.4,4.4,0.4c0.8,0,1.5,0,2.3-0.1
		c0.7-0.1,1.3-0.2,2-0.4l0,0c0.7-0.1,1.2-0.3,1.7-0.5c0.5-0.3,0.9-0.5,1.2-1l0,0c0.4-0.4,0.5-0.8,0.7-1.4c0.1-0.6,0.3-1.3,0.3-2.2
		v-1V12.5c0-0.2,0-0.4-0.1-0.5c-0.1-0.2-0.1-0.4-0.2-0.4c-0.1-0.1-0.2-0.2-0.4-0.3c-0.1-0.1-0.3-0.2-0.4-0.3h-0.1l0,0v-0.6v-0.1h0.1
		h4.8h0.1v0.1v0.5V11h-0.1c-0.3,0.1-0.4,0.1-0.5,0.3c-0.2,0.1-0.3,0.1-0.4,0.3l0,0c-0.1,0.1-0.1,0.3-0.1,0.4
		c-0.1,0.2-0.1,0.4-0.1,0.5v14c0,0.7-0.1,1.4-0.2,2c-0.1,0.6-0.2,1.2-0.4,1.7c-0.1,0.5-0.4,1.1-0.7,1.5c-0.4,0.4-0.7,0.9-1.2,1.3
		l0,0c-0.9,0.7-2,1.2-3.5,1.6c-1.5,0.4-3.2,0.5-5.3,0.5c-0.6,0-1.2,0-1.9-0.1c-0.5,0-1.2-0.1-1.7-0.1c-0.5-0.1-1.1-0.2-1.6-0.3
		c-0.5-0.1-1.1-0.3-1.5-0.4c-0.5-0.3-1-0.4-1.4-0.7c-0.4-0.3-0.9-0.6-1.2-1c-0.4-0.4-0.7-0.8-0.9-1.2c-0.3-0.4-0.4-0.9-0.5-1.3l0,0
		c-0.1-0.5-0.2-1.1-0.3-1.6c-0.1-0.5-0.1-1.2-0.1-1.9V12.5c0-0.3,0-0.4-0.1-0.5c0.1-0.3,0-0.4,0-0.4c0-0.1-0.2-0.2-0.3-0.3
		c-0.2-0.1-0.4-0.2-0.5-0.3H363.1L363.1,11z M395.9,23.8v9c0,0.3,0.1,0.5,0.3,0.7c0.2,0.3,0.4,0.4,0.8,0.4h0.1v0.1v0.6v0.1H397h-5.1
		h-0.1v-0.1v-0.6V34h0.1c0.4-0.1,0.6-0.3,0.8-0.4l0,0c0.2-0.2,0.3-0.4,0.3-0.7V12.4c0-0.3-0.1-0.5-0.3-0.7c-0.2-0.3-0.4-0.4-0.8-0.4
		h-0.1V11v-0.6v-0.1h0.1h12.7c0.7,0,1.4,0.1,2.1,0.1c0.6,0.1,1.2,0.1,1.8,0.3l0,0c0.5,0.1,1.1,0.2,1.5,0.4c0.4,0.2,1,0.4,1.4,0.7
		l0,0c0.4,0.3,0.9,0.6,1.2,1.1c0.4,0.4,0.6,0.8,0.9,1.3l0,0c0.3,0.4,0.4,1,0.5,1.5c0.1,0.5,0.2,1.1,0.2,1.6c0,0.5-0.1,1.1-0.2,1.6
		c-0.1,0.5-0.4,1-0.5,1.5c-0.3,0.5-0.5,0.9-0.9,1.3l0,0c-0.4,0.4-0.7,0.7-1.2,1.1l0,0c-0.4,0.3-0.9,0.4-1.4,0.6l0,0
		c-0.5,0.3-1.1,0.4-1.5,0.4l0,0c-0.5,0.1-1.2,0.2-1.8,0.2c-0.6,0.1-1.3,0.1-2,0.1h-8.8V23.8z M395.9,21.3h9c0.5,0,1.1,0,1.5,0
		c0.4-0.1,0.9-0.1,1.2-0.1l0,0c0.4-0.1,0.7-0.1,1.1-0.3c0.4-0.1,0.7-0.3,1-0.4c0.3-0.2,0.5-0.4,0.7-0.6c0.2-0.2,0.4-0.5,0.5-0.8l0,0
		c0.2-0.4,0.3-0.6,0.4-1s0.1-0.7,0.1-1.1s0-0.7-0.1-1.1s-0.2-0.7-0.3-1c-0.2-0.4-0.4-0.6-0.5-0.9c-0.3-0.3-0.4-0.4-0.7-0.6
		c-0.4-0.2-0.6-0.3-1-0.4c-0.4-0.1-0.7-0.2-1.1-0.3l0,0c-0.4,0-0.8-0.1-1.2-0.1c-0.4,0-0.9-0.1-1.5-0.1h-9L395.9,21.3L395.9,21.3z"
		/>
	<path class="st3" d="M38.1,34.2l-10-19.9v17.8c0,0.3,0,0.4,0.1,0.5c0.1,0.2,0.1,0.3,0.2,0.4l0,0c0.1,0.1,0.2,0.3,0.4,0.3
		c0.1,0.1,0.3,0.1,0.5,0.2h0.1v0.1v0.5v0.1h-0.2h-4.8h-0.1v-0.1v-0.5v-0.1h0.1c0.3-0.1,0.4-0.1,0.5-0.2c0.2-0.1,0.3-0.2,0.4-0.3l0,0
		c0.1-0.1,0.1-0.3,0.1-0.4l0,0c0.1-0.2,0.1-0.4,0.1-0.6v-20c0-0.3,0-0.4-0.1-0.5c0-0.2-0.1-0.3-0.1-0.4c-0.1,0-0.3-0.2-0.4-0.2
		c-0.1-0.2-0.3-0.2-0.4-0.3h-0.1v-0.1V10V10h0.1h6.3h0.1V10v0.5v0.1h-0.1c-0.3,0.1-0.5,0.2-0.6,0.3c-0.1,0.2-0.2,0.3-0.2,0.4
		s0,0.2,0,0.3l0,0c0.1,0,0.1,0.1,0.1,0.2l8.4,16.7l8-15.9l0,0c0.2-0.3,0.3-0.5,0.4-0.7s0.1-0.4,0.1-0.4s-0.1-0.3-0.2-0.4
		c-0.1-0.2-0.3-0.3-0.6-0.4H46v-0.1V10V10h0.1h6.3h0.1V10v0.5v0.1h-0.1c-0.1,0.1-0.3,0.1-0.4,0.3c-0.2,0-0.2,0.2-0.4,0.2l0,0
		c-0.1,0.1-0.1,0.3-0.2,0.4c0,0.2-0.1,0.4-0.1,0.5v20c0,0.3,0.1,0.4,0.1,0.5c0.1,0.2,0.1,0.4,0.2,0.4l0,0c0.1,0.1,0.2,0.3,0.4,0.3
		c0.1,0.1,0.3,0.1,0.5,0.2l0.1,0.1v0.1v0.5v0.1h-0.1h-5.1h-0.1v-0.1v-0.5v-0.1h0.1c0.3-0.1,0.4-0.1,0.5-0.2l0,0
		c0.2-0.1,0.3-0.2,0.4-0.3s0.1-0.3,0.1-0.4c0.1-0.2,0.1-0.4,0.1-0.6V14.3L38.3,34.2l-0.1,0.2L38.1,34.2z M74.7,27.5H61.8l-2,4.6l0,0
		c-0.1,0.3-0.2,0.4-0.3,0.5c-0.1,0.2-0.1,0.3-0.1,0.4s0.1,0.2,0.2,0.3c0.2,0.1,0.4,0.2,0.8,0.3l0.1,0.1v0.1v0.5v0.1h-0.1H55h-0.1
		v-0.1v-0.5v-0.1H55c0.3-0.1,0.5-0.1,0.7-0.3c0.2-0.1,0.4-0.3,0.4-0.4c0.2-0.2,0.3-0.4,0.4-0.6c0.1-0.3,0.3-0.5,0.4-1l0,0l8.8-19.1
		l0,0c0.2-0.2,0.3-0.4,0.4-0.5l0,0c0.1-0.2,0.1-0.3,0.1-0.4S66.2,11,66,10.9c-0.1-0.1-0.3-0.3-0.5-0.3h-0.1v-0.1V10V10h0.1h5.9h0.1
		V10v0.5v0.1h-0.1c-0.3,0.1-0.4,0.2-0.6,0.3c-0.1,0.1-0.2,0.3-0.2,0.4c0,0.1,0,0.1,0,0.1c0.1,0.1,0.1,0.1,0.1,0.2L80,32.1l0,0
		c0.1,0.3,0.3,0.4,0.4,0.5c0.1,0.1,0.3,0.3,0.4,0.4l0,0c0.1,0.1,0.3,0.3,0.4,0.3c0.2,0.1,0.4,0.1,0.6,0.2h0.1v0.1v0.5v0.1h-0.1H76
		H76v-0.1v-0.5v-0.1l0.1-0.1c0.4-0.1,0.6-0.2,0.8-0.3c0.1-0.1,0.3-0.2,0.3-0.3c0-0.1-0.1-0.3-0.1-0.4c-0.1-0.2-0.2-0.4-0.3-0.7l0,0
		L74.7,27.5z M73.6,25l-5.3-11.7L63,25H73.6z M88,13.3v18.8c0,0.3,0,0.4,0.1,0.5c0,0.2,0.1,0.3,0.2,0.4l0,0c0.1,0.1,0.2,0.3,0.3,0.3
		c0.2,0.1,0.4,0.1,0.5,0.2h0.1v0.1v0.5v0.1H89h-4.8h-0.1v-0.1v-0.5v-0.1h0.1c0.2-0.1,0.4-0.1,0.5-0.2l0,0c0.1-0.1,0.3-0.2,0.3-0.3
		l0,0c0.1-0.1,0.1-0.3,0.2-0.4c0.1-0.2,0.1-0.4,0.1-0.6v-20c0-0.3,0-0.4-0.1-0.5c-0.1-0.1-0.1-0.3-0.2-0.4c-0.1-0.1-0.2-0.2-0.3-0.3
		c-0.2-0.1-0.4-0.1-0.6-0.2h-0.1v-0.1V10V10h0.1h6.9h0.1V10v0.5v0.1h-0.1c-0.2,0.1-0.4,0.2-0.4,0.3c-0.1,0.1-0.2,0.3-0.2,0.4
		c0,0.2,0.1,0.4,0.2,0.5s0.4,0.4,0.5,0.7l0,0l14.5,16.9V12.1c0-0.3-0.1-0.4-0.1-0.5c-0.1-0.2-0.1-0.3-0.2-0.4
		c-0.1-0.1-0.2-0.2-0.4-0.3c-0.1-0.1-0.3-0.1-0.5-0.2h-0.1v-0.1V10V10h0.1h4.8h0.1V10v0.5v0.1h-0.1c-0.1,0.1-0.3,0.1-0.4,0.3
		c-0.1,0.1-0.3,0.2-0.3,0.3c-0.1,0.1-0.1,0.3-0.2,0.4c0,0.2-0.1,0.4-0.1,0.5v19.9c0,0.3,0.1,0.4,0.1,0.5c0.1,0.2,0.1,0.4,0.2,0.4
		l0,0c0.1,0.1,0.2,0.3,0.4,0.3c0.1,0.1,0.3,0.1,0.5,0.2l0.1,0.1v0.1v0.5v0.1h-0.1h-5.6h-0.1v-0.1v-0.5v-0.1l0.1-0.1
		c0.3-0.1,0.4-0.2,0.6-0.3c0.1-0.1,0.2-0.3,0.2-0.4s-0.1-0.3-0.1-0.4l0,0c-0.1-0.1-0.1-0.1-0.1-0.2l0,0c0-0.1,0-0.1-0.1-0.1h-0.2
		l0,0c-0.1-0.1-0.1-0.1-0.2-0.3l0,0l-0.1-0.2c-0.1-0.1-0.1-0.1-0.2-0.2l0,0L88,13.3z M131.6,27.5h-12.9l-2,4.6l0,0
		c-0.1,0.3-0.2,0.4-0.3,0.5c-0.1,0.2-0.1,0.3-0.1,0.4s0.1,0.2,0.3,0.3c0.1,0.1,0.4,0.2,0.7,0.3l0.1,0.1v0.1v0.5v0.1h-0.1h-5.3h-0.1
		v-0.1v-0.5v-0.1h0.1c0.3-0.1,0.5-0.1,0.7-0.3c0.3-0.1,0.4-0.3,0.5-0.4c0.1-0.2,0.3-0.4,0.4-0.6c0.2-0.3,0.3-0.5,0.4-1l0,0l8.8-19.1
		l0,0c0.1-0.2,0.3-0.4,0.3-0.5l0,0c0-0.2,0.1-0.3,0.1-0.4c0-0.2-0.1-0.3-0.2-0.3c-0.2-0.1-0.4-0.3-0.6-0.3h-0.1v-0.1V10V10h0.1h5.9
		h0.1V10v0.5v0.1h-0.1c-0.3,0.1-0.4,0.2-0.5,0.3c-0.2,0.1-0.3,0.3-0.3,0.4c0,0.1,0,0.1,0.1,0.1c0,0.1,0,0.1,0,0.2l9.4,20.5l0,0
		c0.1,0.3,0.3,0.4,0.4,0.5c0.1,0.2,0.3,0.3,0.4,0.4l0,0c0.2,0.1,0.3,0.3,0.4,0.3c0.3,0.1,0.4,0.1,0.6,0.2h0.1v0.1v0.5v0.1h-0.1H133
		h-0.1v-0.1v-0.5v-0.1l0.1-0.1c0.4-0.1,0.5-0.2,0.7-0.3c0.2-0.1,0.3-0.2,0.3-0.3c0-0.1-0.1-0.3-0.1-0.4c-0.1-0.2-0.2-0.4-0.3-0.7
		l0,0L131.6,27.5z M130.5,25l-5.3-11.7L119.9,25H130.5z M147.8,30.9l7.7-17.7l0,0c0.2-0.4,0.4-0.6,0.4-0.9c0.1-0.3,0.1-0.4,0.1-0.6
		c0-0.3-0.1-0.4-0.3-0.5c-0.2-0.2-0.4-0.3-0.7-0.4H155v-0.2V10V10h0.1h5.6h0.1V10v0.5v0.1h-0.1c-0.4,0.1-0.7,0.3-0.9,0.5
		c-0.3,0.3-0.5,0.5-0.6,0.9l0,0l-8.6,19.1l0,0l-0.1,0.1c0,0.1-0.1,0.3-0.2,0.4c-0.1,0.1-0.1,0.2-0.1,0.3c0,0.1-0.1,0.2-0.1,0.3l0,0
		c-0.1,0.1-0.1,0.2-0.1,0.3s-0.1,0.2-0.1,0.3c0,0.3,0.1,0.4,0.3,0.5l0,0c0.2,0.2,0.4,0.3,0.7,0.3h0.1v0.1v0.5v0.1h-0.1h-6.6h-0.1
		v-0.1v-0.5v-0.1h0.1c0.3-0.1,0.5-0.1,0.7-0.3l0,0c0.2-0.1,0.3-0.3,0.3-0.4s-0.1-0.4-0.1-0.6c-0.1-0.3-0.2-0.5-0.4-0.9l0,0l-8-18.2
		l0,0c-0.1-0.2-0.2-0.4-0.3-0.5c-0.1-0.2-0.2-0.4-0.2-0.4c-0.1-0.1-0.1-0.3-0.2-0.4l0,0c-0.1-0.1-0.1-0.2-0.2-0.3
		c-0.1-0.1-0.2-0.2-0.3-0.3l0,0c-0.1-0.1-0.2-0.2-0.3-0.3c-0.1-0.1-0.3-0.2-0.4-0.3c-0.1-0.1-0.3-0.1-0.4-0.2h-0.1v-0.1V10V10h0.1
		h5.8h0.1V10v0.5v0.1h-0.1c-0.3,0.1-0.5,0.2-0.7,0.4c-0.2,0.1-0.3,0.3-0.3,0.5c0,0.3,0.1,0.4,0.1,0.7l0,0c0.1,0.3,0.2,0.5,0.3,0.9
		l0,0L147.8,30.9z M168.3,33.6v0.5v0.1h-0.1h-5.1H163v-0.1v-0.5v-0.1h0.1c0.2-0.1,0.4-0.1,0.5-0.2c0.1-0.1,0.3-0.2,0.3-0.3l0,0
		c0.1-0.1,0.1-0.3,0.2-0.4l0,0c0.1-0.2,0.1-0.4,0.1-0.6v-20c0-0.3,0-0.4-0.1-0.5c-0.1-0.2-0.1-0.3-0.2-0.4c-0.1-0.1-0.2-0.2-0.3-0.3
		c-0.2-0.1-0.4-0.2-0.5-0.3H163v0V10V10h0.1h5.1h0.1V10v0.5v0.1h-0.1c-0.2,0.1-0.4,0.1-0.5,0.3c-0.1,0.1-0.3,0.2-0.3,0.3l0,0
		c-0.1,0.1-0.1,0.3-0.2,0.4c-0.1,0.2-0.1,0.4-0.1,0.5v19.9c0,0.3,0,0.4,0.1,0.5c0.1,0.2,0.1,0.4,0.2,0.4l0,0
		c0.1,0.1,0.2,0.3,0.3,0.3c0.2,0.1,0.4,0.1,0.5,0.2L168.3,33.6L168.3,33.6z"/>
	<rect x="24.2" y="39.9" class="st4" width="390.6" height="0.9"/>
	<g>
		<g>
			<path class="st5" d="M145.8,56.6l4.6-10h1.5l1.1,10h-1.2l-0.3-2.6h-3.2l-1.2,2.6H145.8z M148.8,52.8h2.7l-0.4-3.1
				c0-0.1,0-0.3,0-0.4c-0.1-0.1-0.1-0.3-0.1-0.4s0-0.4-0.1-0.4c0-0.1,0-0.3,0-0.4h-0.1c-0.1,0.2-0.1,0.4-0.2,0.5
				c-0.1,0.2-0.2,0.4-0.3,0.5c-0.1,0.3-0.2,0.4-0.3,0.5L148.8,52.8z"/>
			<path id="_x31__00000157305499346166624460000003865690095816006806_" class="st5" d="M160.9,56.6l1.7-10h3.2
				c0.6,0,1.1,0.1,1.5,0.3c0.4,0.3,0.6,0.4,0.8,0.8c0.2,0.4,0.3,0.7,0.3,1.2c0,0.5-0.1,1.1-0.3,1.5c-0.1,0.5-0.4,0.9-0.6,1.2
				c-0.3,0.4-0.6,0.5-1.1,0.7c-0.4,0.3-0.9,0.3-1.3,0.3h-2.3l-0.7,3.8L160.9,56.6L160.9,56.6z M163,51.7h2c0.4,0,0.8-0.1,1.1-0.4
				c0.4-0.2,0.5-0.4,0.7-0.9s0.3-0.9,0.3-1.3s-0.1-0.7-0.3-1c-0.3-0.3-0.6-0.4-1.1-0.4h-2L163,51.7z"/>
			<path id="_x32__00000021095848550606586760000010639018440994590138_" class="st5" d="M170.3,56.6l1.8-10h3.5
				c0.5,0,1.1,0.1,1.4,0.3c0.4,0.2,0.7,0.4,0.9,0.7c0.1,0.4,0.3,0.7,0.3,1.2c0,0.5-0.1,1.1-0.3,1.5c-0.2,0.4-0.4,0.9-0.7,1.2
				c-0.3,0.4-0.7,0.6-1.1,0.8l1.1,4.3h-1.3l-1-4h-2.5l-0.7,4H170.3z M172.5,51.5h2.2c0.4,0,0.8-0.1,1.1-0.4c0.3-0.2,0.5-0.4,0.7-0.9
				c0.2-0.4,0.3-0.8,0.3-1.3c0-0.4-0.1-0.7-0.4-0.9c-0.3-0.2-0.5-0.3-1.1-0.3h-2.2L172.5,51.5z"/>
			<path id="_x33__00000135656892409572396110000010445094722005456289_" class="st5" d="M183.8,56.8c-0.7,0-1.3-0.1-1.8-0.4
				c-0.4-0.3-0.9-0.6-1.1-1.2c-0.3-0.5-0.4-1.2-0.4-1.9c0-0.3,0-0.5,0-0.9c0.1-0.4,0.1-0.6,0.2-1c0.2-1.1,0.4-2,0.9-2.8
				c0.4-0.7,0.9-1.3,1.5-1.7c0.6-0.4,1.3-0.5,2.1-0.5c0.7,0,1.3,0.2,1.8,0.4c0.5,0.3,0.9,0.6,1.1,1.2c0.3,0.4,0.4,1.1,0.4,1.9
				c0,0.3-0.1,0.5-0.1,0.9c0,0.4-0.1,0.6-0.1,1c-0.2,1.1-0.5,2-0.9,2.8c-0.4,0.7-0.9,1.3-1.5,1.7C185.3,56.6,184.6,56.8,183.8,56.8z
				 M183.9,55.7c0.4,0,0.8-0.1,1.2-0.3c0.4-0.2,0.6-0.4,0.9-0.7c0.3-0.3,0.4-0.7,0.7-1.2c0.2-0.5,0.3-1.1,0.4-1.7
				c0.1-0.3,0.1-0.5,0.1-0.7c0.1-0.3,0.1-0.4,0.1-0.5c0.1-0.2,0.1-0.3,0.1-0.4s0-0.3,0-0.4c0-0.5-0.1-1-0.3-1.3
				c-0.1-0.4-0.4-0.5-0.6-0.7c-0.4-0.2-0.7-0.3-1.1-0.3c-0.4,0-0.8,0.1-1.2,0.3s-0.7,0.4-0.9,0.7c-0.3,0.4-0.5,0.7-0.7,1.2
				c-0.3,0.4-0.4,1-0.4,1.6c-0.1,0.3-0.1,0.5-0.1,0.7c-0.1,0.3-0.1,0.4-0.1,0.5c0,0.2-0.1,0.3-0.1,0.4s0,0.3,0,0.4
				c0,0.5,0.1,1,0.3,1.3c0.2,0.4,0.4,0.5,0.7,0.7C183.1,55.6,183.5,55.7,183.9,55.7z"/>
			<polygon id="_x34__00000119085957161866463940000003197306336341652410_" class="st5" points="191.1,56.6 192.9,46.7 198.2,46.7 
				198.1,47.9 194,47.9 193.4,51.1 197,51.1 196.8,52.2 193.2,52.2 192.4,56.6 			"/>
			<polygon id="_x35__00000011007930173529467520000005211501063362830978_" class="st5" points="199.8,56.6 201.6,46.7 207.5,46.7 
				207.3,47.9 202.7,47.9 202.1,51 206.2,51 206,52.1 202,52.1 201.3,55.5 206,55.5 205.9,56.6 			"/>
			<path id="_x36__00000171701568637048923810000013184892244451472562_" class="st5" d="M212.2,56.8c-0.4,0-0.8-0.1-1.2-0.1
				c-0.4-0.1-0.6-0.2-0.9-0.4s-0.4-0.4-0.5-0.7c-0.2-0.3-0.3-0.5-0.3-1c0-0.2,0-0.4,0.1-0.5c0-0.3,0.1-0.4,0.1-0.6h1.2
				c0,0.2-0.1,0.4-0.1,0.5c-0.1,0.1-0.1,0.3-0.1,0.4c0,0.3,0.1,0.5,0.2,0.7c0.2,0.2,0.4,0.3,0.5,0.4c0.3,0.1,0.5,0.1,0.9,0.1
				c0.4,0,0.6-0.1,0.9-0.2s0.5-0.2,0.7-0.4c0.2-0.2,0.4-0.4,0.4-0.6c0.1-0.3,0.2-0.5,0.2-0.9c0-0.3-0.1-0.4-0.2-0.6
				c-0.1-0.2-0.3-0.3-0.4-0.4c-0.2-0.1-0.4-0.3-0.5-0.4c-0.3-0.1-0.4-0.2-0.7-0.3c-0.3-0.1-0.5-0.3-0.8-0.4
				c-0.3-0.1-0.4-0.3-0.7-0.4c-0.3-0.2-0.4-0.4-0.5-0.6c-0.1-0.3-0.3-0.5-0.3-1c0-0.5,0.1-1,0.3-1.3c0.3-0.4,0.4-0.7,0.7-0.9
				c0.4-0.3,0.7-0.4,1.1-0.5c0.4-0.1,0.8-0.2,1.2-0.2c0.4,0,0.8,0.1,1.1,0.1c0.4,0.1,0.6,0.3,0.9,0.4c0.3,0.2,0.4,0.4,0.5,0.6
				c0.1,0.3,0.3,0.5,0.3,0.9c0,0.1-0.1,0.3-0.1,0.4c0,0.2-0.1,0.4-0.1,0.5h-1.2c0.1-0.2,0.1-0.4,0.1-0.4c0.1-0.1,0.1-0.2,0.1-0.3
				c0-0.4-0.2-0.7-0.4-0.9c-0.3-0.3-0.6-0.3-1.1-0.3c-0.4,0-0.6,0.1-1,0.2c-0.3,0.1-0.5,0.3-0.7,0.5c-0.2,0.3-0.3,0.5-0.3,1
				c0,0.3,0,0.4,0.1,0.5c0.1,0.2,0.3,0.3,0.4,0.4c0.2,0.1,0.4,0.3,0.5,0.4c0.3,0.1,0.4,0.2,0.6,0.3c0.3,0.1,0.5,0.3,0.9,0.4
				c0.4,0.1,0.5,0.3,0.8,0.4c0.3,0.3,0.4,0.4,0.5,0.7s0.2,0.6,0.2,1.1c0,0.5-0.1,1.1-0.3,1.4c-0.2,0.4-0.4,0.7-0.7,1.1
				c-0.3,0.3-0.7,0.5-1.2,0.6C213.1,56.8,212.6,56.8,212.2,56.8z"/>
			<path id="_x37__00000016061444268092527120000010060750394105362876_" class="st5" d="M221.5,56.8c-0.4,0-0.8-0.1-1.2-0.1
				c-0.4-0.1-0.6-0.2-0.9-0.4s-0.4-0.4-0.5-0.7c-0.1-0.3-0.3-0.5-0.3-1c0-0.2,0-0.4,0.1-0.5c0-0.3,0.1-0.4,0.1-0.6h1.2
				c0,0.2-0.1,0.4-0.1,0.5c-0.1,0.1-0.1,0.3-0.1,0.4c0,0.3,0.1,0.5,0.2,0.7c0.2,0.2,0.4,0.3,0.5,0.4c0.3,0.1,0.5,0.1,0.9,0.1
				c0.4,0,0.6-0.1,0.9-0.2s0.5-0.2,0.7-0.4s0.4-0.4,0.4-0.6c0.1-0.3,0.2-0.5,0.2-0.9c0-0.3-0.1-0.4-0.2-0.6
				c-0.1-0.2-0.3-0.3-0.4-0.4c-0.2-0.1-0.4-0.3-0.5-0.4c-0.3-0.1-0.4-0.2-0.7-0.3c-0.3-0.1-0.5-0.3-0.8-0.4
				c-0.3-0.1-0.4-0.3-0.7-0.4c-0.3-0.2-0.4-0.4-0.5-0.6c-0.1-0.3-0.3-0.5-0.3-1c0-0.5,0.1-1,0.3-1.3c0.3-0.4,0.4-0.7,0.8-0.9
				c0.3-0.3,0.6-0.4,1.1-0.5s0.8-0.2,1.2-0.2s0.8,0.1,1.2,0.1c0.3,0.1,0.5,0.3,0.9,0.4c0.3,0.2,0.4,0.4,0.5,0.6
				c0.1,0.3,0.3,0.5,0.3,0.9c0,0.1-0.1,0.3-0.1,0.4c0,0.2-0.1,0.4-0.1,0.5h-1.2c0.1-0.2,0.1-0.4,0.1-0.4c0.1-0.1,0.1-0.2,0.1-0.3
				c0-0.4-0.1-0.7-0.4-0.9c-0.3-0.3-0.6-0.3-1.1-0.3c-0.4,0-0.6,0.1-1,0.2c-0.3,0.1-0.5,0.3-0.7,0.5c-0.2,0.3-0.3,0.5-0.3,1
				c0,0.3,0,0.4,0.1,0.5c0.1,0.2,0.3,0.3,0.4,0.4c0.2,0.1,0.4,0.3,0.5,0.4s0.4,0.2,0.5,0.3c0.3,0.1,0.5,0.3,0.9,0.4
				c0.4,0.1,0.5,0.3,0.8,0.4c0.3,0.3,0.4,0.4,0.5,0.7c0.1,0.3,0.2,0.6,0.2,1.1c0,0.5-0.1,1.1-0.3,1.4c-0.2,0.4-0.4,0.7-0.7,1.1
				c-0.3,0.3-0.7,0.5-1.1,0.6C222.5,56.8,222,56.8,221.5,56.8z"/>
			<polygon id="_x38__00000060028559103492990780000001258468817458394768_" class="st5" points="228,56.6 229.8,46.7 231.1,46.7 
				229.3,56.6 			"/>
			<path id="_x39__00000155132442795055768380000013528999589629714319_" class="st5" d="M236.9,56.8c-0.7,0-1.2-0.1-1.7-0.4
				c-0.5-0.3-0.9-0.6-1.1-1.2c-0.3-0.5-0.4-1.2-0.4-1.9c0-0.3,0-0.5,0.1-0.9c0-0.4,0.1-0.6,0.1-1c0.2-1.1,0.4-2,0.9-2.8
				c0.4-0.7,0.9-1.3,1.5-1.7c0.5-0.4,1.3-0.5,2.1-0.5c0.7,0,1.2,0.2,1.8,0.4c0.4,0.3,0.8,0.6,1.1,1.2c0.3,0.4,0.4,1.1,0.4,1.9
				c0,0.3,0,0.5-0.1,0.9c0,0.4-0.1,0.6-0.1,1c-0.2,1.1-0.4,2-0.9,2.8c-0.4,0.7-0.9,1.3-1.5,1.7C238.4,56.6,237.7,56.8,236.9,56.8z
				 M236.9,55.7c0.4,0,0.8-0.1,1.2-0.3c0.4-0.2,0.6-0.4,0.9-0.7c0.3-0.3,0.5-0.7,0.7-1.2c0.2-0.5,0.4-1.1,0.4-1.7
				c0.1-0.3,0.1-0.5,0.1-0.7c0-0.3,0.1-0.4,0.1-0.5c0-0.2,0.1-0.3,0.1-0.4s0-0.3,0-0.4c0-0.5-0.1-1-0.3-1.3
				c-0.2-0.4-0.4-0.5-0.7-0.7s-0.6-0.3-1.1-0.3c-0.4,0-0.8,0.1-1.2,0.3c-0.4,0.2-0.6,0.4-0.9,0.7c-0.3,0.4-0.5,0.7-0.7,1.2
				c-0.2,0.4-0.4,1-0.4,1.6c0,0.3-0.1,0.5-0.1,0.7c0,0.3,0,0.4-0.1,0.5c0,0.2,0,0.3,0,0.4s-0.1,0.3-0.1,0.4c0,0.5,0.1,1,0.3,1.3
				c0.2,0.4,0.4,0.5,0.7,0.7C236.1,55.6,236.5,55.7,236.9,55.7z"/>
			<path id="_x31_0_00000041258889869273863550000015202682067481948833_" class="st5" d="M244.2,56.6l1.7-10h1.2l2.2,6.3
				c0,0.1,0.1,0.2,0.1,0.3c0,0.1,0.1,0.3,0.1,0.4c0,0.1,0.1,0.2,0.1,0.3h0.1c0-0.2,0.1-0.4,0.1-0.5c0.1-0.3,0.1-0.4,0.1-0.5l1.1-6.2
				h1.2l-1.7,10h-1.1l-2.3-6.4c-0.1-0.1-0.1-0.3-0.2-0.4c-0.1-0.2-0.1-0.4-0.2-0.4h-0.1c-0.1,0.1-0.1,0.3-0.1,0.5s-0.1,0.4-0.1,0.6
				l-1.1,6.1L244.2,56.6L244.2,56.6z"/>
			<path id="_x31_1_00000182506063797723416700000012046699938865403526_" class="st5" d="M253.6,56.6l4.6-10h1.5l1.1,10h-1.2
				l-0.3-2.6h-3.2l-1.2,2.6H253.6z M256.6,52.8h2.7l-0.3-3.1c-0.1-0.1-0.1-0.3-0.1-0.4c-0.1-0.1-0.1-0.3-0.1-0.4s0-0.4,0-0.4
				c-0.1-0.1-0.1-0.3-0.1-0.4h-0.1c-0.1,0.2-0.2,0.4-0.3,0.5c-0.1,0.2-0.2,0.4-0.3,0.5c-0.1,0.3-0.2,0.4-0.3,0.5L256.6,52.8z"/>
			<polygon id="_x31_2_00000023962458798764588190000013247547741297843080_" class="st5" points="264.1,56.6 265.8,46.7 267,46.7 
				265.5,55.4 269.2,55.4 269,56.6 			"/>
			<polygon id="_x31_3_00000150091352299034383610000006796228820274194339_" class="st5" points="276.7,56.6 278.5,46.7 
				279.7,46.7 278.2,55.4 281.9,55.4 281.7,56.6 			"/>
			<path id="_x31_4_00000137095317783585754590000008437904060820457144_" class="st5" d="M284,56.6l4.6-10h1.5l1.2,10H290l-0.3-2.6
				h-3.3l-1.2,2.6H284z M287,52.8h2.7l-0.3-3.1c0-0.1-0.1-0.3-0.1-0.4c0-0.1,0-0.3-0.1-0.4c0-0.2,0-0.4,0-0.4c0-0.1,0-0.3-0.1-0.4
				h-0.1c-0.1,0.2-0.1,0.4-0.3,0.5c-0.1,0.2-0.2,0.4-0.3,0.5c-0.1,0.3-0.2,0.4-0.3,0.5L287,52.8z"/>
			<path id="_x31_5_00000142890893376674518220000007663324675336935335_" class="st5" d="M295.3,56.6l-0.4-10h1.2l0.2,6.4
				c0,0.1,0,0.3,0,0.4c0,0.3,0,0.4,0,0.6s-0.1,0.4-0.1,0.5h0.1c0.1-0.2,0.1-0.4,0.2-0.5c0.1-0.2,0.1-0.4,0.2-0.5
				c0.1-0.2,0.1-0.4,0.2-0.4l2.4-6.4h1.4l0.2,6.4c0,0.2-0.1,0.4-0.1,0.5c0,0.3,0,0.4,0,0.5c0,0.3,0,0.4,0,0.5h0.1
				c0.1-0.2,0.1-0.4,0.2-0.5c0.1-0.2,0.1-0.4,0.2-0.5c0.1-0.2,0.2-0.4,0.2-0.4l2.5-6.5h1.2l-3.9,10h-1.4l-0.1-6.7c0-0.1,0-0.3,0-0.4
				c0-0.1,0-0.3,0-0.4s0-0.3,0-0.4h-0.1c-0.1,0.2-0.1,0.3-0.1,0.4c-0.1,0.2-0.1,0.3-0.2,0.4c-0.1,0.2-0.1,0.3-0.2,0.4l-2.5,6.7
				L295.3,56.6L295.3,56.6z"/>
			<path id="_x31_6_00000117655756845986252090000002019780902011813306_" class="st5" d="M314.7,56.8c-1.1,0-1.9-0.3-2.3-0.8
				c-0.5-0.5-0.7-1.3-0.7-2.5c0-0.4,0-0.7,0.1-1.1c0.1-0.4,0.1-0.8,0.2-1.2c0.3-1,0.5-1.9,0.9-2.5c0.4-0.7,0.9-1.2,1.5-1.6
				c0.6-0.4,1.3-0.5,2.1-0.5c0.6,0,1.2,0.1,1.6,0.3c0.4,0.3,0.7,0.5,1,0.9c0.3,0.4,0.4,0.9,0.4,1.5c0,0.2,0,0.4-0.1,0.5
				c0,0.3-0.1,0.4-0.1,0.6h-1.4c0-0.2,0.1-0.4,0.1-0.5s0.1-0.3,0.1-0.4c0-0.4-0.1-0.7-0.3-0.9c-0.1-0.3-0.3-0.4-0.5-0.5
				c-0.3-0.1-0.5-0.2-1-0.2c-0.4,0-0.7,0.1-1.1,0.3c-0.3,0.2-0.5,0.4-0.9,0.7c-0.3,0.4-0.4,0.7-0.7,1.2c-0.2,0.4-0.4,1.1-0.4,1.7
				c0,0.3-0.1,0.5-0.1,0.7c0,0.3-0.1,0.4-0.1,0.5c0,0.2,0,0.3-0.1,0.4c0,0.1,0,0.3,0,0.4c0,0.5,0.1,1,0.3,1.2
				c0.1,0.4,0.4,0.5,0.6,0.7c0.3,0.1,0.6,0.3,1,0.3c0.5,0,0.9-0.1,1.2-0.3c0.4-0.3,0.7-0.5,0.9-0.9c0.3-0.4,0.4-0.9,0.5-1.5h1.2
				c-0.1,0.9-0.4,1.6-0.7,2.2c-0.4,0.5-0.8,1-1.3,1.2C316,56.7,315.4,56.8,314.7,56.8z"/>
			<path id="_x31_7_00000034086560023695839310000012428757286033563830_" class="st5" d="M325,56.8c-0.7,0-1.2-0.1-1.7-0.4
				c-0.4-0.3-0.9-0.6-1.1-1.2c-0.3-0.5-0.4-1.2-0.4-1.9c0-0.3,0-0.5,0-0.9c0.1-0.4,0.1-0.6,0.1-1c0.3-1.1,0.5-2,0.9-2.8
				c0.4-0.7,0.9-1.3,1.5-1.7c0.6-0.4,1.3-0.5,2.1-0.5c0.7,0,1.3,0.2,1.8,0.4c0.4,0.3,0.9,0.6,1.1,1.2c0.3,0.4,0.4,1.1,0.4,1.9
				c0,0.3,0,0.5,0,0.9c-0.1,0.4-0.1,0.6-0.1,1c-0.2,1.1-0.5,2-0.9,2.8c-0.4,0.7-0.9,1.3-1.5,1.7C326.6,56.6,325.9,56.8,325,56.8z
				 M325.1,55.7c0.4,0,0.9-0.1,1.2-0.3c0.4-0.2,0.7-0.4,0.9-0.7c0.3-0.3,0.5-0.7,0.7-1.2c0.3-0.5,0.4-1.1,0.4-1.7
				c0.1-0.3,0.1-0.5,0.1-0.7c0.1-0.3,0.1-0.4,0.1-0.5c0.1-0.2,0.1-0.3,0.1-0.4s0-0.3,0-0.4c0-0.5-0.1-1-0.3-1.3
				c-0.2-0.4-0.4-0.5-0.7-0.7s-0.6-0.3-1.1-0.3c-0.4,0-0.8,0.1-1.2,0.3c-0.4,0.2-0.7,0.4-1,0.7c-0.3,0.4-0.4,0.7-0.7,1.2
				c-0.2,0.4-0.3,1-0.4,1.6c-0.1,0.3-0.1,0.5-0.1,0.7c-0.1,0.3-0.1,0.4-0.1,0.5c-0.1,0.2-0.1,0.3-0.1,0.4s0,0.3,0,0.4
				c0,0.5,0.1,1,0.3,1.3c0.1,0.4,0.4,0.5,0.7,0.7S324.7,55.7,325.1,55.7z"/>
			<path id="_x31_8_00000119809284758012228860000014998048284192277181_" class="st5" d="M332.4,56.6l1.8-10h3.5
				c0.5,0,1.1,0.1,1.4,0.3c0.4,0.2,0.7,0.4,0.8,0.7c0.2,0.4,0.3,0.7,0.3,1.2c0,0.5-0.1,1.1-0.3,1.5c-0.2,0.4-0.4,0.9-0.7,1.2
				c-0.3,0.4-0.7,0.6-1.1,0.8l1.1,4.3h-1.3l-1-4h-2.5l-0.7,4H332.4z M334.6,51.5h2.2c0.4,0,0.8-0.1,1.1-0.4c0.3-0.2,0.5-0.4,0.7-0.9
				c0.2-0.4,0.3-0.8,0.3-1.3c0-0.4-0.1-0.7-0.4-0.9s-0.5-0.3-1.1-0.3h-2.2L334.6,51.5z"/>
			<path id="_x31_9_00000039850150703225437960000003389517917300792456_" class="st5" d="M342.6,56.6l1.7-10h3.2
				c0.6,0,1.2,0.1,1.5,0.3c0.4,0.3,0.6,0.4,0.8,0.8c0.2,0.4,0.3,0.7,0.3,1.2c0,0.5-0.1,1.1-0.3,1.5c-0.2,0.5-0.4,0.9-0.7,1.2
				c-0.3,0.4-0.6,0.5-1.1,0.7c-0.4,0.3-0.8,0.3-1.3,0.3h-2.1l-0.7,3.8L342.6,56.6L342.6,56.6z M344.7,51.7h2c0.4,0,0.7-0.1,1.1-0.4
				c0.3-0.2,0.5-0.4,0.7-0.9s0.3-0.9,0.3-1.3s-0.1-0.7-0.4-1c-0.3-0.3-0.5-0.4-1.1-0.4h-2L344.7,51.7z"/>
			<path id="_x32_0_00000055669101829774130760000008834186864030005173_" class="st5" d="M355.6,56.8c-0.7,0-1.2-0.1-1.7-0.4
				c-0.5-0.3-0.9-0.6-1.1-1.2c-0.3-0.5-0.4-1.2-0.4-1.9c0-0.3,0.1-0.5,0.1-0.9s0.1-0.6,0.1-1c0.2-1.1,0.4-2,0.9-2.8
				c0.4-0.7,0.9-1.3,1.5-1.7c0.5-0.4,1.3-0.5,2.1-0.5c0.7,0,1.2,0.2,1.8,0.4c0.4,0.3,0.8,0.6,1.1,1.2c0.3,0.4,0.4,1.1,0.4,1.9
				c0,0.3,0,0.5,0,0.9c-0.1,0.4-0.1,0.6-0.2,1c-0.2,1.1-0.4,2-0.9,2.8c-0.4,0.7-0.9,1.3-1.5,1.7C357.2,56.6,356.4,56.8,355.6,56.8z
				 M355.7,55.7c0.4,0,0.8-0.1,1.2-0.3c0.4-0.2,0.6-0.4,0.9-0.7c0.3-0.3,0.5-0.7,0.7-1.2c0.2-0.5,0.4-1.1,0.4-1.7
				c0.1-0.3,0.1-0.5,0.1-0.7c0-0.3,0.1-0.4,0.1-0.5c0-0.2,0.1-0.3,0.1-0.4s0-0.3,0-0.4c0-0.5-0.1-1-0.3-1.3s-0.4-0.5-0.7-0.7
				s-0.6-0.3-1.1-0.3c-0.4,0-0.8,0.1-1.2,0.3c-0.4,0.2-0.6,0.4-0.9,0.7c-0.3,0.4-0.5,0.7-0.7,1.2c-0.2,0.5-0.4,1-0.4,1.6
				c0,0.3-0.1,0.5-0.1,0.7c0,0.3,0,0.4-0.1,0.5c0,0.2,0,0.3,0,0.4s-0.1,0.3-0.1,0.4c0,0.5,0.1,1,0.3,1.3c0.2,0.4,0.4,0.5,0.7,0.7
				C354.9,55.6,355.2,55.7,355.7,55.7z"/>
			<path id="_x32_1_00000036947225495846903280000009403499917936587428_" class="st5" d="M363,56.6l1.7-10h3.5
				c0.6,0,1.2,0.1,1.5,0.3c0.4,0.2,0.6,0.4,0.8,0.7c0.2,0.4,0.3,0.7,0.3,1.2c0,0.5-0.1,1.1-0.3,1.5c-0.1,0.4-0.4,0.9-0.7,1.2
				c-0.3,0.4-0.6,0.6-1.1,0.8l1.1,4.3h-1.3l-1-4h-2.5l-0.7,4H363z M365.1,51.5h2.1c0.4,0,0.8-0.1,1.2-0.4c0.3-0.2,0.5-0.4,0.7-0.9
				c0.2-0.4,0.3-0.8,0.3-1.3c0-0.4-0.1-0.7-0.3-0.9c-0.3-0.2-0.5-0.3-1.1-0.3h-2.2L365.1,51.5z"/>
			<path id="_x32_2_00000017477554104373305620000011587234685213397666_" class="st5" d="M372.2,56.6l4.6-10h1.5l1.1,10h-1.2
				l-0.3-2.6h-3.2l-1.2,2.6H372.2z M375.1,52.8h2.7l-0.3-3.1c-0.1-0.1-0.1-0.3-0.1-0.4c-0.1-0.1-0.1-0.3-0.1-0.4s0-0.4,0-0.4
				c-0.1-0.1-0.1-0.3-0.1-0.4h-0.1c-0.1,0.2-0.2,0.4-0.3,0.5c-0.1,0.2-0.2,0.4-0.3,0.5c-0.1,0.3-0.2,0.4-0.3,0.5L375.1,52.8z"/>
			<polygon id="_x32_3_00000063605906996963439250000008256816950743576995_" class="st5" points="383.4,56.6 385,47.9 382.4,47.9 
				382.5,46.7 389,46.7 388.9,47.9 386.3,47.9 384.7,56.6 			"/>
			<polygon id="_x32_4_00000062898874730023812660000005770720485693346193_" class="st5" points="390.5,56.6 392.3,46.7 
				393.6,46.7 391.8,56.6 			"/>
			<path id="_x32_5_00000102518166059001494940000013123475314308903065_" class="st5" d="M399.4,56.8c-0.7,0-1.2-0.1-1.7-0.4
				c-0.5-0.3-0.9-0.6-1.1-1.2c-0.3-0.5-0.4-1.2-0.4-1.9c0-0.3,0.1-0.5,0.1-0.9c0.1-0.4,0.1-0.6,0.1-1c0.2-1.1,0.5-2,0.9-2.8
				c0.4-0.7,0.9-1.3,1.5-1.7c0.6-0.4,1.3-0.5,2.1-0.5c0.7,0,1.3,0.2,1.8,0.4c0.4,0.3,0.9,0.6,1.1,1.2c0.3,0.4,0.4,1.1,0.4,1.9
				c0,0.3,0,0.5,0,0.9c-0.1,0.4-0.1,0.6-0.1,1c-0.3,1.1-0.5,2-0.9,2.8c-0.4,0.7-0.9,1.3-1.5,1.7C400.9,56.6,400.2,56.8,399.4,56.8z
				 M399.4,55.7c0.4,0,0.8-0.1,1.2-0.3c0.4-0.2,0.7-0.4,0.9-0.7c0.3-0.3,0.5-0.7,0.7-1.2c0.3-0.5,0.4-1.1,0.4-1.7
				c0.1-0.3,0.1-0.5,0.1-0.7c0-0.3,0.1-0.4,0.1-0.5c0.1-0.2,0.1-0.3,0.1-0.4s0-0.3,0-0.4c0-0.5-0.1-1-0.3-1.3
				c-0.2-0.4-0.4-0.5-0.7-0.7s-0.6-0.3-1.1-0.3c-0.4,0-0.8,0.1-1.2,0.3s-0.6,0.4-0.9,0.7c-0.3,0.4-0.4,0.7-0.7,1.2
				c-0.2,0.4-0.3,1-0.4,1.6c-0.1,0.3-0.1,0.5-0.1,0.7c-0.1,0.3-0.1,0.4-0.1,0.5c-0.1,0.2-0.1,0.3-0.1,0.4s0,0.3,0,0.4
				c0,0.5,0.1,1,0.3,1.3c0.1,0.4,0.4,0.5,0.6,0.7C398.6,55.6,399,55.7,399.4,55.7z"/>
			<path id="_x32_6_00000005265828581585725380000009812653997106345145_" class="st5" d="M406.7,56.6l1.8-10h1.2l2.2,6.3
				c0,0.1,0.1,0.2,0.1,0.3c0,0.1,0.1,0.3,0.1,0.4c0,0.1,0.1,0.2,0.1,0.3h0.1c0.1-0.2,0.1-0.4,0.1-0.5c0-0.3,0.1-0.4,0.1-0.5l1.1-6.2
				h1.2l-1.8,10H412l-2.3-6.4c-0.1-0.1-0.1-0.3-0.2-0.4c-0.1-0.2-0.1-0.4-0.2-0.4h-0.1c-0.1,0.1-0.1,0.3-0.1,0.5s-0.1,0.4-0.1,0.6
				l-1.1,6.1L406.7,56.6L406.7,56.6z"/>
		</g>
	</g>
</g>
</svg>
