<?xml version="1.0" encoding="UTF-8"?>
<!DOCTYPE svg PUBLIC "-//W3C//DTD SVG 1.1//EN" "http://www.w3.org/Graphics/SVG/1.1/DTD/svg11.dtd">
<!-- Creator: CorelDRAW X7 -->
<svg xmlns="http://www.w3.org/2000/svg" xml:space="preserve" width="5.77463in" height="1.14844in" version="1.1" style="shape-rendering:geometricPrecision; text-rendering:geometricPrecision; image-rendering:optimizeQuality; fill-rule:evenodd; clip-rule:evenodd"
viewBox="0 0 5775 1148"
 xmlns:xlink="http://www.w3.org/1999/xlink">
 <defs>
  <style type="text/css">
   <![CDATA[
    .fil0 {fill:#0183C1}
    .fil1 {fill:#FEFEFE;fill-rule:nonzero}
   ]]>
  </style>
 </defs>
 <g id="Layer_x0020_1">
  <metadata id="CorelCorpID_0Corel-Layer"/>
  <g id="_331053504">
   <g>
    <path class="fil0" d="M190 424l107 0c15,0 27,13 27,28l0 431c0,16 -12,28 -27,28l-107 0c-15,0 -28,-12 -28,-28l0 -431c0,-15 13,-28 28,-28z"/>
    <path class="fil0" d="M103 958l992 0c20,0 37,17 37,37l0 24c0,21 -17,37 -37,37l-992 0c-20,0 -37,-16 -37,-37l0 -24c0,-20 17,-37 37,-37z"/>
    <path class="fil0" d="M26 1096l1164 0c14,0 26,12 26,26l0 0c0,15 -12,26 -26,26l-1164 0c-14,0 -26,-11 -26,-26l0 0c0,-14 12,-26 26,-26z"/>
    <path class="fil0" d="M677 530l0 353c0,16 -13,28 -28,28l-53 0 0 0 0 0 -53 0c-15,0 -28,-12 -28,-28l0 -353c0,-59 -6,-48 -39,-94 -33,-47 -34,-70 -100,-70l-310 0c-21,0 -43,-5 -43,-32 0,-21 15,-27 30,-35l518 -290c9,-5 14,-9 24,-9l0 0c0,0 1,0 1,0 0,0 1,0 1,0l0 0c10,0 16,4 24,9l518 290c16,8 30,14 30,35 0,27 -21,32 -43,32l-309 0c-67,0 -67,23 -101,70 -32,46 -39,35 -39,94zm-81 -319l1 0 95 0c11,0 21,10 21,21l0 105c0,23 -2,21 -15,37l-40 49c-13,16 -17,31 -37,31l-25 0 0 0 0 0 -25 0c-19,0 -23,-15 -37,-31l-39 -49c-14,-16 -15,-14 -15,-37l0 -105c0,-11 9,-21 21,-21l94 0 1 0z"/>
    <path class="fil0" d="M895 424l107 0c15,0 28,13 28,28l0 431c0,16 -13,28 -28,28l-107 0c-15,0 -28,-12 -28,-28l0 -431c0,-15 13,-28 28,-28z"/>
   </g>
   <path class="fil1" d="M1692 636c-6,-28 -21,-47 -46,-57 -14,-6 -29,-9 -46,-9 -32,0 -59,12 -80,36 -21,24 -31,61 -31,110 0,49 11,84 34,104 22,21 48,31 77,31 28,0 51,-8 69,-24 18,-16 29,-37 33,-63l-93 0 0 -67 167 0 0 215 -55 0 -9 -50c-16,19 -30,32 -43,40 -22,13 -50,20 -82,20 -53,0 -97,-19 -131,-55 -35,-37 -53,-88 -53,-152 0,-65 18,-117 54,-156 36,-39 83,-59 142,-59 51,0 92,13 123,39 31,26 48,58 53,97l-83 0zm280 36c-20,0 -35,5 -46,16 -11,11 -18,26 -21,45l134 0c-1,-20 -8,-35 -21,-46 -12,-10 -27,-15 -46,-15zm1 -65c26,0 49,5 70,14 20,9 37,24 51,44 12,17 20,38 23,61 2,13 3,33 3,59l-216 0c1,30 11,51 31,63 11,7 26,11 42,11 18,0 32,-5 43,-14 6,-5 12,-11 16,-20l80 0c-2,18 -12,35 -29,54 -26,28 -63,43 -111,43 -40,0 -74,-12 -105,-37 -30,-24 -45,-64 -45,-119 0,-51 14,-90 41,-118 27,-27 62,-41 106,-41zm347 1c1,0 3,0 4,0 1,0 3,0 6,1l0 79c-5,0 -9,-1 -13,-1 -4,0 -7,0 -9,0 -31,0 -52,10 -63,30 -6,12 -9,29 -9,53l0 142 -77 0 0 -297 73 0 0 52c12,-20 22,-34 31,-41 15,-12 34,-18 57,-18zm26 65l0 -55 41 0 0 -84 77 0 0 84 48 0 0 55 -48 0 0 157c0,12 2,20 5,23 3,3 12,4 28,4 2,0 5,0 7,0 3,0 6,-1 8,-1l0 58 -37 2c-36,1 -61,-5 -75,-19 -8,-9 -13,-23 -13,-41l0 -183 -41 0zm295 239l-77 0 0 -401 77 0 0 401zm199 -240c-20,0 -35,5 -46,16 -11,11 -18,26 -21,45l134 0c-2,-20 -9,-35 -21,-46 -12,-10 -28,-15 -46,-15zm0 -65c26,0 49,5 70,14 21,9 38,24 51,44 12,17 20,38 24,61 2,13 3,33 2,59l-216 0c1,30 12,51 31,63 12,7 26,11 43,11 18,0 32,-5 43,-14 6,-5 11,-11 16,-20l80 0c-2,18 -12,35 -29,54 -27,28 -64,43 -112,43 -39,0 -74,-12 -104,-37 -30,-24 -45,-64 -45,-119 0,-51 13,-90 40,-118 28,-27 63,-41 106,-41zm347 1c2,0 3,0 4,0 1,0 3,0 7,1l0 79c-5,0 -10,-1 -13,-1 -4,0 -7,0 -10,0 -31,0 -52,10 -62,30 -7,12 -9,29 -9,53l0 142 -78 0 0 -297 74 0 0 52c12,-20 22,-34 31,-41 14,-12 33,-18 56,-18zm218 -98l83 0 0 330 201 0 0 72 -284 0 0 -402zm499 258c-5,3 -10,5 -15,7 -5,2 -12,4 -21,5l-17 4c-17,3 -29,6 -36,10 -12,7 -18,18 -18,33 0,14 4,23 11,29 8,6 17,9 27,9 17,0 33,-5 47,-15 14,-10 22,-27 22,-53l0 -29zm-47 -36c14,-2 25,-5 31,-7 11,-5 17,-12 17,-22 0,-13 -5,-21 -13,-26 -9,-4 -21,-7 -38,-7 -19,0 -32,5 -39,14 -6,7 -10,16 -11,27l-75 0c2,-26 9,-47 22,-64 20,-26 56,-39 106,-39 32,0 61,7 87,19 25,13 37,38 37,73l0 136c0,10 1,21 1,35 1,10 2,17 5,20 2,4 6,7 11,9l0 12 -84 0c-3,-6 -4,-12 -5,-17 -1,-5 -2,-11 -2,-18 -11,12 -23,22 -37,30 -17,9 -36,14 -57,14 -27,0 -50,-7 -67,-23 -18,-15 -27,-37 -27,-65 0,-36 15,-63 43,-79 15,-9 38,-15 68,-19l27 -3zm332 -117l79 0 45 214 47 -214 80 0 -86 297 -79 0 -47 -216 -47 216 -81 0 -83 -297 83 0 47 213 42 -213zm455 -105l286 0 0 71 -203 0 0 92 178 0 0 69 -178 0 0 170 -83 0 0 -402zm414 70l-79 0 0 -72 79 0 0 72zm-79 35l79 0 0 297 -79 0 0 -297zm315 -7c1,0 2,0 3,0 1,0 4,0 7,1l0 79c-5,0 -9,-1 -13,-1 -4,0 -7,0 -9,0 -31,0 -52,10 -63,30 -6,12 -9,29 -9,53l0 142 -78 0 0 -297 74 0 0 52c12,-20 22,-34 31,-41 15,-12 33,-18 57,-18zm388 1c13,0 26,2 38,7 13,5 25,14 35,27 8,10 14,23 17,38 2,10 3,25 3,44l-1 187 -79 0 0 -189c0,-11 -2,-21 -6,-28 -7,-14 -19,-21 -38,-21 -21,0 -36,9 -45,27 -4,10 -6,21 -6,34l0 177 -77 0 0 -177c0,-17 -2,-30 -6,-38 -6,-14 -19,-22 -38,-22 -22,0 -37,8 -45,22 -4,8 -6,20 -6,36l0 179 -79 0 0 -296 76 0 0 43c9,-15 18,-26 27,-33 15,-12 34,-17 58,-17 23,0 41,5 55,15 11,9 20,21 25,35 11,-17 23,-30 38,-38 16,-8 34,-12 54,-12z"/>
  </g>
 </g>
</svg>
