<?xml version="1.0" encoding="utf-8"?>
<!-- Generator: Adobe Illustrator 26.0.0, SVG Export Plug-In . SVG Version: 6.00 Build 0)  -->
<svg version="1.1" id="Layer_1" xmlns="http://www.w3.org/2000/svg" xmlns:xlink="http://www.w3.org/1999/xlink" x="0px" y="0px"
	 viewBox="0 0 379.8 73.1" style="enable-background:new 0 0 379.8 73.1;" xml:space="preserve">
<style type="text/css">
	.st0{fill:#FFFFFF;}
	.st1{fill:#CDBD99;}
</style>
<g>
	<g>
		<g>
			<polygon class="st0" points="59.9,19.6 53.5,36.7 66.2,36.7 			"/>
			<path class="st0" d="M50.1,36.7h2.3l6.5-17.2c-0.4-0.2-0.7-0.6-0.8-1.1c-0.6-0.2-1.3-0.6-2-0.9c-1.5-0.7-3.2-1.6-5-1.6
				c-1.7,0-2.8,0.8-3.4,1.4c0,0.2,0.1,0.3,0.1,0.5c0,1.2-0.6,2.2-1.5,2.9c-0.1,0.7-0.4,1.3-1,1.6v25.2c0.4-0.1,0.8-0.2,1.2-0.4
				c3.8-1.1,7.4-2.4,10.9-3.7C54,42.6,51.2,40.1,50.1,36.7z"/>
			<polygon class="st0" points="34.8,36.7 28.5,19.6 22.2,36.7 			"/>
			<path class="st0" d="M73.2,15.9L46.9,0.7C46,0.2,45.1,0,44.2,0c-0.9,0-1.9,0.2-2.7,0.7L15.2,15.9c-1.6,1-2.7,2.7-2.7,4.6v31.3
				c1.8,0.2,4,0.3,6.5,0.2c6.9-0.2,15.3-1.6,24-3.9V22.3c-0.6-0.4-0.9-1-1-1.6c-0.9-0.6-1.4-1.7-1.4-2.9c0-0.2,0-0.3,0-0.5
				c-0.6-0.7-1.7-1.4-3.4-1.4c-1.8,0-3.5,0.9-5,1.6c-0.7,0.3-1.4,0.7-2,0.9c-0.1,0.5-0.4,0.8-0.8,1.1L36,36.7h2.3
				c-1.4,4.1-5.3,7-9.8,7s-8.4-2.9-9.8-7H21l6.5-17.2c-0.6-0.4-0.9-1-0.9-1.7c0-1.1,0.9-2,2-2c0.6,0,1.1,0.2,1.4,0.6
				c0.5-0.2,1-0.5,1.6-0.7c1.7-0.9,3.6-1.8,5.8-1.8c2,0,3.3,0.7,4.2,1.5c0.4-0.5,1-0.8,1.6-1c-0.7-0.4-1.2-1.1-1.2-2
				c0-1.3,2.3-4.3,2.3-4.3s2.3,3,2.3,4.3c0,0.9-0.5,1.6-1.2,2c0.6,0.2,1.1,0.5,1.6,1c0.9-0.8,2.3-1.5,4.2-1.5c2.2,0,4.2,1,5.8,1.8
				c0.5,0.3,1.1,0.5,1.6,0.7c0.4-0.4,0.9-0.6,1.4-0.6c1.1,0,2,0.9,2,2c0,0.7-0.4,1.3-0.9,1.7l6.5,17.2h2.3c-0.2,0.5-0.4,0.9-0.6,1.3
				c1.6-0.9,3.1-1.8,4.5-2.7c0.8-0.5,1.5-1,2.2-1.5V20.5C75.8,18.6,74.8,16.9,73.2,15.9z"/>
		</g>
		<path class="st1" d="M87.4,29c-0.7-2.7-3.4-4.8-7.5-6.1c1.8,0.9,3,2,3.4,3.4c1.8,6.7-15,17-37.4,23S3.9,54.8,2.1,48.2
			C1.8,47,2,45.8,2.7,44.5c-2.2,2.8-3.1,5.5-2.5,7.9c1.6,5.8,11.9,8.5,25.8,7.6h0c0,0-4.3,0.9-8.6,1l24.1,11.3
			c0.8,0.5,1.7,0.7,2.7,0.7s1.8-0.2,2.7-0.7l26.3-15.2c1.6-1,2.7-2.7,2.7-4.6V46C69.4,49.4,64,50.8,64,50.8l0,0
			C79.4,44.2,89.2,35.6,87.4,29z"/>
	</g>
	<g>
		<g>
			<path class="st0" d="M120.2,5.4v23.3h-4.3v-10h-12.1v10h-4.3V5.4h4.3V15h12.1V5.4H120.2z"/>
			<path class="st0" d="M144.1,25.1v3.6h-17.5V5.4h17V9h-12.7v6.1h11.3v3.6h-11.3v6.4H144.1z"/>
			<path class="st0" d="M164.2,28.7l-4.8-6.8c-0.2,0-0.5,0-0.9,0h-5.3v6.8h-4.3V5.4h9.6c2,0,3.8,0.3,5.3,1s2.6,1.6,3.5,2.9
				c0.8,1.2,1.2,2.7,1.2,4.4c0,1.7-0.4,3.3-1.3,4.5s-2.1,2.2-3.7,2.8l5.4,7.7H164.2z M162.6,10.2c-1-0.8-2.4-1.2-4.3-1.2h-5.1v9.3
				h5.1c1.9,0,3.3-0.4,4.3-1.2c1-0.8,1.5-2,1.5-3.5C164.1,12.2,163.6,11,162.6,10.2z"/>
			<path class="st0" d="M188.6,28.7l-4.8-6.8c-0.2,0-0.5,0-0.9,0h-5.3v6.8h-4.3V5.4h9.6c2,0,3.8,0.3,5.3,1c1.5,0.7,2.6,1.6,3.5,2.9
				c0.8,1.2,1.2,2.7,1.2,4.4c0,1.7-0.4,3.3-1.3,4.5c-0.9,1.3-2.1,2.2-3.7,2.8l5.4,7.7H188.6z M187,10.2c-1-0.8-2.4-1.2-4.3-1.2h-5.1
				v9.3h5.1c1.9,0,3.3-0.4,4.3-1.2c1-0.8,1.5-2,1.5-3.5C188.5,12.2,188,11,187,10.2z"/>
			<path class="st0" d="M197.7,5.4h4.3v23.3h-4.3V5.4z"/>
			<path class="st0" d="M229.1,5.4v23.3h-3.6l-12.9-15.8v15.8h-4.3V5.4h3.6l12.9,15.8V5.4H229.1z"/>
			<path class="st0" d="M251.3,16.8h4.1v9.3c-1.2,1-2.6,1.7-4.2,2.2c-1.6,0.5-3.2,0.8-4.9,0.8c-2.4,0-4.5-0.5-6.4-1.6
				c-1.9-1-3.4-2.5-4.5-4.3c-1.1-1.8-1.6-3.9-1.6-6.2s0.5-4.3,1.6-6.2c1.1-1.8,2.6-3.2,4.5-4.3s4.1-1.6,6.5-1.6c2,0,3.7,0.3,5.3,1
				c1.6,0.6,3,1.6,4,2.8l-2.7,2.7c-1.8-1.8-3.9-2.7-6.4-2.7c-1.6,0-3.1,0.4-4.4,1c-1.3,0.7-2.3,1.7-3,2.9c-0.7,1.2-1.1,2.7-1.1,4.3
				c0,1.6,0.4,3,1.1,4.2c0.7,1.2,1.7,2.2,3,2.9c1.3,0.7,2.7,1.1,4.3,1.1c1.8,0,3.4-0.4,4.8-1.2L251.3,16.8L251.3,16.8z"/>
			<path class="st0" d="M265.8,9h-7.7V5.4h19.8V9h-7.7v19.7h-4.3V9z"/>
			<path class="st0" d="M285.3,27.5c-1.9-1-3.4-2.5-4.5-4.3s-1.6-3.9-1.6-6.2s0.5-4.3,1.6-6.2c1.1-1.8,2.6-3.3,4.5-4.3
				c1.9-1,4.1-1.6,6.4-1.6s4.5,0.5,6.4,1.6c1.9,1,3.4,2.5,4.5,4.3s1.6,3.9,1.6,6.2s-0.5,4.3-1.6,6.2c-1.1,1.8-2.6,3.2-4.5,4.3
				c-1.9,1-4.1,1.6-6.4,1.6C289.4,29,287.2,28.5,285.3,27.5z M296,24.2c1.2-0.7,2.2-1.7,2.9-2.9c0.7-1.2,1.1-2.7,1.1-4.2
				s-0.4-3-1.1-4.2c-0.7-1.2-1.7-2.2-2.9-2.9c-1.2-0.7-2.6-1.1-4.2-1.1s-3,0.4-4.2,1.1c-1.2,0.7-2.2,1.7-2.9,2.9s-1.1,2.7-1.1,4.2
				c0,1.6,0.4,3,1.1,4.2c0.7,1.2,1.7,2.2,2.9,2.9c1.2,0.7,2.6,1.1,4.2,1.1C293.3,25.3,294.7,24.9,296,24.2z"/>
			<path class="st0" d="M329.7,5.4v23.3h-3.6l-12.9-15.8v15.8h-4.3V5.4h3.6l12.9,15.8V5.4H329.7z"/>
			<path class="st0" d="M99.5,39.7h4.3v19.7H116V63H99.5V39.7z"/>
			<path class="st0" d="M134.8,57.6h-11.7l-2.3,5.4h-4.5l10.5-23.3h4.3L141.7,63h-4.5L134.8,57.6z M133.4,54.2L129,44l-4.4,10.2
				H133.4z"/>
			<path class="st0" d="M177.6,39.7L169.8,63h-4.6l-5.8-17.3L153.6,63h-4.6l-7.7-23.3h4.5l5.8,17.7l6-17.7h4l5.9,17.9l6-17.9
				L177.6,39.7L177.6,39.7z"/>
			<path class="st0" d="M195.1,43.3v7.1h11.3v3.7h-11.3V63h-4.3V39.7h17v3.6H195.1z"/>
			<path class="st0" d="M212,39.7h4.3V63H212V39.7z"/>
			<path class="st0" d="M238,63l-4.8-6.8c-0.2,0-0.5,0-0.9,0H227V63h-4.3V39.7h9.6c2,0,3.8,0.3,5.3,1c1.5,0.7,2.6,1.6,3.5,2.9
				c0.8,1.2,1.2,2.7,1.2,4.4c0,1.7-0.4,3.3-1.3,4.5c-0.9,1.3-2.1,2.2-3.7,2.8l5.4,7.7L238,63L238,63z M236.4,44.6
				c-1-0.8-2.4-1.2-4.3-1.2H227v9.3h5.1c1.9,0,3.3-0.4,4.3-1.2c1-0.8,1.5-2,1.5-3.5C237.9,46.5,237.4,45.4,236.4,44.6z"/>
			<path class="st0" d="M268.5,63l0-15.5l-7.7,12.8h-1.9l-7.7-12.6V63h-4.1V39.7h3.6l9.3,15.5l9.1-15.5h3.6l0,23.3L268.5,63
				L268.5,63z"/>
			<path class="st0" d="M281.8,58.5c0.5,0.5,0.8,1.2,0.8,2c0,0.4,0,0.7-0.1,1.1c-0.1,0.4-0.3,1-0.6,1.7l-1.7,4.7h-2.7l1.3-5.1
				c-0.5-0.2-0.9-0.5-1.1-1c-0.3-0.4-0.4-0.9-0.4-1.5c0-0.8,0.2-1.5,0.8-2c0.5-0.5,1.2-0.8,1.9-0.8C280.7,57.7,281.3,58,281.8,58.5z
				"/>
			<path class="st0" d="M311.2,40.7c1.5,0.7,2.6,1.6,3.5,2.9c0.8,1.2,1.2,2.7,1.2,4.4c0,1.7-0.4,3.2-1.2,4.4c-0.8,1.2-2,2.2-3.5,2.9
				c-1.5,0.7-3.3,1-5.3,1h-5.3V63h-4.3V39.7h9.6C307.9,39.7,309.7,40,311.2,40.7z M310,51.4c1-0.8,1.5-2,1.5-3.4
				c0-1.5-0.5-2.6-1.5-3.4c-1-0.8-2.4-1.2-4.3-1.2h-5.1v9.3h5.1C307.6,52.6,309,52.2,310,51.4z"/>
			<path class="st0" d="M320.2,39.7h4.3v19.7h12.2V63h-16.5V39.7z"/>
			<path class="st0" d="M340.1,39.7h4.3v19.7h12.2V63h-16.5V39.7z"/>
			<path class="st0" d="M364.1,61.8c-1.9-1-3.4-2.5-4.5-4.3c-1.1-1.8-1.6-3.9-1.6-6.2c0-2.3,0.5-4.3,1.6-6.2
				c1.1-1.8,2.6-3.2,4.5-4.3c1.9-1,4-1.6,6.4-1.6c1.9,0,3.7,0.3,5.2,1c1.6,0.7,2.9,1.6,4,2.9l-2.8,2.6c-1.7-1.8-3.8-2.7-6.2-2.7
				c-1.6,0-3,0.4-4.3,1.1c-1.3,0.7-2.3,1.7-3,2.9s-1.1,2.7-1.1,4.2c0,1.6,0.4,3,1.1,4.2c0.7,1.2,1.7,2.2,3,2.9
				c1.3,0.7,2.7,1.1,4.3,1.1c2.5,0,4.6-0.9,6.2-2.8l2.8,2.7c-1.1,1.3-2.4,2.2-4,2.9c-1.6,0.7-3.4,1-5.3,1
				C368.2,63.4,366,62.9,364.1,61.8z"/>
		</g>
	</g>
</g>
</svg>
